<?xml version="1.0" encoding="UTF-8"?>
<svg version="1.1" xmlns="http://www.w3.org/2000/svg" width="512" height="512">
<path d="M0 0 C0.95722961 -0.0071553 1.91445923 -0.01431061 2.9006958 -0.02168274 C3.94436813 -0.02437164 4.98804047 -0.02706055 6.06333923 -0.02983093 C7.72020248 -0.03968773 7.72020248 -0.03968773 9.41053772 -0.04974365 C13.0694638 -0.06946789 16.7283488 -0.08113882 20.38731384 -0.09111023 C21.63866056 -0.09518576 22.89000729 -0.09926128 24.17927361 -0.10346031 C30.12252086 -0.12216961 36.06575513 -0.13673417 42.00902468 -0.14507228 C48.84613245 -0.15482507 55.68291478 -0.18109588 62.51990801 -0.22157317 C68.45937544 -0.25551679 74.39876436 -0.2672293 80.33833122 -0.27127647 C82.85519552 -0.27613516 85.37205653 -0.28772851 87.88885689 -0.30631447 C91.42123597 -0.33077394 94.95277564 -0.32972766 98.48521423 -0.32279968 C99.51471695 -0.33560974 100.54421967 -0.3484198 101.60491943 -0.36161804 C115.34567251 -0.26395544 126.19292406 5.7431242 135.71934509 15.33857727 C137.22715759 17.14717102 137.22715759 17.14717102 138.0955658 19.72261047 C139.95381524 22.32931446 139.95381524 22.32931446 142.48948669 22.60525513 C145.61568504 22.77609722 148.70970331 22.78597424 151.84043884 22.74873352 C153.001577 22.75673981 154.16271515 22.76474609 155.35903931 22.772995 C159.08626272 22.7961281 162.81240428 22.78660003 166.53965759 22.77217102 C203.17605395 22.73375047 203.17605395 22.73375047 216.35215759 29.64717102 C217.01465515 29.98901428 217.67715271 30.33085754 218.35972595 30.68305969 C233.26485782 38.77544255 243.01883114 52.09304116 248.22715759 68.14717102 C249.85847725 74.78087019 250.51458858 81.07492806 250.46766663 87.8915863 C250.4702299 89.2826016 250.4702299 89.2826016 250.47284496 90.70171821 C250.47611473 93.78013372 250.46517788 96.85832669 250.45420837 99.9367218 C250.45364372 102.15491735 250.45396189 104.37311327 250.45509338 106.59130859 C250.45566576 112.59262414 250.44392995 118.59385928 250.42994547 124.59515619 C250.41741904 130.87452439 250.4162661 137.15389455 250.41389465 143.43327332 C250.40839039 153.96617424 250.39590909 164.49905039 250.3780365 175.03193665 C250.359654 185.87666172 250.34550912 196.7213788 250.33702087 207.56611633 C250.33649543 208.2355631 250.33596998 208.90500987 250.33542861 209.59474291 C250.33281837 212.95345255 250.33029099 216.31216224 250.3278048 219.67087197 C250.30691562 247.49632544 250.27175062 275.32174616 250.22715759 303.14717102 C251.0858696 302.92782898 251.0858696 302.92782898 251.96192932 302.70405579 C254.5834373 302.03625352 257.20605921 301.37293038 259.82872009 300.70967102 C260.72921082 300.47957336 261.62970154 300.24947571 262.55747986 300.0124054 C278.00440694 296.11715471 291.09680358 296.69049053 305.41465759 304.42060852 C320.04339813 313.4010298 331.09934299 326.50813485 335.39512634 343.31513977 C342.55793812 375.84414491 328.61712513 411.47541221 311.39903259 438.71357727 C306.32412974 446.44239316 300.68621031 453.51675568 294.22715759 460.14717102 C293.40215759 461.01342102 292.57715759 461.87967102 291.72715759 462.77217102 C290.90215759 463.55592102 290.07715759 464.33967102 289.22715759 465.14717102 C288.60711853 465.76205383 287.98707947 466.37693665 287.34825134 467.01045227 C277.88102539 476.00347013 266.34014339 481.70747888 253.13731384 481.47138977 C246.99833557 480.78744991 241.41198225 478.41436932 236.10215759 475.33467102 C231.89977463 473.59890415 228.57501972 473.96460917 224.22715759 475.14717102 C222.66419468 475.91791046 221.12277526 476.73342824 219.60215759 477.58467102 C206.02595296 484.7284385 187.73311613 482.44868413 172.90564489 482.43793845 C169.34732896 482.43752605 165.7890443 482.44860879 162.23074341 482.45805359 C155.28010536 482.47456966 148.32950125 482.48015872 141.3788452 482.48127834 C135.72618251 482.48223265 130.07353091 482.48636187 124.42087173 482.4926796 C108.36144613 482.51026097 92.30204711 482.51952253 76.24261181 482.51801865 C74.94767193 482.51789878 74.94767193 482.51789878 73.62657166 482.51777649 C72.3300353 482.51765385 72.3300353 482.51765385 71.00730629 482.51752873 C56.98786702 482.51671517 42.96853501 482.5358786 28.94912677 482.56405322 C14.52171316 482.59281724 0.09435185 482.6065918 -14.33309114 482.60486567 C-22.42024871 482.60420332 -30.50729359 482.60962839 -38.5944252 482.63122177 C-45.47559059 482.64947927 -52.3565921 482.65374302 -59.23777129 482.64020292 C-62.74331209 482.63369817 -66.24853888 482.63346521 -69.7540493 482.65090942 C-73.56532948 482.66640763 -77.37579414 482.65702234 -81.1870575 482.64164734 C-82.27900661 482.65193447 -83.37095573 482.66222159 -84.49599421 482.67282045 C-100.11416317 482.5343321 -115.480166 475.97769163 -126.77284241 465.14717102 C-140.71444441 448.98862575 -144.92702517 433.13464394 -144.9132843 412.27082825 C-144.91587043 410.84829551 -144.91888428 409.4257635 -144.9222877 408.00323248 C-144.93033201 404.10305892 -144.93214584 400.2029038 -144.93288517 396.30272293 C-144.93474024 392.09256246 -144.94228992 387.88241145 -144.94902039 383.67225647 C-144.96258657 374.46947929 -144.96862592 365.26670648 -144.97303104 356.06392097 C-144.9757967 350.31332431 -144.98003468 344.56272932 -144.98453522 338.81213379 C-144.99672628 322.87843685 -145.0070255 306.94474124 -145.01041031 291.01103973 C-145.01062987 289.99176552 -145.01084944 288.9724913 -145.01107566 287.92232999 C-145.01129394 286.90066658 -145.01151222 285.87900316 -145.01173711 284.82638025 C-145.01218057 282.75622717 -145.01262713 280.6860741 -145.01307678 278.61592102 C-145.01329821 277.58906148 -145.01351964 276.56220193 -145.01374778 275.50422543 C-145.01769331 258.87641109 -145.03514059 242.24864063 -145.0584363 225.62084323 C-145.08218162 208.53362994 -145.09461363 191.44643864 -145.09577823 174.35920858 C-145.09669327 164.77176618 -145.10240231 155.18438095 -145.12059784 145.59695435 C-145.13604188 137.43073241 -145.14109403 129.26458531 -145.13285974 121.09835154 C-145.12896826 116.93649057 -145.12980881 112.77478012 -145.14391708 108.61293793 C-145.1567469 104.79307201 -145.15537991 100.97346832 -145.14332637 97.1536023 C-145.14047453 95.13794213 -145.15223597 93.12227704 -145.16474843 91.10665369 C-145.06293707 72.09106051 -140.22390389 55.18625705 -126.77284241 41.14717102 C-112.155007 27.14160097 -95.48542818 22.91403881 -75.83924866 22.95185852 C-74.08488998 22.95367882 -74.08488998 22.95367882 -72.29508972 22.95553589 C-67.39705698 22.97176332 -62.50050025 23.00143949 -57.60316467 23.08857727 C-53.99334498 23.14569091 -50.38693516 23.14668993 -46.77674866 23.13935852 C-45.67561234 23.17334747 -44.57447601 23.20733643 -43.43997192 23.24235535 C-37.49168075 23.21963859 -37.49168075 23.21963859 -32.58604431 20.1889801 C-30.82227683 17.91395768 -29.3105354 15.57751714 -27.77284241 13.14717102 C-20.77592271 5.6244934 -10.35553145 0.05331344 0 0 Z " fill="#FEFEFE" transform="translate(159.77284240722656,14.852828979492188)"/>
<path d="M0 0 C2.53775248 0.01507287 5.07551361 0.02875667 7.61328125 0.04101562 C13.78404524 0.07381722 19.95448152 0.12381047 26.125 0.1875 C25.92003906 0.86296875 25.71507813 1.5384375 25.50390625 2.234375 C25.23449219 3.12640625 24.96507813 4.0184375 24.6875 4.9375 C24.42066406 5.81921875 24.15382813 6.7009375 23.87890625 7.609375 C22.61273642 11.9392822 22.00418976 15.50869354 22.02734375 20.046875 C22.03056641 21.16191406 22.03378906 22.27695312 22.03710938 23.42578125 C22.04548828 24.58464844 22.05386719 25.74351563 22.0625 26.9375 C22.06701172 28.11183594 22.07152344 29.28617188 22.07617188 30.49609375 C22.08794906 33.39328072 22.10439674 36.29036454 22.125 39.1875 C21.54585846 39.18892502 20.96671692 39.19035004 20.37002563 39.19181824 C14.30171308 39.21161825 8.23439254 39.2661106 2.16650391 39.34008789 C-0.09318913 39.36317894 -2.35298844 39.37764256 -4.61279297 39.38305664 C-7.87534127 39.3924111 -11.13623846 39.43354536 -14.3984375 39.48046875 C-15.39676605 39.4765361 -16.3950946 39.47260345 -17.42367554 39.46855164 C-25.03825449 39.62431873 -31.63682051 41.50450757 -37.49398804 46.59440613 C-44.42201598 54.30840164 -44.30651467 62.09845313 -44.25595093 71.95236206 C-44.25940985 73.36267462 -44.26417598 74.77298447 -44.27013266 76.18328869 C-44.28264055 80.04950987 -44.27647326 83.9155085 -44.26717401 87.78173041 C-44.26038285 91.95497621 -44.27086516 96.1281839 -44.27911377 100.30142212 C-44.29245328 108.47372505 -44.28957219 116.64594531 -44.28087585 124.81825148 C-44.27409965 131.46132133 -44.27318231 138.10436802 -44.2764473 144.74744034 C-44.276907 145.69306695 -44.27736669 146.63869356 -44.27784032 147.61297552 C-44.27879951 149.5340472 -44.27977215 151.45511888 -44.2807581 153.37619056 C-44.28931287 171.39066829 -44.27947697 189.40510024 -44.263357 207.41957046 C-44.24995809 222.87137071 -44.25227822 238.32310332 -44.26611328 253.77490234 C-44.28217504 271.72198796 -44.28848431 289.66903342 -44.27927649 307.61612523 C-44.27832086 309.53072619 -44.27737774 311.44532716 -44.2764473 313.35992813 C-44.27598447 314.30192252 -44.27552164 315.24391691 -44.27504479 316.21445658 C-44.27245637 322.84727444 -44.27682282 329.4800668 -44.28388596 336.11288071 C-44.29230795 344.19950244 -44.29000627 352.28603683 -44.27404372 360.37264858 C-44.26616976 364.4973038 -44.26305439 368.62181351 -44.27299118 372.74646759 C-44.28195704 376.52532452 -44.2769743 380.3039016 -44.26105852 384.08273329 C-44.25614138 386.09088842 -44.26589043 388.09906311 -44.27623022 390.10719764 C-44.22116699 398.58795138 -43.41223558 405.3454004 -38.6875 412.5 C-32.36695448 418.53963239 -26.3088302 419.77900255 -17.76367188 419.70648193 C-16.77270036 419.71398319 -15.78172884 419.72148444 -14.76072788 419.729213 C-11.45485324 419.74944116 -8.14966765 419.74139679 -4.84375 419.73339844 C-2.46820906 419.74213606 -0.09267401 419.75262249 2.28285217 419.76472473 C8.72230256 419.79258185 15.16156088 419.79598946 21.60106277 419.79500484 C27.65181405 419.79591687 33.70249782 419.81894365 39.7532059 419.83997145 C51.73373615 419.88101238 63.71423239 419.90435516 75.69482422 419.91650391 C87.32929756 419.92833972 98.96370691 419.94855055 110.59814453 419.97998047 C111.31590868 419.98191657 112.03367282 419.98385267 112.7731874 419.98584744 C116.37418388 419.99561232 119.97517988 420.00554137 123.57617569 420.01555204 C153.42575345 420.09832085 183.27532623 420.15204424 213.125 420.1875 C212.52316895 419.12313721 211.92133789 418.05877441 211.30126953 416.9621582 C210.49506121 415.53339747 209.68891204 414.10460336 208.8828125 412.67578125 C208.48811768 411.97811646 208.09342285 411.28045166 207.68676758 410.56164551 C194.54352213 387.24755012 184.93150395 363.83222668 184.625 336.75 C184.59708374 335.15176392 184.59708374 335.15176392 184.56860352 333.52124023 C184.70256772 316.78091778 192.46307395 302.78836885 204.125 291.1875 C213.63765823 282.1875 213.63765823 282.1875 218.125 282.1875 C217.47273438 281.26710938 216.82046875 280.34671875 216.1484375 279.3984375 C200.90148614 257.48076253 200.90148614 257.48076253 201.125 245.1875 C202.40220028 241.44104583 204.25879648 239.90112451 207.625 238.0625 C221.80859297 231.59875929 238.84067642 229.60494669 253.6171875 235.1171875 C258.59071267 237.36379544 262.42439663 240.17569439 266.4375 243.87109375 C267.32050781 244.6798999 268.20351563 245.48870605 269.11328125 246.32202148 C270.10908203 247.24543335 270.10908203 247.24543335 271.125 248.1875 C271.24188744 223.45695939 271.33001482 198.72646029 271.38406086 173.99569893 C271.40982424 162.51233807 271.44493929 151.02914901 271.50219727 139.54589844 C271.55208912 129.53515756 271.58430457 119.52454114 271.59544247 109.51367939 C271.60195138 104.21470345 271.6172106 98.91608349 271.65365028 93.61722183 C271.68770096 88.62510006 271.6980346 83.6334794 271.69053841 78.64125252 C271.6919089 76.81356008 271.70178713 74.98585011 271.72102737 73.15825844 C271.91624829 59.42329145 271.91624829 59.42329145 266.125 47.1875 C263.96351615 44.9026254 263.96351615 44.9026254 261.5625 43.625 C260.81871094 43.16996094 260.07492187 42.71492188 259.30859375 42.24609375 C255.63447318 40.46490113 252.32352351 40.05694649 248.26464844 39.98217773 C247.30395447 39.96223251 246.3432605 39.94228729 245.35345459 39.92173767 C243.80951019 39.89666893 243.80951019 39.89666893 242.234375 39.87109375 C241.17462463 39.85031265 240.11487427 39.82953156 239.02301025 39.80812073 C235.64040562 39.74277814 232.25772388 39.68381119 228.875 39.625 C226.58072122 39.58180025 224.28645021 39.53818549 221.9921875 39.49414062 C216.36987298 39.3871124 210.7474819 39.28531761 205.125 39.1875 C205.1564209 38.09248169 205.1564209 38.09248169 205.18847656 36.9753418 C205.27256927 33.60870617 205.32395279 30.24229255 205.375 26.875 C205.42527344 25.15313477 205.42527344 25.15313477 205.4765625 23.39648438 C205.5564599 16.34553868 204.74093613 10.82254868 201.99121094 4.30786133 C201.125 2.1875 201.125 2.1875 201.125 0.1875 C208.55901395 0.1107692 215.99292393 0.05861736 223.42724609 0.02270508 C225.95072242 0.007717 228.47417313 -0.01268036 230.99755859 -0.03881836 C263.79963337 -0.36982465 263.79963337 -0.36982465 277.25 6.6875 C277.91249756 7.02934326 278.57499512 7.37118652 279.25756836 7.72338867 C294.16270023 15.81577153 303.91667354 29.13337014 309.125 45.1875 C310.75631966 51.82119917 311.41243099 58.11525704 311.36550903 64.93191528 C311.36807231 66.32293058 311.36807231 66.32293058 311.37068737 67.74204719 C311.37395714 70.8204627 311.36302028 73.89865567 311.35205078 76.97705078 C311.35148612 79.19524633 311.35180429 81.41344224 311.35293579 83.63163757 C311.35350817 89.63295312 311.34177236 95.63418826 311.32778788 101.63548517 C311.31526144 107.91485337 311.31410851 114.19422353 311.31173706 120.47360229 C311.30623279 131.00650322 311.2937515 141.53937937 311.27587891 152.07226562 C311.2574964 162.9169907 311.24335153 173.76170778 311.23486328 184.60644531 C311.23433783 185.27589208 311.23381239 185.94533885 311.23327102 186.63507189 C311.23066078 189.99378153 311.2281334 193.35249122 311.22564721 196.71120095 C311.20475802 224.53665442 311.16959303 252.36207514 311.125 280.1875 C311.98371201 279.96815796 311.98371201 279.96815796 312.85977173 279.74438477 C315.48127971 279.0765825 318.10390162 278.41325936 320.7265625 277.75 C321.62705322 277.51990234 322.52754395 277.28980469 323.45532227 277.05273438 C338.90224935 273.15748369 351.99464598 273.73081951 366.3125 281.4609375 C380.94124054 290.44135878 391.9971854 303.54846383 396.29296875 320.35546875 C403.45578053 352.88447389 389.51496754 388.51574119 372.296875 415.75390625 C367.22197214 423.48272214 361.58405272 430.55708466 355.125 437.1875 C354.3 438.05375 353.475 438.92 352.625 439.8125 C351.8 440.59625 350.975 441.38 350.125 442.1875 C349.50496094 442.80238281 348.88492187 443.41726563 348.24609375 444.05078125 C338.77886779 453.04379911 327.2379858 458.74780786 314.03515625 458.51171875 C307.89617797 457.82777889 302.30982466 455.4546983 297 452.375 C292.79761704 450.63923313 289.47286213 451.00493815 285.125 452.1875 C283.56203709 452.95823944 282.02061767 453.77375722 280.5 454.625 C266.92379536 461.76876748 248.63095853 459.4890131 233.8034873 459.47826743 C230.24517137 459.47785503 226.68688671 459.48893777 223.12858582 459.49838257 C216.17794776 459.51489864 209.22734366 459.5204877 202.27668761 459.52160732 C196.62402492 459.52256163 190.97137332 459.52669085 185.31871414 459.53300858 C169.25928854 459.55058995 153.19988952 459.55985151 137.14045422 459.55834763 C135.84551434 459.55822776 135.84551434 459.55822776 134.52441406 459.55810547 C133.22787771 459.55798283 133.22787771 459.55798283 131.9051487 459.55785771 C117.88570943 459.55704415 103.86637741 459.57620758 89.84696917 459.6043822 C75.41955557 459.63314622 60.99219425 459.64692078 46.56475127 459.64519465 C38.4775937 459.6445323 30.39054882 459.64995737 22.30341721 459.67155075 C15.42225182 459.68980825 8.54125031 459.694072 1.66007112 459.6805319 C-1.84546969 459.67402715 -5.35069647 459.67379419 -8.85620689 459.6912384 C-12.66748707 459.70673661 -16.47795173 459.69735132 -20.28921509 459.68197632 C-21.3811642 459.69226344 -22.47311332 459.70255057 -23.5981518 459.71314943 C-39.21632077 459.57466108 -54.58232359 453.01802061 -65.875 442.1875 C-79.816602 426.02895473 -84.02918276 410.17497292 -84.01544189 389.31115723 C-84.01802803 387.88862449 -84.02104188 386.46609248 -84.0244453 385.04356146 C-84.0324896 381.1433879 -84.03430343 377.24323278 -84.03504276 373.34305191 C-84.03689784 369.13289144 -84.04444751 364.92274043 -84.05117798 360.71258545 C-84.06474416 351.50980827 -84.07078352 342.30703546 -84.07518864 333.10424995 C-84.0779543 327.35365329 -84.08219227 321.6030583 -84.08669281 315.85246277 C-84.09888388 299.91876583 -84.1091831 283.98507022 -84.1125679 268.05136871 C-84.11278747 267.0320945 -84.11300703 266.01282028 -84.11323325 264.96265897 C-84.11345153 263.94099556 -84.11366981 262.91933214 -84.1138947 261.86670923 C-84.11433816 259.79655615 -84.11478472 257.72640308 -84.11523438 255.65625 C-84.1154558 254.62939046 -84.11567723 253.60253091 -84.11590537 252.54455441 C-84.11985091 235.91674007 -84.13729818 219.28896961 -84.1605939 202.66117221 C-84.18433922 185.57395892 -84.19677122 168.48676762 -84.19793582 151.39953756 C-84.19885086 141.81209516 -84.20455991 132.22470993 -84.22275543 122.63728333 C-84.23819948 114.47106139 -84.24325162 106.30491429 -84.23501733 98.13868052 C-84.23112585 93.97681955 -84.2319664 89.8151091 -84.24607468 85.65326691 C-84.25890449 81.83340099 -84.25753751 78.0137973 -84.24548396 74.19393128 C-84.24263212 72.17827111 -84.25439356 70.16260602 -84.26690602 68.14698267 C-84.16509466 49.13138949 -79.32606148 32.22658603 -65.875 18.1875 C-46.72732379 -0.1581793 -24.93490483 -0.25828338 0 0 Z " fill="#E8293A" transform="translate(98.875,37.8125)"/>
<path d="M0 0 C6.8317953 -0.07634871 13.66347968 -0.12872499 20.49560547 -0.16479492 C22.8175874 -0.17983911 25.13954112 -0.20027945 27.46142578 -0.22631836 C30.80768823 -0.26289345 34.15357344 -0.27977054 37.5 -0.29296875 C38.5305249 -0.30845261 39.5610498 -0.32393646 40.62280273 -0.33988953 C48.52131513 -0.34171503 55.58451064 0.75710086 61.62794971 6.40982246 C69.43563578 15.45876704 68.68476804 25.60608906 68.56762695 36.85205078 C68.56621486 38.75497907 68.56701162 40.65791008 68.56983948 42.56083679 C68.57126872 47.70288405 68.54195863 52.84434313 68.50696969 57.98625422 C68.47562405 63.36872498 68.47276898 68.75121058 68.46684265 74.13375854 C68.45132831 84.31564556 68.41033242 94.4972628 68.3600952 104.67903125 C68.30412673 116.27513495 68.27669636 127.87125182 68.25161803 139.46745706 C68.19941448 163.31178735 68.11151905 187.15587853 68 211 C67.21842529 210.21375244 66.43685059 209.42750488 65.6315918 208.61743164 C55.58698976 198.62687793 45.60666848 194.19922067 31.4375 193.75 C21.23819681 193.85212068 9.98710481 195.96287271 1 201 C-1.37245277 203.09108405 -1.37245277 203.09108405 -2 206 C-1.59234281 211.82455658 -0.32674378 216.51019906 2.0625 221.8125 C2.36615479 222.50102051 2.66980957 223.18954102 2.98266602 223.89892578 C5.53971617 229.4695727 8.67323027 234.15878261 12.49609375 238.9609375 C14 241 14 241 14 243 C12.39458177 244.08328221 10.73764003 245.09050517 9.0625 246.0625 C-5.31215269 255.05587245 -13.93372765 268.65136561 -18 285 C-18.51701838 289.20754005 -18.57428369 293.32736884 -18.5 297.5625 C-18.48646484 298.69582764 -18.47292969 299.82915527 -18.45898438 300.99682617 C-17.79347917 328.38507379 -6.33593242 353.66389644 7.75 376.7421875 C9 379 9 379 9 381 C-23.67 381 -56.34 381 -90 381 C-90 362.85 -90 344.7 -90 326 C-93.96 326 -97.92 326 -102 326 C-105.33924642 324.38795 -107.11658411 323.1243475 -109.375 320.25 C-110.34165091 316.77005671 -110.68551123 313.536152 -110 310 C-108.2524257 306.97910019 -106.16782234 304.58391117 -103 303 C-98.71 303 -94.42 303 -90 303 C-90 282.87 -90 262.74 -90 242 C-94.29 242 -98.58 242 -103 242 C-106.34944474 239.878685 -108.23956361 238.52087278 -110 235 C-110.42070387 231.94088189 -110.48077115 229.05368926 -110 226 C-107.56246638 222.90367351 -105.26549269 221.17699513 -102 219 C-98.04 219 -94.08 219 -90 219 C-90 199.2 -90 179.4 -90 159 C-93.96 159 -97.92 159 -102 159 C-105.33924642 157.38795 -107.11658411 156.1243475 -109.375 153.25 C-110.33334998 149.79994008 -110.58048115 146.51785566 -110 143 C-107.93228896 139.72018249 -106.22880989 138.15253993 -103 136 C-98.71 136 -94.42 136 -90 136 C-90 120.82 -90 105.64 -90 90 C-93.34898437 90.05800781 -96.69796875 90.11601562 -100.1484375 90.17578125 C-103.41843298 90.21485696 -106.68840173 90.24517027 -109.95849609 90.2746582 C-112.21838157 90.29968909 -114.47818702 90.33372438 -116.73779297 90.37719727 C-119.99987619 90.43835233 -123.26088245 90.46632502 -126.5234375 90.48828125 C-128.02093033 90.52699089 -128.02093033 90.52699089 -129.54867554 90.56648254 C-137.58175376 90.56964189 -144.07601782 88.49579738 -150.14828491 83.08613586 C-155.59803813 77.4934671 -158.0065132 71.24429409 -158.4375 63.5 C-158.15096722 56.34913835 -154.77340779 49.82639183 -149.88241577 44.679245 C-142.94918243 38.49432157 -135.50943654 37.27943397 -126.5234375 37.51171875 C-124.94654648 37.52233086 -124.94654648 37.52233086 -123.33779907 37.53315735 C-120.01610831 37.56090173 -116.69617179 37.62360349 -113.375 37.6875 C-111.10809745 37.71260861 -108.84116819 37.73541725 -106.57421875 37.75585938 C-101.04827769 37.80638919 -95.52607658 37.90428274 -90 38 C-90 29.09 -90 20.18 -90 11 C-87.70409912 10.98541748 -85.40819824 10.97083496 -83.04272461 10.95581055 C-75.44302375 10.9053932 -67.84352624 10.83878554 -60.24402523 10.76428509 C-55.63804321 10.71962549 -51.03214873 10.6803597 -46.42602539 10.65356445 C-41.97788623 10.62748739 -37.53008478 10.587054 -33.08215523 10.53681374 C-31.38821182 10.52017474 -29.69421003 10.50864202 -28.00019646 10.50238609 C-25.62078624 10.49271248 -23.24223422 10.46461563 -20.86303711 10.43237305 C-19.82077721 10.43452568 -19.82077721 10.43452568 -18.75746155 10.4367218 C-12.39818338 10.31545633 -7.90105171 8.69441565 -3.125 4.4375 C-0.99612842 2.20114199 -0.99612842 2.20114199 0 0 Z " fill="#E7ECF1" transform="translate(303,77)"/>
<path d="M0 0 C2.53775248 0.01507287 5.07551361 0.02875667 7.61328125 0.04101562 C13.78404524 0.07381722 19.95448152 0.12381047 26.125 0.1875 C25.92003906 0.86296875 25.71507813 1.5384375 25.50390625 2.234375 C25.23449219 3.12640625 24.96507813 4.0184375 24.6875 4.9375 C24.42066406 5.81921875 24.15382813 6.7009375 23.87890625 7.609375 C22.61273642 11.9392822 22.00418976 15.50869354 22.02734375 20.046875 C22.03056641 21.16191406 22.03378906 22.27695312 22.03710938 23.42578125 C22.04548828 24.58464844 22.05386719 25.74351563 22.0625 26.9375 C22.06701172 28.11183594 22.07152344 29.28617188 22.07617188 30.49609375 C22.08794906 33.39328072 22.10439674 36.29036454 22.125 39.1875 C21.54585846 39.18892502 20.96671692 39.19035004 20.37002563 39.19181824 C14.30171308 39.21161825 8.23439254 39.2661106 2.16650391 39.34008789 C-0.09318913 39.36317894 -2.35298844 39.37764256 -4.61279297 39.38305664 C-7.87534127 39.3924111 -11.13623846 39.43354536 -14.3984375 39.48046875 C-15.39676605 39.4765361 -16.3950946 39.47260345 -17.42367554 39.46855164 C-25.03825449 39.62431873 -31.63682051 41.50450757 -37.49398804 46.59440613 C-44.42201598 54.30840164 -44.30651467 62.09845313 -44.25595093 71.95236206 C-44.25940985 73.36267462 -44.26417598 74.77298447 -44.27013266 76.18328869 C-44.28264055 80.04950987 -44.27647326 83.9155085 -44.26717401 87.78173041 C-44.26038285 91.95497621 -44.27086516 96.1281839 -44.27911377 100.30142212 C-44.29245328 108.47372505 -44.28957219 116.64594531 -44.28087585 124.81825148 C-44.27409965 131.46132133 -44.27318231 138.10436802 -44.2764473 144.74744034 C-44.276907 145.69306695 -44.27736669 146.63869356 -44.27784032 147.61297552 C-44.27879951 149.5340472 -44.27977215 151.45511888 -44.2807581 153.37619056 C-44.28931287 171.39066829 -44.27947697 189.40510024 -44.263357 207.41957046 C-44.24995809 222.87137071 -44.25227822 238.32310332 -44.26611328 253.77490234 C-44.28217504 271.72198796 -44.28848431 289.66903342 -44.27927649 307.61612523 C-44.27832086 309.53072619 -44.27737774 311.44532716 -44.2764473 313.35992813 C-44.27598447 314.30192252 -44.27552164 315.24391691 -44.27504479 316.21445658 C-44.27245637 322.84727444 -44.27682282 329.4800668 -44.28388596 336.11288071 C-44.29230795 344.19950244 -44.29000627 352.28603683 -44.27404372 360.37264858 C-44.26616976 364.4973038 -44.26305439 368.62181351 -44.27299118 372.74646759 C-44.28195704 376.52532452 -44.2769743 380.3039016 -44.26105852 384.08273329 C-44.25614138 386.09088842 -44.26589043 388.09906311 -44.27623022 390.10719764 C-44.22116699 398.58795138 -43.41223558 405.3454004 -38.6875 412.5 C-32.34801056 418.55773435 -26.34998002 419.77433454 -17.77954102 419.59449768 C-16.79013047 419.59015416 -15.80071993 419.58581063 -14.78132725 419.58133548 C-11.48007486 419.56223138 -8.17986338 419.51449411 -4.87890625 419.46704102 C-2.50651472 419.44789642 -0.13410689 419.43068793 2.23831177 419.41526794 C7.34027812 419.37894327 12.44195126 419.33085734 17.54373169 419.27420235 C25.61166288 419.1866263 33.67952396 419.13713877 41.74780273 419.09519958 C44.51173528 419.0803191 47.27566618 419.06514944 50.03959656 419.0498724 C50.7302019 419.04606229 51.42080724 419.04225218 52.13234001 419.03832661 C59.98248224 418.99440027 67.83255593 418.94147245 75.68261719 418.88500977 C76.39972347 418.87986234 77.11682975 418.87471492 77.85566652 418.86941152 C89.48325804 418.78499545 101.11047902 418.67338828 112.73777044 418.55536128 C124.68896095 418.43508979 136.63995838 418.35721969 148.59167957 418.3152079 C156.61231277 418.28527043 164.63013324 418.20507928 172.65007019 418.09027588 C177.63927385 418.03051736 182.62780775 418.01691925 187.61733627 418.01648903 C189.92977529 418.00707762 192.24222683 417.97875451 194.55417252 417.93007278 C212.05796013 417.57667773 212.05796013 417.57667773 217.21595764 421.59625053 C219.27088669 424.38982653 220.70572194 427.03560723 222.125 430.1875 C231.95745995 443.31366354 245.90132253 454.17768332 262.2890625 456.92578125 C262.89492188 457.01214844 263.50078125 457.09851563 264.125 457.1875 C260.98891409 459.01819313 258.70746675 459.43899248 255.09323215 459.44476891 C254.07265014 459.4512178 253.05206813 459.45766669 252.00055939 459.464311 C250.88103046 459.4612138 249.76150153 459.4581166 248.60804749 459.45492554 C247.4173213 459.45945665 246.22659511 459.46398776 244.99978632 459.46865618 C241.6931886 459.47913923 238.3868081 459.48062382 235.08020914 459.47826743 C231.51420108 459.47785964 227.94822559 459.48889517 224.38223267 459.49838257 C217.3933233 459.51500509 210.40444767 459.52049278 203.4155202 459.52160732 C197.73112986 459.52255772 192.04675064 459.5266676 186.36236382 459.53300858 C170.23794856 459.55062858 154.11355993 459.55984689 137.98913497 459.55834763 C137.11962229 459.55826772 136.2501096 459.5581878 135.35424805 459.55810547 C134.04838092 459.55798283 134.04838092 459.55798283 132.71613263 459.55785771 C118.62486231 459.55704579 104.53369913 459.57615764 90.44245977 459.6043822 C75.96567387 459.63314938 61.48894014 459.64692022 47.01212496 459.64519465 C38.88791568 459.64453181 30.76381856 459.64997677 22.63963509 459.67155075 C15.71794576 459.68981361 8.79641935 459.69406862 1.87471629 459.6805319 C-1.65302526 459.6740263 -5.18045475 459.67379658 -8.70816612 459.6912384 C-12.54411801 459.70673613 -16.37925953 459.69735116 -20.2151947 459.68197632 C-21.31464714 459.69226344 -22.41409957 459.70255057 -23.54686874 459.71314943 C-39.18902648 459.57534957 -54.56233647 453.03718976 -65.875 442.1875 C-79.816602 426.02895473 -84.02918276 410.17497292 -84.01544189 389.31115723 C-84.01802803 387.88862449 -84.02104188 386.46609248 -84.0244453 385.04356146 C-84.0324896 381.1433879 -84.03430343 377.24323278 -84.03504276 373.34305191 C-84.03689784 369.13289144 -84.04444751 364.92274043 -84.05117798 360.71258545 C-84.06474416 351.50980827 -84.07078352 342.30703546 -84.07518864 333.10424995 C-84.0779543 327.35365329 -84.08219227 321.6030583 -84.08669281 315.85246277 C-84.09888388 299.91876583 -84.1091831 283.98507022 -84.1125679 268.05136871 C-84.11278747 267.0320945 -84.11300703 266.01282028 -84.11323325 264.96265897 C-84.11345153 263.94099556 -84.11366981 262.91933214 -84.1138947 261.86670923 C-84.11433816 259.79655615 -84.11478472 257.72640308 -84.11523438 255.65625 C-84.1154558 254.62939046 -84.11567723 253.60253091 -84.11590537 252.54455441 C-84.11985091 235.91674007 -84.13729818 219.28896961 -84.1605939 202.66117221 C-84.18433922 185.57395892 -84.19677122 168.48676762 -84.19793582 151.39953756 C-84.19885086 141.81209516 -84.20455991 132.22470993 -84.22275543 122.63728333 C-84.23819948 114.47106139 -84.24325162 106.30491429 -84.23501733 98.13868052 C-84.23112585 93.97681955 -84.2319664 89.8151091 -84.24607468 85.65326691 C-84.25890449 81.83340099 -84.25753751 78.0137973 -84.24548396 74.19393128 C-84.24263212 72.17827111 -84.25439356 70.16260602 -84.26690602 68.14698267 C-84.16509466 49.13138949 -79.32606148 32.22658603 -65.875 18.1875 C-46.72732379 -0.1581793 -24.93490483 -0.25828338 0 0 Z " fill="#454545" transform="translate(98.875,37.8125)"/>
<path d="M0 0 C12.37810599 11.2579154 17.8442665 27.90094163 19.13671875 44.11328125 C20.23128299 78.61584957 2.60488873 116.56521703 -19.9609375 142.0078125 C-21.3247356 143.4559444 -22.69787393 144.89542276 -24.0859375 146.3203125 C-24.9109375 147.1865625 -25.7359375 148.0528125 -26.5859375 148.9453125 C-27.4109375 149.7290625 -28.2359375 150.5128125 -29.0859375 151.3203125 C-29.70597656 151.93519531 -30.32601562 152.55007813 -30.96484375 153.18359375 C-40.43105709 162.17564971 -51.98298178 167.89386234 -65.1875 167.640625 C-73.27265175 166.74711766 -80.77057226 162.57158594 -88.0859375 159.3203125 C-88.0859375 104.2103125 -88.0859375 49.1003125 -88.0859375 -7.6796875 C-80.4959375 -8.9996875 -72.9059375 -10.3196875 -65.0859375 -11.6796875 C-58.42073407 -13.21869776 -58.42073407 -13.21869776 -51.77734375 -14.84765625 C-31.63934046 -19.38669826 -15.52719225 -12.50316979 0 0 Z " fill="#D42032" transform="translate(478.0859375,328.6796875)"/>
<path d="M0 0 C7.43401395 -0.0767308 14.86792393 -0.12888264 22.30224609 -0.16479492 C24.82572242 -0.179783 27.34917313 -0.20018036 29.87255859 -0.22631836 C62.67463337 -0.55732465 62.67463337 -0.55732465 76.125 6.5 C76.78749756 6.84184326 77.44999512 7.18368652 78.13256836 7.53588867 C93.03770023 15.62827153 102.79167354 28.94587014 108 45 C109.63131966 51.63369917 110.28743099 57.92775704 110.24050903 64.74441528 C110.24221788 65.67175881 110.24392673 66.59910234 110.24568737 67.55454719 C110.24895714 70.6329627 110.23802028 73.71115567 110.22705078 76.78955078 C110.22648612 79.00774633 110.22680429 81.22594224 110.22793579 83.44413757 C110.22850817 89.44545312 110.21677236 95.44668826 110.20278788 101.44798517 C110.19026144 107.72735337 110.18910851 114.00672353 110.18673706 120.28610229 C110.18123279 130.81900322 110.1687515 141.35187937 110.15087891 151.88476562 C110.1324964 162.7294907 110.11835153 173.57420778 110.10986328 184.41894531 C110.10933783 185.08839208 110.10881239 185.75783885 110.10827102 186.44757189 C110.10566078 189.80628153 110.1031334 193.16499122 110.10064721 196.52370095 C110.07975802 224.34915442 110.04459303 252.17457514 110 280 C103.375 282 103.375 282 100 282 C99.672274 272.65374003 100.1339993 264.41947424 102.31640625 255.26171875 C103.57964853 249.23424845 104.5631337 242.80905401 101.125 237.375 C98.98587578 234.98421411 98.14157796 234.13680993 95.01171875 233.76171875 C91.26565173 233.64209644 88.62141623 233.71000576 85.1875 235.3125 C78.35379124 243.70819933 77.88523216 255.31634336 76.75 265.6875 C76.57674139 267.17917873 76.40227016 268.67071714 76.2265625 270.16210938 C75.80374635 273.77323281 75.39726595 277.38596562 75 281 C69.70504099 281.08535774 65.14536875 280.47903719 60.0625 279.0625 C44.58004976 274.81271007 31.908776 275.29718951 17 281 C11.67846372 274.62863683 7.34656982 268.35836424 4 260.75 C3.70988037 260.10160156 3.41976074 259.45320313 3.12084961 258.78515625 C0.91914109 253.53988993 -0.96077373 247.81826962 0.9375 242.25 C7.80277695 234.76060697 20.93343807 232.33011676 30.67578125 231.875 C44.32420874 231.59752244 55.09594133 234.27584598 65.3125 243.68359375 C66.63701172 244.89680298 66.63701172 244.89680298 67.98828125 246.13452148 C68.98408203 247.05793335 68.98408203 247.05793335 70 248 C70.11688744 223.26945939 70.20501482 198.53896029 70.25906086 173.80819893 C70.28482424 162.32483807 70.31993929 150.84164901 70.37719727 139.35839844 C70.42708912 129.34765756 70.45930457 119.33704114 70.47044247 109.32617939 C70.47695138 104.02720345 70.4922106 98.72858349 70.52865028 93.42972183 C70.56270096 88.43760006 70.5730346 83.4459794 70.56553841 78.45375252 C70.5669089 76.62606008 70.57678713 74.79835011 70.59602737 72.97075844 C70.79124829 59.23579145 70.79124829 59.23579145 65 47 C62.83851615 44.7151254 62.83851615 44.7151254 60.4375 43.4375 C59.69371094 42.98246094 58.94992187 42.52742188 58.18359375 42.05859375 C54.50947318 40.27740113 51.19852351 39.86944649 47.13964844 39.79467773 C46.17895447 39.77473251 45.2182605 39.75478729 44.22845459 39.73423767 C42.68451019 39.70916893 42.68451019 39.70916893 41.109375 39.68359375 C40.04962463 39.66281265 38.98987427 39.64203156 37.89801025 39.62062073 C34.51540562 39.55527814 31.13272388 39.49631119 27.75 39.4375 C25.45572122 39.39430025 23.16145021 39.35068549 20.8671875 39.30664062 C15.24487298 39.1996124 9.6224819 39.09781761 4 39 C4.02094727 38.26998779 4.04189453 37.53997559 4.06347656 36.7878418 C4.14756927 33.42120617 4.19895279 30.05479255 4.25 26.6875 C4.28351563 25.53958984 4.31703125 24.39167969 4.3515625 23.20898438 C4.4314599 16.15803868 3.61593613 10.63504868 0.86621094 4.12036133 C0 2 0 2 0 0 Z " fill="#2C2C2C" transform="translate(300,38)"/>
<path d="M0 0 C0.95722961 -0.0071553 1.91445923 -0.01431061 2.9006958 -0.02168274 C3.94436813 -0.02437164 4.98804047 -0.02706055 6.06333923 -0.02983093 C7.72020248 -0.03968773 7.72020248 -0.03968773 9.41053772 -0.04974365 C13.0694638 -0.06946789 16.7283488 -0.08113882 20.38731384 -0.09111023 C21.63866056 -0.09518576 22.89000729 -0.09926128 24.17927361 -0.10346031 C30.12252086 -0.12216961 36.06575513 -0.13673417 42.00902468 -0.14507228 C48.84613245 -0.15482507 55.68291478 -0.18109588 62.51990801 -0.22157317 C68.45937544 -0.25551679 74.39876436 -0.2672293 80.33833122 -0.27127647 C82.85519552 -0.27613516 85.37205653 -0.28772851 87.88885689 -0.30631447 C91.42123597 -0.33077394 94.95277564 -0.32972766 98.48521423 -0.32279968 C99.51471695 -0.33560974 100.54421967 -0.3484198 101.60491943 -0.36161804 C114.29206279 -0.27144398 124.58856641 4.88481111 133.91465759 13.27217102 C143.08044537 22.86427451 145.59413084 35.3193293 145.66465759 48.08467102 C145.69752869 49.13074524 145.73039978 50.17681946 145.76426697 51.2545929 C145.81187815 58.14090139 144.85279796 62.89515893 140.22715759 68.14717102 C134.76289022 72.49628179 130.83036751 73.27168346 123.99009705 73.27656555 C122.70733887 73.27965729 121.42458069 73.28274902 120.10295105 73.28593445 C118.68211342 73.28411906 117.26127601 73.28212947 115.84043884 73.27998352 C114.34025544 73.28117164 112.84007228 73.28269591 111.33988953 73.28453064 C106.40646124 73.28832962 101.47307761 73.28062162 96.53965759 73.27217102 C94.83806869 73.26989782 93.13647974 73.26766001 91.43489075 73.26545715 C80.59156872 73.24980338 69.7483743 73.21471801 58.90513611 73.16999817 C55.10159205 73.15432203 51.29804826 73.14048105 47.49449158 73.12825012 C36.22397895 73.09128329 24.95398637 73.0304981 13.68379211 72.93763733 C10.09216899 72.9087044 6.50066903 72.8888747 2.90895081 72.87672424 C-1.33065482 72.86181843 -5.56968142 72.82775987 -9.80902863 72.77898788 C-11.36659077 72.76421516 -12.92423298 72.75612609 -14.48186493 72.75525284 C-16.61457377 72.7528979 -18.7456421 72.72601449 -20.87806702 72.69306946 C-22.07145187 72.68418701 -23.26483673 72.67530457 -24.49438477 72.66615295 C-29.27921273 71.90871164 -32.53128341 69.78118097 -35.45350647 65.93525696 C-39.41284072 62.88281863 -44.03087502 63.54346641 -48.88221741 63.53779602 C-49.96416382 63.52125977 -51.04611023 63.50472351 -52.1608429 63.48768616 C-55.61489998 63.43912001 -59.06851651 63.41781536 -62.52284241 63.39717102 C-64.86531259 63.36901866 -67.20776218 63.33909228 -69.55018616 63.30732727 C-75.29099137 63.23335878 -81.03167223 63.18176675 -86.77284241 63.14717102 C-86.77284241 62.81717102 -86.77284241 62.48717102 -86.77284241 62.14717102 C-70.93284241 62.14717102 -55.09284241 62.14717102 -38.77284241 62.14717102 C-39.10284241 61.15717102 -39.43284241 60.16717102 -39.77284241 59.14717102 C-41.12782737 44.23890605 -40.53454299 29.54193321 -31.39784241 17.08467102 C-30.22341345 15.74174797 -29.01667503 14.42607919 -27.77284241 13.14717102 C-27.25077209 12.5980304 -26.72870178 12.04888977 -26.19081116 11.48310852 C-19.25833987 4.9048511 -9.620285 0.04952816 0 0 Z " fill="#F9BA54" transform="translate(159.77284240722656,14.852828979492188)"/>
<path d="M0 0 C1.01927582 -0.0071553 2.03855164 -0.01431061 3.0887146 -0.02168274 C6.4281011 -0.03846816 9.76612577 -0.01922568 13.10546875 0.00219727 C15.4437674 0.00136764 17.78206598 -0.00109527 20.12036133 -0.00511169 C25.00913145 -0.00796278 29.89744169 0.00666475 34.78613281 0.03417969 C41.03359111 0.06826043 47.28022758 0.06223719 53.52772522 0.04351711 C58.35264868 0.03291812 63.17738292 0.0419114 68.00228882 0.05690193 C70.30503781 0.06206288 72.60780674 0.06162747 74.91055298 0.05535698 C78.1361092 0.04986983 81.36051284 0.0703929 84.5859375 0.09765625 C85.52545258 0.09113037 86.46496765 0.08460449 87.43295288 0.07788086 C95.67278731 0.19552893 102.94223308 2.23618092 109.16796875 7.81860352 C114.98668684 14.31135751 117.07724699 20.94545202 116.734375 29.63891602 C115.56418318 37.57136677 111.5455564 43.05410943 105.55078125 48.15844727 C98.95129678 52.4629553 93.56133294 53.07462108 85.8347168 53.05102539 C84.80612549 53.05949493 83.77753418 53.06796448 82.71777344 53.07669067 C79.32995104 53.1000185 75.94258403 53.1010837 72.5546875 53.09985352 C70.18968017 53.10695828 67.82467457 53.11465774 65.45967102 53.1229248 C60.50602425 53.13636046 55.55253683 53.13794271 50.59887695 53.13208008 C44.26721253 53.12618902 37.9363162 53.15675636 31.60480022 53.19719696 C26.72070738 53.22311446 21.83679839 53.22594757 16.95264626 53.2223053 C14.61916997 53.22399314 12.28568488 53.23360312 9.95227623 53.25144958 C6.6808044 53.27371547 3.41087325 53.26389696 0.1394043 53.24633789 C-1.29096413 53.26623276 -1.29096413 53.26623276 -2.75022888 53.28652954 C-10.52565855 53.19011522 -16.98839266 50.93931554 -22.8577776 45.71773529 C-28.30309627 40.12040782 -30.71346651 33.87679803 -31.14453125 26.13110352 C-30.85789815 18.97773841 -27.47810866 12.46352711 -22.592453 7.30979061 C-15.93945822 1.38629022 -8.64401463 -0.10757416 0 0 Z " fill="#108AE0" transform="translate(175.70703125,114.368896484375)"/>
<path d="M0 0 C13.7671875 -0.12375 13.7671875 -0.12375 27.8125 -0.25 C32.12598511 -0.30462402 32.12598511 -0.30462402 36.52661133 -0.36035156 C38.83674374 -0.37204724 41.14688446 -0.38223697 43.45703125 -0.390625 C45.21871643 -0.4213208 45.21871643 -0.4213208 47.01599121 -0.45263672 C60.40080039 -0.45823413 70.79805275 4.23098946 80.6875 13.125 C89.85328778 22.71710349 92.36697325 35.17215828 92.4375 47.9375 C92.47037109 48.98357422 92.50324219 50.02964844 92.53710938 51.10742188 C92.58472056 57.99373037 91.62564037 62.74798791 87 68 C81.17042183 72.63986834 76.72889575 73.15047221 69.47753906 73.11352539 C68.3501255 73.11374443 68.3501255 73.11374443 67.19993591 73.1139679 C64.72180266 73.11327262 62.24374508 73.10549826 59.765625 73.09765625 C58.04498333 73.0957907 56.32434112 73.09436744 54.60369873 73.09336853 C50.07947315 73.08955413 45.55527977 73.07973302 41.03106689 73.06866455 C35.60034348 73.05662674 30.16960929 73.05204306 24.73887634 73.04621124 C16.49256184 73.0365207 8.24631798 73.01735661 0 73 C0 48.91 0 24.82 0 0 Z " fill="#F89944" transform="translate(213,15)"/>
<path d="M0 0 C13.03052821 -0.22612781 26.05974891 -0.40949771 39.09179688 -0.51812172 C45.14348367 -0.5702623 51.19375614 -0.64095408 57.24462891 -0.75439453 C63.08675985 -0.86323325 68.92753268 -0.92287974 74.77059937 -0.94877243 C76.99707419 -0.96721802 79.22347648 -1.00324089 81.44937134 -1.05730057 C98.92390972 -1.46473278 98.92390972 -1.46473278 104.10610962 2.19143677 C106.14876365 4.71875045 107.58772089 7.08610372 109 10 C119.92195311 23.12768957 132.5436871 33.76003065 150 36 C146.58234763 38.07344965 143.94036535 38.24732022 139.97625732 38.24050903 C138.74229218 38.24325836 137.50832703 38.24600769 136.23696899 38.24884033 C134.87249658 38.24176255 133.50802516 38.23449293 132.14355469 38.22705078 C130.70455941 38.22648654 129.26556355 38.22680347 127.8265686 38.22793579 C123.92192088 38.22850981 120.01739594 38.21674748 116.11277676 38.20278788 C112.03151 38.19028881 107.95024046 38.18911067 103.86895752 38.18673706 C96.14129951 38.18051987 88.41369806 38.16410582 80.68606496 38.14403808 C71.88808225 38.12168652 63.09009684 38.11068752 54.2920928 38.10064721 C36.19468995 38.07973979 18.09736464 38.04306057 0 38 C0 25.46 0 12.92 0 0 Z " fill="#2C2C2C" transform="translate(213,459)"/>
<path d="M0 0 C48.18 0 96.36 0 146 0 C144.84460899 10.3985191 142.77276375 15.02784594 135.0390625 21.67578125 C128.54312506 25.89440729 123.13033906 26.44309606 115.54174805 26.41992188 C114.51315674 26.42839142 113.48456543 26.43686096 112.42480469 26.44558716 C109.03698229 26.46891499 105.64961528 26.46998018 102.26171875 26.46875 C99.89671142 26.47585476 97.53170582 26.48355422 95.16670227 26.49182129 C90.2130555 26.50525695 85.25956808 26.5068392 80.3059082 26.50097656 C73.97424378 26.49508551 67.64334745 26.52565284 61.31183147 26.56609344 C56.42773863 26.59201095 51.54382964 26.59484406 46.65967751 26.59120178 C44.32620122 26.59288963 41.99271613 26.6024996 39.65930748 26.62034607 C36.38783565 26.64261195 33.1179045 26.63279345 29.84643555 26.61523438 C28.41606712 26.63512924 28.41606712 26.63512924 26.95680237 26.65542603 C19.03335552 26.55717631 12.63604177 24.07665073 6.5625 18.9375 C1.05153831 12.10390751 0 9.28124205 0 0 Z " fill="#0C6BC3" transform="translate(146,141)"/>
<path d="M0 0 C1.04722229 -0.00852997 2.09444458 -0.01705994 3.17340088 -0.02584839 C4.3220311 -0.02494202 5.47066132 -0.02403564 6.65409851 -0.02310181 C7.86409515 -0.02981903 9.0740918 -0.03653625 10.320755 -0.04345703 C13.64119889 -0.05921795 16.96139267 -0.06581317 20.28185678 -0.0670886 C22.35720851 -0.06851011 24.43253403 -0.07277975 26.50787926 -0.07808304 C33.75080911 -0.09659072 40.99366533 -0.10475296 48.23661804 -0.10317993 C54.98327321 -0.10197916 61.72960813 -0.12306667 68.47618228 -0.15466726 C74.27163295 -0.18084334 80.06697914 -0.19154664 85.86248845 -0.19026911 C89.3224244 -0.18975975 92.78207593 -0.19542781 96.2419529 -0.21662521 C100.10341955 -0.2396364 103.96444949 -0.23047847 107.82597351 -0.21841431 C108.96853104 -0.22965332 110.11108856 -0.24089233 111.28826904 -0.25247192 C117.46475903 -0.20339043 121.28719407 0.03472026 125.93412781 4.26742554 C128.41275232 7.98536231 128.46515327 10.960219 127.93412781 15.26742554 C126.61911076 18.55496816 125.48018746 19.89689859 122.55924988 21.87889099 C117.37191157 23.86580296 112.56759695 23.69364343 107.05717468 23.67147827 C105.27078331 23.68177315 105.27078331 23.68177315 103.44830322 23.692276 C100.1941138 23.70740805 96.94028481 23.70904735 93.68607521 23.70333362 C90.96488565 23.70023617 88.24374758 23.70634025 85.52256536 23.71237236 C79.10160351 23.72640163 72.68077476 23.7248692 66.2598114 23.71347046 C59.64429112 23.70198559 53.02917607 23.71607434 46.41370916 23.74286693 C40.72434056 23.76504273 35.03509899 23.77165727 29.34569025 23.76579052 C25.95176641 23.7624248 22.55810242 23.76481019 19.16421509 23.78204155 C15.37952965 23.79690867 11.59573827 23.78630471 7.81108093 23.76913452 C6.13236656 23.78363647 6.13236656 23.78363647 4.41973877 23.7984314 C-1.71597837 23.74010522 -5.40678265 23.39848776 -10.06587219 19.26742554 C-12.42744385 16.26178888 -12.48136799 13.00271332 -12.39009094 9.23226929 C-11.87354065 6.10185005 -10.2940509 4.431942 -8.06587219 2.26742554 C-4.78003694 0.0768687 -3.81267191 0.01402371 0 0 Z " fill="#ACB9C2" transform="translate(205.0658721923828,212.73257446289063)"/>
<path d="M0 0 C2.63405784 2.22759203 5.01977876 4.55739853 7.39453125 7.05859375 C8.13832031 7.80238281 8.88210938 8.54617188 9.6484375 9.3125 C14.30580701 14.99066283 14.6774486 19.59187306 14.14941406 26.6809082 C13.68560869 31.16019778 13.10476585 35.61183082 12.39453125 40.05859375 C7.10723415 40.27173577 2.51818131 39.53157819 -2.54296875 38.12109375 C-18.02541899 33.87130382 -30.69669275 34.35578326 -45.60546875 40.05859375 C-50.92700503 33.68723058 -55.25889893 27.41695799 -58.60546875 19.80859375 C-58.89558838 19.16019531 -59.18570801 18.51179688 -59.48461914 17.84375 C-61.68632766 12.59848368 -63.56624248 6.87686337 -61.66796875 1.30859375 C-47.32453804 -14.33878521 -15.58765605 -11.61479019 0 0 Z " fill="#0D6CC3" transform="translate(362.60546875,278.94140625)"/>
<path d="M0 0 C0.7613324 -0.00671722 1.52266479 -0.01343445 2.30706787 -0.02035522 C4.82676707 -0.03936979 7.34620029 -0.04326139 9.8659668 -0.04541016 C11.61850596 -0.05183661 13.37104404 -0.05856486 15.12358093 -0.06558228 C18.79969774 -0.07756434 22.47572051 -0.08126224 26.15185547 -0.08007812 C30.85627678 -0.07987509 35.56009291 -0.10715636 40.26437092 -0.14162254 C43.88556165 -0.16389287 47.50660691 -0.1679156 51.12785912 -0.16685867 C52.86176829 -0.16921523 54.59568143 -0.17804191 56.32952309 -0.19352341 C58.75917131 -0.21318288 61.18751702 -0.20734594 63.6171875 -0.1953125 C64.32961105 -0.20655151 65.04203461 -0.21779053 65.77604675 -0.22937012 C71.71709705 -0.15483071 75.19496103 2.05972697 79.37768555 6.10302734 C81.05689565 9.36815809 80.93990133 11.66788229 80.50268555 15.29052734 C78.39441598 19.28118045 76.75930491 21.74647799 72.50268555 23.29052734 C69.86981756 23.4958377 67.34145735 23.59453804 64.70825195 23.59692383 C63.53677361 23.6094091 63.53677361 23.6094091 62.34162903 23.62214661 C59.76245117 23.64622195 57.18352632 23.65501548 54.60424805 23.66162109 C52.80829798 23.67058905 51.01234868 23.67971092 49.21640015 23.6889801 C45.45210963 23.70546576 41.68790802 23.71316949 37.92358398 23.71606445 C33.10586132 23.72144897 28.28897683 23.75913334 23.47149086 23.80480862 C19.7619422 23.83458631 16.05259526 23.84178816 12.34293747 23.8427906 C10.56714411 23.84699122 8.79135006 23.85941922 7.01567459 23.88030815 C4.52846289 23.90723942 2.04319245 23.90239326 -0.4440918 23.88989258 C-1.17364578 23.90472687 -1.90319977 23.91956116 -2.65486145 23.93484497 C-8.34310034 23.85365082 -10.64974438 22.1807442 -14.49731445 18.29052734 C-16.23470456 14.81574713 -16.09411837 11.08121599 -15.49731445 7.29052734 C-10.96970353 1.53923779 -7.07905754 -0.00893012 0 0 Z " fill="#ACB9C3" transform="translate(208.497314453125,295.70947265625)"/>
<path d="M0 0 C3.6578218 2.03993908 5.66946174 3.50419262 8 7 C8.69761517 10.13000789 8.60285735 12.85710599 8 16 C6.67254639 17.95533752 6.67254639 17.95533752 4.92480469 19.83032227 C4.28788696 20.52022247 3.65096924 21.21012268 2.99475098 21.92092896 C2.00734924 22.95006912 2.00734924 22.95006912 1 24 C0.40392944 24.62462128 -0.19214111 25.24924255 -0.80627441 25.89279175 C-2.64099662 27.78784604 -4.49589012 29.66058049 -6.359375 31.52734375 C-7.03043274 32.20172989 -7.70149048 32.87611603 -8.3928833 33.57093811 C-9.79658905 34.97966279 -11.20161171 36.38707642 -12.60791016 37.79321289 C-14.76363192 39.9511459 -16.91119832 42.11698804 -19.05859375 44.28320312 C-20.42919862 45.65673801 -21.80027539 47.0298022 -23.171875 48.40234375 C-23.81251892 49.05017319 -24.45316284 49.69800262 -25.11322021 50.36546326 C-25.71104309 50.9602095 -26.30886597 51.55495575 -26.92480469 52.16772461 C-27.44774109 52.69208603 -27.97067749 53.21644745 -28.50946045 53.75669861 C-31.38757077 56.15741221 -35.03525034 56.65554499 -38.7109375 56.58203125 C-43.87984051 55.26775386 -47.38205904 50.68858416 -51 47 C-52.15032755 45.86903936 -53.30277356 44.74023051 -54.45703125 43.61328125 C-65.80469596 32.46478027 -65.80469596 32.46478027 -66.5 27.25 C-66.41721519 22.77134174 -64.49769417 20.51808633 -61.5078125 17.34765625 C-59.36466837 15.43215178 -58.13858473 15.01574826 -55.25 14.6875 C-47.35243166 15.44688157 -42.20164018 22.59029422 -37 28 C-29.88861243 22.14013903 -23.55172168 15.57870269 -17.11914062 8.9921875 C-16.26126953 8.12335938 -15.40339844 7.25453125 -14.51953125 6.359375 C-13.74714111 5.57014648 -12.97475098 4.78091797 -12.17895508 3.96777344 C-8.27679108 0.44380236 -5.27470187 -0.63296422 0 0 Z " fill="#FABB55" transform="translate(158,363)"/>
<path d="M0 0 C3.58552881 1.63687185 4.79315055 2.68972583 7 6 C7.84270006 9.50588955 7.72259858 12.47536503 7 16 C5.46508789 18.20874023 5.46508789 18.20874023 3.34765625 20.43359375 C2.53079346 21.29847412 1.71393066 22.16335449 0.87231445 23.05444336 C-0.08396233 24.03742672 -1.04147815 25.01920571 -2 26 C-2.52808258 26.54625031 -3.05616516 27.09250061 -3.60025024 27.65530396 C-7.1597038 31.33575584 -10.75242566 34.98131664 -14.3671875 38.60742188 C-16.26763735 40.51772883 -18.15715911 42.43845637 -20.046875 44.359375 C-21.26496831 45.58398688 -22.48369532 46.80796883 -23.703125 48.03125 C-24.2615509 48.60202271 -24.81997681 49.17279541 -25.39532471 49.76086426 C-29.32234004 53.66569138 -32.44029572 55.48805914 -37.8125 56.5625 C-45.66281224 55.17715078 -52.46556428 45.71716507 -57.9375 40.25 C-58.70384766 39.49589844 -59.47019531 38.74179687 -60.25976562 37.96484375 C-60.98744141 37.23910156 -61.71511719 36.51335937 -62.46484375 35.765625 C-63.120896 35.11368164 -63.77694824 34.46173828 -64.45288086 33.79003906 C-66.71901509 31.16808921 -66.99561266 29.04738322 -67.3125 25.625 C-66.94638946 21.37811768 -65.97193191 19.97193191 -63 17 C-59.22786948 14.48524632 -57.47964158 14.55203584 -53 15 C-46.77130947 17.71797405 -42.59942435 22.07801862 -38 27 C-34.01295714 25.40247219 -31.3698311 22.60944346 -28.4296875 19.58984375 C-27.64623459 18.79858849 -27.64623459 18.79858849 -26.84695435 17.99134827 C-25.18479666 16.3114287 -23.52950195 14.62495728 -21.875 12.9375 C-20.21249027 11.24736984 -18.54854046 9.5587228 -16.88162231 7.87294006 C-15.8460278 6.82509029 -14.81311817 5.77457886 -13.78317261 4.72117615 C-9.34326145 0.21923155 -6.32631168 -0.69213007 0 0 Z " fill="#FABB55" transform="translate(159,280)"/>
<path d="M0 0 C3.6578218 2.03993908 5.66946174 3.50419262 8 7 C8.69761651 10.13001391 8.60269033 12.8570794 8 16 C6.67378235 17.95533752 6.67378235 17.95533752 4.92700195 19.83032227 C4.2900943 20.52022247 3.65318665 21.21012268 2.99697876 21.92092896 C2.33797577 22.6070224 1.67897278 23.29311584 1 24 C0.40166351 24.62462128 -0.19667297 25.24924255 -0.81314087 25.89279175 C-2.65723986 27.78798076 -4.52174124 29.66051733 -6.39453125 31.52734375 C-7.06796066 32.20172989 -7.74139008 32.87611603 -8.43522644 33.57093811 C-9.8432044 34.97959068 -11.25242224 36.38700499 -12.6628418 37.79321289 C-14.82783604 39.95279773 -16.98737256 42.11773882 -19.14648438 44.28320312 C-20.52051237 45.6565712 -21.89485006 47.02962951 -23.26953125 48.40234375 C-23.91533646 49.05017319 -24.56114166 49.69800262 -25.22651672 50.36546326 C-26.12336433 51.25758263 -26.12336433 51.25758263 -27.03833008 52.16772461 C-27.56348709 52.69208603 -28.0886441 53.21644745 -28.62971497 53.75669861 C-31.63570224 56.48412252 -34.68383075 56.53420497 -38.59375 56.44140625 C-43.27507633 55.58265645 -45.79313944 52.31920281 -49 49 C-50.25240808 47.77577454 -51.50790326 46.55470326 -52.765625 45.3359375 C-54.13671563 43.99611966 -55.50649323 42.65495692 -56.875 41.3125 C-57.54225098 40.65886475 -58.20950195 40.00522949 -58.89697266 39.33178711 C-59.52651855 38.70280518 -60.15606445 38.07382324 -60.8046875 37.42578125 C-61.37171387 36.86286377 -61.93874023 36.29994629 -62.52294922 35.7199707 C-65.05534665 32.77108808 -65.9369269 30.48656394 -66.4375 26.625 C-65.85694294 21.8146701 -64.38607407 20.38607407 -61 17 C-57.4423692 15.2211846 -53.86563561 15.23924291 -50 16 C-46.93734384 17.96608126 -44.56308554 20.43691446 -42 23 C-40.96562975 23.88449576 -39.92307748 24.75948667 -38.8737793 25.6262207 C-37.92543213 26.40956787 -36.97708496 27.19291504 -36 28 C-35.26885986 27.25838623 -34.53771973 26.51677246 -33.78442383 25.75268555 C-31.05926867 22.99121198 -28.32740302 20.23645945 -25.59350586 17.48364258 C-24.41329071 16.29339681 -23.23488025 15.10135865 -22.05834961 13.9074707 C-20.36267785 12.18742142 -18.66052762 10.47401483 -16.95703125 8.76171875 C-16.43599319 8.23035812 -15.91495514 7.6989975 -15.37812805 7.15153503 C-10.68239829 2.45438698 -6.88501735 -0.98357391 0 0 Z " fill="#FABB55" transform="translate(158,196)"/>
<path d="M0 0 C3.6578218 2.03993908 5.66946174 3.50419262 8 7 C8.26069641 10.09848022 8.26069641 10.09848022 8.2746582 13.96240234 C8.2823246 15.01902824 8.2823246 15.01902824 8.29014587 16.09700012 C8.30405094 18.42673225 8.30308423 20.75616879 8.30078125 23.0859375 C8.30466817 24.70635081 8.30900283 26.3267631 8.31376648 27.94717407 C8.321231 31.34502462 8.32093611 34.74277128 8.31567383 38.140625 C8.30988399 42.49082408 8.32679706 46.84059673 8.3500185 51.19072533 C8.36476632 54.53822305 8.36562604 57.88561839 8.36250877 61.23314285 C8.36302163 62.83668486 8.36825271 64.44023265 8.37832069 66.04374313 C8.39068611 68.28904469 8.38389313 70.53351982 8.37231445 72.77880859 C8.37294388 74.05549408 8.3735733 75.33217957 8.3742218 76.64755249 C7.85584584 81.29139791 6.36668406 83.89906006 2.75 86.8125 C-0.84340629 88.36419817 -3.11630237 88.54508037 -7 88 C-9.96922861 86.20650621 -12.42452071 84.15095858 -14 81 C-14.11278955 78.68843993 -14.15941084 76.37356946 -14.17700195 74.05932617 C-14.18357315 73.34530136 -14.19014435 72.63127655 -14.19691467 71.89561462 C-14.21665642 69.52806497 -14.22831232 67.16057878 -14.23828125 64.79296875 C-14.24235678 63.98463404 -14.2464323 63.17629932 -14.25063133 62.34346962 C-14.2714961 58.06483846 -14.28579587 53.78623941 -14.29516602 49.50756836 C-14.30622969 45.08889775 -14.34062753 40.67073084 -14.38033772 36.25223827 C-14.4064882 32.85414191 -14.41485644 29.45616582 -14.41844749 26.05797768 C-14.42331777 24.42928987 -14.4349444 22.8006076 -14.45348549 21.17201805 C-14.47784412 18.89055912 -14.47691861 16.61040668 -14.4699707 14.32885742 C-14.47583694 13.03139084 -14.48170319 11.73392426 -14.48774719 10.3971405 C-13.9189504 6.43549262 -12.77450421 4.82256179 -10 2 C-6.73065722 -0.28853994 -3.9301848 -0.47162218 0 0 Z " fill="#7C7C7C" transform="translate(35,319)"/>
<path d="M0 0 C3.61376334 2.15288029 5.41763144 4.155122 7 8 C7.95570716 15.32295097 6.4040289 22.11100217 4.734375 29.20703125 C3.46761889 35.74969178 3.25036955 42.35225673 3 49 C-1.1256898 50.15500963 -5.11916637 50.14693729 -9.375 50.125 C-10.48875 50.13080078 -10.48875 50.13080078 -11.625 50.13671875 C-15.8598522 50.12923668 -19.82909897 49.83418021 -24 49 C-23.01 48.505 -23.01 48.505 -22 48 C-22.01450195 47.40501709 -22.02900391 46.81003418 -22.04394531 46.19702148 C-22.22502108 32.88148552 -21.79486991 14.37942165 -13.7265625 3.2421875 C-9.81190933 -0.71572151 -5.19338253 -1.04442564 0 0 Z " fill="#F8B952" transform="translate(397,271)"/>
<path d="M0 0 C1.375 2.375 1.375 2.375 1.3125 5.5 C0.375 8.375 0.375 8.375 -2.625 10.375 C-4.46883015 10.83525593 -6.32522193 11.24623158 -8.1875 11.625 C-16.71538263 13.669214 -23.87725399 17.66929632 -29.625 24.375 C-30.11613281 24.93703125 -30.60726563 25.4990625 -31.11328125 26.078125 C-39.37785073 36.16787236 -40.06363865 45.7526869 -39.56591797 58.40258789 C-39.5351416 59.37188232 -39.50436523 60.34117676 -39.47265625 61.33984375 C-39.43148682 62.2124585 -39.39031738 63.08507324 -39.34790039 63.98413086 C-39.69310633 66.96263463 -40.52088873 68.2618724 -42.625 70.375 C-46.125 70.875 -46.125 70.875 -49.625 70.375 C-52.59899619 67.39757013 -53.01595544 65.10011497 -53.05859375 60.97265625 C-53.07587524 59.39895264 -53.07587524 59.39895264 -53.09350586 57.79345703 C-53.08327393 56.68599121 -53.07304199 55.57852539 -53.0625 54.4375 C-53.05420166 53.30683105 -53.04590332 52.17616211 -53.03735352 51.01123047 C-52.73378144 36.00980038 -48.30888477 24.36633285 -38 13.1875 C-29.63165596 5.2903831 -11.94245624 -7.3929491 0 0 Z " fill="#FD6358" transform="translate(344.625,322.625)"/>
<path d="M0 0 C0.33 0.66 0.66 1.32 1 2 C2.77369428 2.7326423 2.77369428 2.7326423 4.9296875 3.3125 C10.29897319 5.00694913 15.13217047 7.42197036 20.125 10 C22.07075103 10.9886805 24.01739513 11.97560503 25.96484375 12.9609375 C26.95983887 13.46463867 27.95483398 13.96833984 28.97998047 14.48730469 C33.85308936 16.92819254 38.76709154 19.28125637 43.6875 21.625 C44.63262451 22.07528564 45.57774902 22.52557129 46.55151367 22.98950195 C49.36667578 24.32845299 52.18311465 25.66467856 55 27 C55.94294922 27.44746582 56.88589844 27.89493164 57.85742188 28.35595703 C63.23628229 30.9082095 68.61714758 33.45617826 74 36 C74 36.99 74 37.98 74 39 C68.7127029 39.21314202 64.12365006 38.47298444 59.0625 37.0625 C43.58004976 32.81271007 30.908776 33.29718951 16 39 C10.67846372 32.62863683 6.34656982 26.35836424 3 18.75 C2.70988037 18.10160156 2.41976074 17.45320313 2.12084961 16.78515625 C-0.14703262 11.38224022 -1.91243053 5.73729159 0 0 Z " fill="#128ADF" transform="translate(301,280)"/>
<path d="M0 0 C0.80419373 -0.00807175 1.60838745 -0.01614349 2.43695068 -0.02445984 C4.1417017 -0.03830173 5.84648045 -0.04902342 7.55126953 -0.05688477 C10.14800244 -0.07406085 12.74344976 -0.11793959 15.33984375 -0.16210938 C16.99738648 -0.1722398 18.65494003 -0.18075481 20.3125 -0.1875 C21.47063202 -0.21376213 21.47063202 -0.21376213 22.65216064 -0.24055481 C27.86117527 -0.21978881 30.77194692 0.8232197 34.921875 4.23828125 C36.90965062 7.09006161 37.20752489 9.24203151 36.921875 12.67578125 C36.880625 13.41699219 36.839375 14.15820312 36.796875 14.921875 C35.47701947 18.41595683 33.08022108 20.40852654 29.921875 22.23828125 C26.93041827 22.94020415 24.04336455 22.9407851 20.98046875 22.90234375 C19.7125222 22.9095192 19.7125222 22.9095192 18.41896057 22.9168396 C16.63972095 22.92022865 14.86041822 22.91109599 13.08129883 22.89013672 C10.36333189 22.86332029 7.64948123 22.8899322 4.93164062 22.921875 C3.19790759 22.91857137 1.46417711 22.91216611 -0.26953125 22.90234375 C-1.48220421 22.91752548 -1.48220421 22.91752548 -2.71937561 22.93301392 C-7.01237858 22.8441107 -8.60679207 22.61946054 -12.06616211 19.82177734 C-14.86674075 16.22564543 -15.47114076 13.96094363 -15.4375 9.34375 C-14.80230686 5.62234672 -12.73833484 3.83515276 -10.078125 1.23828125 C-6.90767019 -0.34694616 -3.48368653 0.03298418 0 0 Z " fill="#ABB8C2" transform="translate(208.078125,379.76171875)"/>
<path d="M0 0 C3.57545703 0.02280993 5.54438404 0.46007439 8.3125 2.75 C12.85750139 7.52225146 12.03022312 11.86526515 12.0625 18.1875 C12.083125 19.18587891 12.10375 20.18425781 12.125 21.21289062 C12.1740478 30.41548456 12.1740478 30.41548456 8.8125 34.375 C5.92778002 36.69880221 4.05663376 37.33948964 0.375 37.875 C-4.35425851 37.21124442 -5.84431791 35.71818209 -9.1875 32.375 C-11.23655049 28.27689901 -10.50471725 23.06692814 -10.5625 18.5625 C-10.61857422 16.9218457 -10.61857422 16.9218457 -10.67578125 15.24804688 C-10.76259264 7.33374197 -10.76259264 7.33374197 -9.08300781 4.53369141 C-7.7265625 3.17578125 -7.7265625 3.17578125 -5.1875 1.375 C-3.63766739 -0.17483261 -2.15081622 0.09367039 0 0 Z " fill="#FED67E" transform="translate(143.1875,37.625)"/>
<path d="M0 0 C0.33 0 0.66 0 1 0 C1 1.98 1 3.96 1 6 C8.92 6 16.84 6 25 6 C25 7.65 25 9.3 25 11 C20.8743102 12.15500963 16.88083363 12.14693729 12.625 12.125 C11.51125 12.13080078 11.51125 12.13080078 10.375 12.13671875 C6.1401478 12.12923668 2.17090103 11.83418021 -2 11 C-1.34 10.67 -0.68 10.34 0 10 C0 6.7 0 3.4 0 0 Z " fill="#F09348" transform="translate(375,309)"/>
</svg>
