<?xml version="1.0" encoding="UTF-8"?>
<svg version="1.1" xmlns="http://www.w3.org/2000/svg" width="512" height="512">
<path d="M0 0 C0.93817566 -0.0127597 1.87635132 -0.02551941 2.84295654 -0.03866577 C4.3617038 -0.04200424 4.3617038 -0.04200424 5.91113281 -0.04541016 C6.95569641 -0.05206696 8.00026001 -0.05872375 9.07647705 -0.06558228 C11.28892251 -0.07571369 13.50139856 -0.08039914 15.71386719 -0.08007812 C19.08743237 -0.08443799 22.45967533 -0.12071676 25.83300781 -0.15869141 C27.98404501 -0.16456221 30.13508842 -0.16852984 32.28613281 -0.17041016 C33.29053406 -0.18478119 34.2949353 -0.19915222 35.32977295 -0.21395874 C41.56793557 -0.17358677 45.27217506 0.61908017 50.36425781 4.29052734 C61.68431029 16.50426817 55.36425781 29.4615451 55.36425781 48.29052734 C102.88425781 48.29052734 150.40425781 48.29052734 199.36425781 48.29052734 C199.36425781 36.41052734 199.36425781 24.53052734 199.36425781 12.29052734 C205.01131664 2.4081744 205.01131664 2.4081744 211.36425781 0.29052734 C212.92286226 0.18414079 214.48548517 0.13196433 216.04760742 0.11352539 C216.99546616 0.10069016 217.94332489 0.08785492 218.91990662 0.07463074 C220.45277061 0.06355034 220.45277061 0.06355034 222.01660156 0.05224609 C223.06828018 0.04417435 224.1199588 0.0361026 225.20350647 0.02778625 C227.42854161 0.0139545 229.65359789 0.00322828 231.87866211 -0.00463867 C235.28507381 -0.02188817 238.69052413 -0.06578739 242.09667969 -0.10986328 C244.25747984 -0.1199871 246.41828824 -0.12850417 248.57910156 -0.13525391 C250.10892921 -0.16151604 250.10892921 -0.16151604 251.66966248 -0.18830872 C258.67597723 -0.16675539 258.67597723 -0.16675539 262.03833008 2.06713867 C263.36425781 4.29052734 263.36425781 4.29052734 263.36425781 8.29052734 C264.17580322 8.26958008 264.98734863 8.24863281 265.82348633 8.22705078 C269.52444924 8.14355651 273.22521347 8.09175979 276.92675781 8.04052734 C278.20357422 8.00701172 279.48039062 7.97349609 280.79589844 7.93896484 C287.86770096 7.86549157 292.69803428 7.86555335 298.36425781 12.29052734 C302.74867732 17.02108524 303.48847427 20.65422196 303.92675781 26.97802734 C304.05244141 28.74726562 304.05244141 28.74726562 304.18066406 30.55224609 C304.24125 31.45587891 304.30183594 32.35951172 304.36425781 33.29052734 C305.1612207 33.48163086 305.95818359 33.67273437 306.77929688 33.86962891 C310.39467989 34.74528711 314.00433717 35.6426283 317.61425781 36.54052734 C319.49564453 36.99105469 319.49564453 36.99105469 321.41503906 37.45068359 C322.6203125 37.75361328 323.82558594 38.05654297 325.06738281 38.36865234 C326.17758789 38.6409668 327.28779297 38.91328125 328.43164062 39.19384766 C331.68641253 40.41100012 333.27749292 41.52381961 335.36425781 44.29052734 C335.36425781 45.61052734 335.36425781 46.93052734 335.36425781 48.29052734 C337.33217285 48.25910645 337.33217285 48.25910645 339.33984375 48.22705078 C344.20757125 48.15464764 349.07525116 48.10872621 353.94335938 48.07080078 C356.05021163 48.05068608 358.15700807 48.02339067 360.26367188 47.98876953 C363.29213228 47.94024566 366.31985459 47.91755718 369.34863281 47.89990234 C370.76133453 47.86893463 370.76133453 47.86893463 372.20257568 47.83734131 C376.01977489 47.83603169 378.59615322 47.85743786 381.95703125 49.75244141 C384.06793042 53.55967731 383.93676479 57.00144368 383.89550781 61.29052734 C383.89933472 62.16322266 383.90316162 63.03591797 383.90710449 63.93505859 C383.90982271 65.77751827 383.90246776 67.62001658 383.88574219 69.46240234 C383.86433029 72.28098668 383.88554582 75.09702219 383.91113281 77.91552734 C383.90848952 79.70719963 383.90336451 81.49887033 383.89550781 83.29052734 C383.90360474 84.13228516 383.91170166 84.97404297 383.92004395 85.84130859 C383.90113098 87.02273437 383.90113098 87.02273437 383.88183594 88.22802734 C383.87865356 88.91767578 383.87547119 89.60732422 383.87219238 90.31787109 C383.36425781 92.29052734 383.36425781 92.29052734 379.36425781 96.29052734 C375.40425781 96.29052734 371.44425781 96.29052734 367.36425781 96.29052734 C367.36425781 217.73052734 367.36425781 339.17052734 367.36425781 464.29052734 C371.32425781 464.29052734 375.28425781 464.29052734 379.36425781 464.29052734 C383.86510855 468.79137808 383.86510855 468.79137808 383.8659668 472.46069336 C383.88003822 473.67699181 383.88003822 473.67699181 383.89439392 474.91786194 C383.88315994 475.78463058 383.87192596 476.65139923 383.86035156 477.54443359 C383.86180679 478.44169662 383.86326202 479.33895966 383.86476135 480.26341248 C383.8631036 482.1571681 383.85155619 484.05093736 383.83081055 485.94458008 C383.80182518 488.84628339 383.81020985 491.74616306 383.82324219 494.64794922 C383.81700557 496.4884529 383.80861522 498.32895082 383.79785156 500.16943359 C383.8007872 501.03822647 383.80372284 501.90701935 383.80674744 502.80213928 C383.79406326 503.60985275 383.78137909 504.41756622 383.76831055 505.24975586 C383.76290756 505.9593898 383.75750458 506.66902374 383.75193787 507.40016174 C383.24058523 509.89356689 382.31994046 510.69274485 380.36425781 512.29052734 C377.33548705 512.57131811 374.51472959 512.66913325 371.48657227 512.63110352 C370.12529205 512.63176064 370.12529205 512.63176064 368.73651123 512.63243103 C365.73330255 512.63033903 362.73065036 512.60698847 359.72753906 512.58349609 C357.64674688 512.57790161 355.56595074 512.57363081 353.4851532 512.57063293 C348.00565705 512.5591726 342.52639905 512.52969508 337.04699707 512.496521 C331.45681988 512.46584579 325.86660426 512.45213305 320.27636719 512.43701172 C309.30555937 512.40482662 298.33492838 512.35361582 287.36425781 512.29052734 C287.36425781 509.98052734 287.36425781 507.67052734 287.36425781 505.29052734 C282.08425781 505.29052734 276.80425781 505.29052734 271.36425781 505.29052734 C271.36425781 507.60052734 271.36425781 509.91052734 271.36425781 512.29052734 C220.83988027 512.35913546 170.31550742 512.4120266 119.7910925 512.44372333 C113.83151276 512.44747563 107.87193312 512.45135858 101.91235352 512.45532227 C100.72586638 512.4561092 99.53937925 512.45689613 98.31693796 512.45770691 C79.08426748 512.47077473 59.85162379 512.49443613 40.61896922 512.52198573 C20.89684999 512.55000166 1.17474482 512.56669552 -18.5473935 512.57279283 C-30.72525628 512.5769172 -42.90304333 512.58996182 -55.08088281 512.61427674 C-63.42214542 512.63008691 -71.76336865 512.63493845 -80.10464517 512.63103148 C-84.92317786 512.62910255 -89.74157787 512.63214007 -94.5600872 512.64814377 C-98.96617203 512.6626715 -103.37203412 512.66352647 -107.77812888 512.65322403 C-109.37709943 512.65194948 -110.9760835 512.6558153 -112.57502715 512.66517689 C-114.73912936 512.6771167 -116.90241445 512.67078936 -119.06650257 512.65967083 C-120.87378148 512.66137957 -120.87378148 512.66137957 -122.71757108 512.66312283 C-125.63574219 512.29052734 -125.63574219 512.29052734 -127.52208966 510.88560373 C-128.92289157 508.87924539 -129.02124085 507.68666751 -129.03979492 505.24975586 C-129.0524791 504.44204239 -129.06516327 503.63432892 -129.07823181 502.80213928 C-129.07529617 501.93334641 -129.07236053 501.06455353 -129.06933594 500.16943359 C-129.07457779 499.27312729 -129.07981964 498.37682098 -129.08522034 497.45335388 C-129.09164329 495.55786169 -129.0903 493.66232966 -129.08178711 491.7668457 C-129.0732835 488.86711558 -129.10202346 485.96935931 -129.13378906 483.06982422 C-129.13540133 481.22802793 -129.13482306 479.38622816 -129.13183594 477.54443359 C-129.14306992 476.67766495 -129.15430389 475.8108963 -129.1658783 474.91786194 C-129.15649734 474.10699631 -129.14711639 473.29613068 -129.13745117 472.46069336 C-129.137285 471.75026382 -129.13711884 471.03983429 -129.13694763 470.30787659 C-128.63574219 468.29052734 -128.63574219 468.29052734 -124.63574219 464.29052734 C-120.67574219 464.29052734 -116.71574219 464.29052734 -112.63574219 464.29052734 C-112.63574219 369.25052734 -112.63574219 274.21052734 -112.63574219 176.29052734 C-109.99574219 176.29052734 -107.35574219 176.29052734 -104.63574219 176.29052734 C-104.63574219 171.01052734 -104.63574219 165.73052734 -104.63574219 160.29052734 C-107.27574219 160.29052734 -109.91574219 160.29052734 -112.63574219 160.29052734 C-112.63574219 139.17052734 -112.63574219 118.05052734 -112.63574219 96.29052734 C-116.59574219 96.29052734 -120.55574219 96.29052734 -124.63574219 96.29052734 C-129.13688649 91.78938304 -129.13688649 91.78938304 -129.15332031 88.22802734 C-129.17223328 87.04660156 -129.17223328 87.04660156 -129.19152832 85.84130859 C-129.1834314 84.99955078 -129.17533447 84.15779297 -129.16699219 83.29052734 C-129.17081909 82.41783203 -129.174646 81.54513672 -129.17858887 80.64599609 C-129.18130709 78.80353642 -129.17395213 76.9610381 -129.15722656 75.11865234 C-129.13581466 72.30006801 -129.1570302 69.4840325 -129.18261719 66.66552734 C-129.17997389 64.87385506 -129.17484888 63.08218435 -129.16699219 61.29052734 C-129.17508911 60.44876953 -129.18318604 59.60701172 -129.19152832 58.73974609 C-129.13481842 55.19727991 -128.96404044 52.88264889 -127.22851562 49.75244141 C-123.1420192 47.44830388 -119.22906398 47.79887002 -114.62011719 47.89990234 C-113.649151 47.90556213 -112.67818481 47.91122192 -111.67779541 47.91705322 C-108.57994049 47.93942423 -105.48324685 47.98962262 -102.38574219 48.04052734 C-100.2841964 48.06059138 -98.18263247 48.07884232 -96.08105469 48.09521484 C-90.93217049 48.13929154 -85.78415315 48.20832476 -80.63574219 48.29052734 C-80.5179541 47.33509033 -80.40016602 46.37965332 -80.27880859 45.39526367 C-79.63574219 42.29052734 -79.63574219 42.29052734 -77.34667969 40.61474609 C-72.06908744 38.73147897 -66.70773489 37.40222172 -61.26074219 36.10302734 C-60.143125 35.83039062 -59.02550781 35.55775391 -57.87402344 35.27685547 C-55.1294232 34.608299 -52.38339305 33.94641203 -49.63574219 33.29052734 C-49.60996094 32.43330078 -49.58417969 31.57607422 -49.55761719 30.69287109 C-49.13544564 22.18227639 -48.51177687 16.88294973 -42.07324219 10.91552734 C-38.04434118 8.22959334 -34.95502149 8.17143558 -30.21777344 8.19287109 C-28.96416016 8.19609375 -27.71054688 8.19931641 -26.41894531 8.20263672 C-24.45344727 8.21520508 -24.45344727 8.21520508 -22.44824219 8.22802734 C-21.11295738 8.23304417 -19.77767078 8.23760676 -18.44238281 8.24169922 C-15.17345746 8.25350039 -11.90462228 8.26996437 -8.63574219 8.29052734 C-8.53261719 7.34177734 -8.42949219 6.39302734 -8.32324219 5.41552734 C-7.23086297 0.45016727 -4.58927616 0.04241133 0 0 Z " fill="#000000" transform="translate(128.6357421875,-0.29052734375)"/>
<path d="M0 0 C79.2 0 158.4 0 240 0 C240 24.09 240 48.18 240 73 C235.71 75.31 231.42 77.62 227 80 C219.14155724 88.45377933 216.17834906 95.66491201 216.46484375 107.26171875 C217.69169043 115.83173532 221.71600449 123.63293079 228.4375 129.1875 C230.71343094 130.7427833 230.71343094 130.7427833 233 132 C233.93779297 132.53367187 233.93779297 132.53367187 234.89453125 133.078125 C241.82390647 136.28751984 250.07702692 136.13082142 257.29296875 134.05078125 C267.39256327 130.07367384 273.15091407 124.74768557 277.63671875 114.8359375 C280.52797097 107.49099811 280.31783904 99.42574536 277.375 92.125 C276.62822053 90.72511374 275.83575177 89.34865862 275 88 C274.57589844 87.29101562 274.15179688 86.58203125 273.71484375 85.8515625 C270.08522515 80.41218978 265.84773384 77.74311878 260 75 C258.68 74.34 257.36 73.68 256 73 C256 48.91 256 24.82 256 0 C277.12 0 298.24 0 320 0 C320 24.09 320 48.18 320 73 C315.71 75.31 311.42 77.62 307 80 C299.14155724 88.45377933 296.17834906 95.66491201 296.46484375 107.26171875 C297.69169043 115.83173532 301.71600449 123.63293079 308.4375 129.1875 C310.71343094 130.7427833 310.71343094 130.7427833 313 132 C313.93779297 132.53367187 313.93779297 132.53367187 314.89453125 133.078125 C321.82390647 136.28751984 330.07702692 136.13082142 337.29296875 134.05078125 C347.39256327 130.07367384 353.15091407 124.74768557 357.63671875 114.8359375 C360.52797097 107.49099811 360.31783904 99.42574536 357.375 92.125 C356.62822053 90.72511374 355.83575177 89.34865862 355 88 C354.57589844 87.29101562 354.15179688 86.58203125 353.71484375 85.8515625 C350.08522515 80.41218978 345.84773384 77.74311878 340 75 C338.68 74.34 337.36 73.68 336 73 C336 48.91 336 24.82 336 0 C351.84 0 367.68 0 384 0 C384 95.04 384 190.08 384 288 C378.72 288 373.44 288 368 288 C367.98018066 286.1742041 367.96036133 284.3484082 367.93994141 282.46728516 C367.87186867 276.40032143 367.79507228 270.33351585 367.71247292 264.26673317 C367.66276029 260.59241046 367.61643059 256.91811308 367.578125 253.24365234 C367.54095271 249.69031334 367.49451167 246.13720014 367.44193649 242.58405685 C367.41468495 240.58472908 367.39676279 238.58528106 367.37905884 236.58584595 C367.1741124 223.79035327 365.86886986 213.49928239 356.95703125 203.76953125 C351.85869135 198.95994688 346.40762247 195.78243314 340 193 C340.63519569 189.30131277 341.66741899 186.02990947 343.06640625 182.55078125 C343.46923828 181.53822266 343.87207031 180.52566406 344.28710938 179.48242188 C344.70798828 178.43634766 345.12886719 177.39027344 345.5625 176.3125 C346.40020834 174.22649183 347.23499882 172.13930873 348.06640625 170.05078125 C348.43709229 169.12950439 348.80777832 168.20822754 349.18969727 167.2590332 C350.11254379 165.08623433 350.11254379 165.08623433 350 163 C345.38 161.02 340.76 159.04 336 157 C334.515 161.95 334.515 161.95 333 167 C328.05 179.375 328.05 179.375 323 192 C300.89 192 278.78 192 256 192 C256 197.28 256 202.56 256 208 C258.34077637 207.97381592 260.68155273 207.94763184 263.09326172 207.9206543 C270.85633863 207.8375364 278.619436 207.78246945 286.38284111 207.74093914 C291.08652297 207.71492582 295.78974613 207.67968032 300.49316406 207.62280273 C305.03843777 207.56818607 309.58327231 207.5385174 314.12884903 207.52561378 C315.85671012 207.5164268 317.58454914 207.49848728 319.31222153 207.47134972 C337.18292467 207.20199297 337.18292467 207.20199297 345 213 C347.25390625 215.38671875 347.25390625 215.38671875 348.5625 217.6875 C349.01753906 218.45449219 349.47257812 219.22148437 349.94140625 220.01171875 C352.00900325 223.89513894 352.13018718 226.84860897 352.09765625 231.1953125 C352.09553383 232.25647781 352.09553383 232.25647781 352.09336853 233.33908081 C352.087766 235.60109669 352.07521318 237.86301398 352.0625 240.125 C352.05748532 241.65755065 352.05292236 243.19010286 352.04882812 244.72265625 C352.03779577 248.48180888 352.02052952 252.24088772 352 256 C351.44230738 256.00331015 350.88461475 256.00662029 350.31002235 256.01003075 C336.70374915 256.09145648 323.0975862 256.18373405 309.49146461 256.28752708 C302.91148599 256.3373974 296.3315227 256.38372825 289.75146484 256.421875 C283.39715962 256.45884479 277.04298566 256.50523644 270.68879318 256.55806351 C268.26883632 256.57654538 265.84885139 256.59167605 263.42885208 256.60334396 C260.03006908 256.62031277 256.63158263 256.64937342 253.23291016 256.68115234 C252.24028168 256.68331253 251.2476532 256.68547272 250.22494507 256.68769836 C238.34107478 256.82893639 228.69696414 258.85726738 219.734375 267.078125 C213.78833798 273.37651977 210.69099902 279.54500488 209 288 C197.12 288 185.24 288 173 288 C171.47375 285.091875 169.9475 282.18375 168.375 279.1875 C167.45514309 277.44363255 166.53471489 275.7000661 165.61328125 273.95703125 C164.09661102 271.08640496 162.58992414 268.21162034 161.10546875 265.32421875 C160.59628906 264.35097656 160.08710938 263.37773437 159.5625 262.375 C159.13066406 261.53710938 158.69882813 260.69921875 158.25390625 259.8359375 C157.0542812 257.68195202 157.0542812 257.68195202 154 257 C152.61306649 256.90381164 151.22204398 256.86089193 149.83180237 256.85282898 C148.98362946 256.84567368 148.13545654 256.83851837 147.26158142 256.83114624 C146.33422684 256.82845734 145.40687225 256.82576843 144.45141602 256.82299805 C143.47229248 256.81642685 142.49316895 256.80985565 141.484375 256.80308533 C138.24088467 256.78335659 134.99744055 256.77169266 131.75390625 256.76171875 C130.64736128 256.75764322 129.54081631 256.7535677 128.40073967 256.74936867 C122.54767925 256.72851302 116.69464227 256.71420724 110.84155273 256.70483398 C104.78733118 256.69375088 98.73347528 256.65932743 92.67938328 256.61966228 C88.0306071 256.59356416 83.3819191 256.58514836 78.7330761 256.58155251 C76.5006964 256.5766715 74.26832102 256.56501477 72.03601265 256.54651451 C68.91636929 256.52226081 65.79768657 256.52306266 62.67797852 256.5300293 C61.75264816 256.51721924 60.82731781 256.50440918 59.87394714 256.49121094 C54.82813322 256.48656646 54.82813322 256.48656646 50.49710083 258.85281372 C48.65894461 261.48915172 47.20906757 264.1520449 45.80078125 267.04296875 C45.23166016 268.19861328 44.66253906 269.35425781 44.07617188 270.54492188 C43.48791148 271.75893548 42.90002512 272.97313039 42.3125 274.1875 C41.14502075 276.5783535 39.97299692 278.96692896 38.80078125 281.35546875 C38.28684814 282.41403076 37.77291504 283.47259277 37.2434082 284.56323242 C36 287 36 287 35 288 C23.45 288 11.9 288 0 288 C0 192.96 0 97.92 0 0 Z " fill="#EEF7FB" transform="translate(64,176)"/>
<path d="M0 0 C5.28 0 10.56 0 16 0 C16.99 1.98 17.98 3.96 19 6 C22.12042954 7.45294199 22.12042954 7.45294199 25.8125 8.125 C27.15401958 8.4332739 28.49515716 8.74321416 29.8359375 9.0546875 C30.52139648 9.20647461 31.20685547 9.35826172 31.91308594 9.51464844 C35.29302548 10.30071767 38.60578637 11.27966385 41.9375 12.25 C43.10152344 12.58515625 44.26554687 12.9203125 45.46484375 13.265625 C46.30144531 13.50796875 47.13804688 13.7503125 48 14 C48.02578125 14.7734375 48.0515625 15.546875 48.078125 16.34375 C48.47510891 23.63381812 48.94623472 30.17052498 54.49584961 35.41308594 C60.91784769 39.9508168 67.3475801 39.77613686 75 39.8125 C76.25167969 39.83763672 77.50335938 39.86277344 78.79296875 39.88867188 C81.86229574 39.94724682 84.93020599 39.9837459 88 40 C88.680625 41.4540625 88.680625 41.4540625 89.375 42.9375 C90.65786221 46.07079582 90.65786221 46.07079582 93 47 C94.4073151 47.10929316 95.8195195 47.15897705 97.23095703 47.17700195 C98.5433989 47.19625481 98.5433989 47.19625481 99.88235474 47.21589661 C101.30570633 47.22697701 101.30570633 47.22697701 102.7578125 47.23828125 C103.73483124 47.246353 104.71184998 47.25442474 105.71847534 47.26274109 C107.79146547 47.27659049 109.86447849 47.2873088 111.9375 47.29516602 C115.09159399 47.31231833 118.24462331 47.35618982 121.3984375 47.40039062 C123.4140548 47.41052293 125.42968101 47.41903735 127.4453125 47.42578125 C128.85044601 47.45204338 128.85044601 47.45204338 130.28396606 47.47883606 C136.29651857 47.45915753 141.03642046 46.55806731 146 43 C156.15966232 30.23529606 151.44723226 18.79410325 152 0 C199.52 0 247.04 0 296 0 C296.33 11.22 296.66 22.44 297 34 C301.22728157 42.81686927 301.22728157 42.81686927 309 47 C312.51938755 47.62479564 315.91766162 47.63346485 319.484375 47.55859375 C320.46239075 47.55626236 321.44040649 47.55393097 322.44805908 47.55152893 C324.50208336 47.54183665 326.55608275 47.52015479 328.60986328 47.48706055 C331.75463361 47.43742687 334.89784101 47.42556182 338.04296875 47.41992188 C340.0442875 47.40584288 342.04559268 47.389641 344.046875 47.37109375 C345.45474274 47.3630497 345.45474274 47.3630497 346.89105225 47.35484314 C347.76586243 47.33885574 348.64067261 47.32286835 349.54199219 47.30639648 C350.30840027 47.29575668 351.07480835 47.28511688 351.86444092 47.27415466 C354.31684981 46.95932407 355.91679437 46.32541777 358 45 C359.28254644 42.46229997 359.28254644 42.46229997 360 40 C360.74572266 39.9906543 361.49144531 39.98130859 362.25976562 39.97167969 C365.6738215 39.9176397 369.08655655 39.83405696 372.5 39.75 C374.25957031 39.72873047 374.25957031 39.72873047 376.0546875 39.70703125 C383.11945056 39.50858285 388.02409845 38.87340018 394 35 C397.96085834 30.02353696 399.0926892 26.05427209 399.5625 19.8125 C399.64628906 18.72582031 399.73007812 17.63914062 399.81640625 16.51953125 C399.87699219 15.68808594 399.93757813 14.85664062 400 14 C401.04341553 13.75092896 401.04341553 13.75092896 402.10791016 13.49682617 C405.28214056 12.73459843 408.45353779 11.9611612 411.625 11.1875 C413.26662109 10.79594727 413.26662109 10.79594727 414.94140625 10.39648438 C422.83918979 8.60125396 422.83918979 8.60125396 430 5 C430.66 3.35 431.32 1.7 432 0 C437.28 0 442.56 0 448 0 C448 121.44 448 242.88 448 368 C442.72 368 437.44 368 432 368 C431.99503478 365.69269913 431.99503478 365.69269913 431.98996925 363.33878613 C431.91100924 326.85272505 431.82181135 290.36670175 431.71994839 253.88069717 C431.70742901 249.39320262 431.69499632 244.90570783 431.68261719 240.41821289 C431.6789182 239.07810256 431.6789182 239.07810256 431.67514448 237.7109193 C431.63538416 223.23117022 431.60265133 208.75141331 431.57250018 194.2716414 C431.54142324 179.42211034 431.50283006 164.57261265 431.45720994 149.72311908 C431.4292818 140.55481914 431.40726759 131.3865437 431.39273749 122.21821258 C431.38222278 115.93735959 431.36442965 109.65655393 431.34083296 103.37573656 C431.32742157 99.7480991 431.31729591 96.1205282 431.31578636 92.49286461 C431.3140687 88.56583138 431.29706372 84.63895147 431.2784729 80.71195984 C431.281375 78.97997731 431.281375 78.97997731 431.28433573 77.21300524 C431.27687024 76.16549682 431.26940475 75.1179884 431.26171303 74.0387373 C431.25943471 73.13158543 431.25715638 72.22443356 431.25480902 71.28979224 C431.14653709 68.7222584 431.14653709 68.7222584 429 66 C425.56920068 64.85640023 422.93701207 64.8710558 419.31699467 64.86577892 C418.63094018 64.86342669 417.94488569 64.86107446 417.23804167 64.85865095 C414.92227431 64.85195509 412.60656298 64.85241935 410.29078674 64.85282898 C408.62050333 64.84953074 406.95022071 64.84580526 405.27993912 64.8416875 C400.67680102 64.83165523 396.07367596 64.82794875 391.47052848 64.82529819 C386.51135253 64.82139891 381.55218693 64.81182048 376.59301758 64.80308533 C364.61194639 64.78331282 352.63087434 64.77325483 340.64979091 64.76435754 C335.01232991 64.75997692 329.37486985 64.75460962 323.73740959 64.74936867 C305.00645041 64.73235748 286.27549182 64.71786138 267.5445261 64.71061993 C262.68259747 64.70870994 257.82066885 64.70678962 252.95874023 64.70483398 C251.750287 64.70435024 250.54183376 64.7038665 249.29676073 64.7033681 C229.70281612 64.69506056 210.10893241 64.66971093 190.51501442 64.63725331 C170.41423831 64.60422646 150.31349321 64.58617523 130.21268982 64.58297569 C118.92027919 64.58080679 107.62795745 64.5720026 96.3355732 64.54651451 C86.722586 64.52486741 77.10970928 64.51672754 67.49670047 64.52648129 C62.58887694 64.53104311 57.68128161 64.52903104 52.773489 64.50971985 C48.28475917 64.49220942 43.79642609 64.49298633 39.30769276 64.50861714 C37.67985723 64.51101175 36.0519951 64.50657471 34.42420048 64.49478849 C32.21859337 64.47980184 30.01441635 64.48924782 27.80884647 64.50501537 C26.5816977 64.50403856 25.35454893 64.50306176 24.09021384 64.50205535 C20.94073398 64.7749356 20.94073398 64.7749356 18.60618514 66.70832497 C16.68945129 69.44308512 16.49774696 70.84506269 16.49219131 74.16178513 C16.47501993 75.73603433 16.47501993 75.73603433 16.45750165 77.34208655 C16.46914228 79.06969982 16.46914228 79.06969982 16.48101807 80.83221436 C16.46976619 82.66881414 16.46976619 82.66881414 16.458287 84.54251695 C16.44147701 87.94284241 16.44258928 91.34231608 16.45119452 94.74261642 C16.45613126 98.40861347 16.4380646 102.07450486 16.42277527 105.74046326 C16.39943943 112.09250033 16.39071577 118.44442316 16.39188385 124.79650116 C16.39355163 133.98053942 16.37323328 143.16442518 16.34752855 152.3484228 C16.30642361 167.24838771 16.28312857 182.14832525 16.27099609 197.04833984 C16.25917167 211.52330153 16.2389828 225.99821163 16.20751953 240.47314453 C16.20558343 241.36520532 16.20364733 242.2572661 16.20165256 243.17635903 C16.19188813 247.6515141 16.18195899 252.1266688 16.17194796 256.60182333 C16.08909428 293.73452547 16.03542458 330.86722406 16 368 C10.72 368 5.44 368 0 368 C0 272.96 0 177.92 0 80 C-2.64 80 -5.28 80 -8 80 C-8 74.72 -8 69.44 -8 64 C-5.36 64 -2.72 64 0 64 C0 42.88 0 21.76 0 0 Z " fill="#83CAEF" transform="translate(32,96)"/>
<path d="M0 0 C0.9778093 -0.00554901 1.95561859 -0.01109802 2.96305847 -0.01681519 C6.19136748 -0.02861436 9.41827378 -0.00433254 12.64648438 0.02148438 C14.89180436 0.02319546 17.13712635 0.02312982 19.38244629 0.0213623 C24.08670174 0.02301571 28.79048076 0.04171827 33.49462891 0.07324219 C39.52404007 0.11291941 45.55282712 0.11728746 51.58234406 0.10977936 C56.2183402 0.10670954 60.85419609 0.11883071 65.49015808 0.13591003 C67.71330383 0.14294039 69.93646548 0.14606452 72.15962219 0.1452179 C75.26686319 0.14701597 78.37335698 0.16839946 81.48046875 0.1953125 C82.39906174 0.1923819 83.31765472 0.18945129 84.26408386 0.18643188 C89.05386571 0.25042776 92.37603763 0.45115905 96.24023438 3.61523438 C97.56977229 6.27431021 97.36009469 8.28088806 97.35375977 11.25830078 C97.35368423 12.43937408 97.3536087 13.62044739 97.35353088 14.83731079 C97.3483696 16.1175412 97.34320831 17.39777161 97.33789062 18.71679688 C97.3357682 20.67690201 97.3357682 20.67690201 97.33360291 22.67660522 C97.32978332 26.15199695 97.3199578 29.62734694 97.30889893 33.10272217 C97.2986728 36.64855383 97.29410271 40.19439222 97.2890625 43.74023438 C97.27833504 50.69858486 97.2612653 57.65690762 97.24023438 64.61523438 C97.90410156 64.58042969 98.56796875 64.545625 99.25195312 64.50976562 C108.31703927 64.23185787 108.31703927 64.23185787 112.24023438 67.61523438 C115.20890245 71.20294034 117.64776473 75.14669059 120.17773438 79.05273438 C120.88736328 80.10267578 121.59699219 81.15261719 122.328125 82.234375 C122.98876953 83.24564453 123.64941406 84.25691406 124.33007812 85.29882812 C124.937146 86.22236084 125.54421387 87.14589355 126.16967773 88.09741211 C127.24023438 90.61523438 127.24023438 90.61523438 126.55737305 92.84106445 C124.86393896 95.12209976 123.01549259 96.35650064 120.61523438 97.86523438 C119.38933594 98.64640625 119.38933594 98.64640625 118.13867188 99.44335938 C117.5121875 99.83007812 116.88570312 100.21679688 116.24023438 100.61523438 C112.87496465 99.22513428 111.43813696 97.84736837 109.58398438 94.73632812 C109.11863281 93.98029297 108.65328125 93.22425781 108.17382812 92.4453125 C107.21637616 90.84738518 106.26065208 89.24842129 105.30664062 87.6484375 C104.84128906 86.89369141 104.3759375 86.13894531 103.89648438 85.36132812 C103.48205078 84.6670874 103.06761719 83.97284668 102.640625 83.25756836 C101.14334658 81.17957966 101.14334658 81.17957966 97.24023438 80.61523438 C97.24023438 99.09523438 97.24023438 117.57523438 97.24023438 136.61523438 C91.96023437 136.61523438 86.68023437 136.61523438 81.24023438 136.61523438 C81.24023438 118.13523437 81.24023438 99.65523437 81.24023438 80.61523438 C70.68023437 80.61523438 60.12023437 80.61523438 49.24023438 80.61523438 C49.24023438 107.01523437 49.24023438 133.41523438 49.24023438 160.61523438 C43.96023437 160.61523438 38.68023437 160.61523438 33.24023438 160.61523438 C33.24023438 134.21523438 33.24023438 107.81523437 33.24023438 80.61523438 C22.68023437 80.61523438 12.12023437 80.61523438 1.24023438 80.61523438 C1.24023438 99.09523438 1.24023438 117.57523438 1.24023438 136.61523438 C-4.03976563 136.61523438 -9.31976563 136.61523438 -14.75976562 136.61523438 C-14.75976562 118.13523437 -14.75976562 99.65523437 -14.75976562 80.61523438 C-19.21363189 81.72870094 -19.40292267 81.98778818 -21.63476562 85.65039062 C-22.40046875 86.8637207 -22.40046875 86.8637207 -23.18164062 88.1015625 C-24.23546447 89.82185167 -25.28754313 91.5432111 -26.33789062 93.265625 C-26.84835938 94.07322266 -27.35882813 94.88082031 -27.88476562 95.71289062 C-28.34109375 96.46062744 -28.79742187 97.20836426 -29.26757812 97.97875977 C-30.00621094 98.7888147 -30.00621094 98.7888147 -30.75976562 99.61523438 C-35.36473537 99.61523438 -36.4008813 98.7744123 -40.00976562 96.11523438 C-40.90179688 95.46554687 -41.79382813 94.81585938 -42.71289062 94.14648438 C-43.72609375 93.38851562 -43.72609375 93.38851562 -44.75976562 92.61523438 C-42.62976013 86.81454746 -39.24625587 82.03429213 -35.82226562 76.92773438 C-35.18869141 75.96544922 -34.55511719 75.00316406 -33.90234375 74.01171875 C-33.28939453 73.09326172 -32.67644531 72.17480469 -32.04492188 71.22851562 C-31.48683838 70.39102783 -30.92875488 69.55354004 -30.35375977 68.69067383 C-28.75976562 66.61523438 -28.75976562 66.61523438 -25.75976562 64.61523438 C-23.06054688 64.41992188 -23.06054688 64.41992188 -20.07226562 64.49023438 C-19.07839844 64.50828125 -18.08453125 64.52632812 -17.06054688 64.54492188 C-15.92166016 64.57972656 -15.92166016 64.57972656 -14.75976562 64.61523438 C-14.77086868 63.88718094 -14.78197174 63.1591275 -14.79341125 62.40901184 C-14.89371425 55.53827311 -14.96978169 48.66764419 -15.01882648 41.79636097 C-15.04488951 38.26390593 -15.08022428 34.73205724 -15.13696289 31.19995117 C-15.20182627 27.13649776 -15.22597294 23.07367839 -15.24804688 19.00976562 C-15.2738533 17.74501907 -15.29965973 16.48027252 -15.32624817 15.17720032 C-15.32662582 13.99635361 -15.32700348 12.8155069 -15.32739258 11.59887695 C-15.33849564 10.56185135 -15.34959869 9.52482574 -15.36103821 8.45637512 C-13.57405023 0.01247713 -7.21408286 -0.10416163 0 0 Z " fill="#000000" transform="translate(126.759765625,191.384765625)"/>
<path d="M0 0 C158.4 0 316.8 0 480 0 C480 5.61 480 11.22 480 17 C453.6 17 427.2 17 400 17 C400 19.64 400 22.28 400 25 C394.72 25 389.44 25 384 25 C384 22.36 384 19.72 384 17 C257.28 17 130.56 17 0 17 C0 11.39 0 5.78 0 0 Z " fill="#52A4EB" transform="translate(16,480)"/>
<path d="M0 0 C5.28 0 10.56 0 16 0 C16 7.92 16 15.84 16 24 C18.64 24 21.28 24 24 24 C24 16.08 24 8.16 24 0 C29.28 0 34.56 0 40 0 C40 7.92 40 15.84 40 24 C66.4 24 92.8 24 120 24 C120 16.08 120 8.16 120 0 C125.28 0 130.56 0 136 0 C136 7.92 136 15.84 136 24 C138.64 24 141.28 24 144 24 C144 16.08 144 8.16 144 0 C149.28 0 154.56 0 160 0 C160 7.92 160 15.84 160 24 C162.64 24 165.28 24 168 24 C168 29.28 168 34.56 168 40 C165.36 40 162.72 40 160 40 C160 47.92 160 55.84 160 64 C154.72 64 149.44 64 144 64 C144 56.08 144 48.16 144 40 C141.36 40 138.72 40 136 40 C136 47.92 136 55.84 136 64 C130.72 64 125.44 64 120 64 C120 56.08 120 48.16 120 40 C93.6 40 67.2 40 40 40 C40 47.92 40 55.84 40 64 C34.72 64 29.44 64 24 64 C24 56.08 24 48.16 24 40 C21.36 40 18.72 40 16 40 C16 47.92 16 55.84 16 64 C10.72 64 5.44 64 0 64 C0 56.08 0 48.16 0 40 C-2.64 40 -5.28 40 -8 40 C-8 34.72 -8 29.44 -8 24 C-5.36 24 -2.72 24 0 24 C0 16.08 0 8.16 0 0 Z " fill="#000000" transform="translate(88,352)"/>
<path d="M0 0 C10.23 0 20.46 0 31 0 C31 36.96 31 73.92 31 112 C20.77 112 10.54 112 0 112 C-1.56904981 110.43095019 -1.12596746 108.89080738 -1.12698364 106.71044922 C-1.12980347 105.78496277 -1.13262329 104.85947632 -1.13552856 103.90594482 C-1.13249222 102.37082245 -1.13249222 102.37082245 -1.12939453 100.8046875 C-1.13114685 99.733255 -1.13289917 98.66182251 -1.13470459 97.55792236 C-1.13912553 93.99693203 -1.13618426 90.43599089 -1.1328125 86.875 C-1.13348547 84.41259756 -1.13445544 81.95019518 -1.13571167 79.48779297 C-1.13718897 74.31932952 -1.13503305 69.15088332 -1.13037109 63.98242188 C-1.1246738 57.34059273 -1.12795263 50.69880398 -1.13394356 44.05697632 C-1.1375483 38.96996758 -1.13641099 33.8829685 -1.13381577 28.79595947 C-1.13314625 26.3462117 -1.13397575 23.89646307 -1.13629532 21.44671631 C-1.13882042 18.0295579 -1.13498326 14.61246593 -1.12939453 11.1953125 C-1.13141876 10.17189758 -1.13344299 9.14848267 -1.13552856 8.09405518 C-1.13270874 7.16856873 -1.12988892 6.24308228 -1.12698364 5.28955078 C-1.12660662 4.48059357 -1.12622959 3.67163635 -1.12584114 2.83816528 C-1 1 -1 1 0 0 Z " fill="#FDDB7E" transform="translate(345,16)"/>
<path d="M0 0 C10.23 0 20.46 0 31 0 C32.56904981 1.56904981 32.12596746 3.10919262 32.12698364 5.28955078 C32.12980347 6.21503723 32.13262329 7.14052368 32.13552856 8.09405518 C32.13350433 9.11747009 32.1314801 10.14088501 32.12939453 11.1953125 C32.13114685 12.266745 32.13289917 13.33817749 32.13470459 14.44207764 C32.13912553 18.00306797 32.13618426 21.56400911 32.1328125 25.125 C32.13348547 27.58740244 32.13445544 30.04980482 32.13571167 32.51220703 C32.13718897 37.68067048 32.13503305 42.84911668 32.13037109 48.01757812 C32.1246738 54.65940727 32.12795263 61.30119602 32.13394356 67.94302368 C32.1375483 73.03003242 32.13641099 78.1170315 32.13381577 83.20404053 C32.13314625 85.6537883 32.13397575 88.10353693 32.13629532 90.55328369 C32.13882042 93.9704421 32.13498326 97.38753407 32.12939453 100.8046875 C32.13141876 101.82810242 32.13344299 102.85151733 32.13552856 103.90594482 C32.13270874 104.83143127 32.12988892 105.75691772 32.12698364 106.71044922 C32.12660662 107.51940643 32.12622959 108.32836365 32.12584114 109.16183472 C32 111 32 111 31 112 C20.77 112 10.54 112 0 112 C0 75.04 0 38.08 0 0 Z " fill="#FDDB7E" transform="translate(136,16)"/>
<path d="M0 0 C47.52 0 95.04 0 144 0 C144 5.28 144 10.56 144 16 C96.48 16 48.96 16 0 16 C0 10.72 0 5.44 0 0 Z " fill="#54A8F1" transform="translate(184,64)"/>
<path d="M0 0 C7.59 0 15.18 0 23 0 C24.875588 1.875588 24.12662979 4.58288718 24.13552856 7.07867432 C24.13350433 7.95247742 24.1314801 8.82628052 24.12939453 9.7265625 C24.13114685 10.64193787 24.13289917 11.55731323 24.13470459 12.50042725 C24.13912461 15.54197049 24.13618459 18.58345611 24.1328125 21.625 C24.1334855 23.7286785 24.13445548 25.83235692 24.13571167 27.93603516 C24.13718885 32.35124449 24.13503345 36.76643363 24.13037109 41.18164062 C24.1246738 46.85492561 24.1279527 52.52816329 24.13394356 58.20144653 C24.13754864 62.54728556 24.13641083 66.89311328 24.13381577 71.23895264 C24.13314635 73.3314413 24.13397543 75.42393097 24.13629532 77.51641846 C24.13882098 80.43545266 24.13498248 83.35440912 24.12939453 86.2734375 C24.13141876 87.1472406 24.13344299 88.0210437 24.13552856 88.92132568 C24.11426236 94.88573764 24.11426236 94.88573764 23 96 C15.41 96 7.82 96 0 96 C0 64.32 0 32.64 0 0 Z " fill="#FDDB7E" transform="translate(392,24)"/>
<path d="M0 0 C7.59 0 15.18 0 23 0 C23 31.68 23 63.36 23 96 C15.41 96 7.82 96 0 96 C-1.875588 94.124412 -1.12662979 91.41711282 -1.13552856 88.92132568 C-1.13350433 88.04752258 -1.1314801 87.17371948 -1.12939453 86.2734375 C-1.13114685 85.35806213 -1.13289917 84.44268677 -1.13470459 83.49957275 C-1.13912461 80.45802951 -1.13618459 77.41654389 -1.1328125 74.375 C-1.1334855 72.2713215 -1.13445548 70.16764308 -1.13571167 68.06396484 C-1.13718885 63.64875551 -1.13503345 59.23356637 -1.13037109 54.81835938 C-1.1246738 49.14507439 -1.1279527 43.47183671 -1.13394356 37.79855347 C-1.13754864 33.45271444 -1.13641083 29.10688672 -1.13381577 24.76104736 C-1.13314635 22.6685587 -1.13397543 20.57606903 -1.13629532 18.48358154 C-1.13882098 15.56454734 -1.13498248 12.64559088 -1.12939453 9.7265625 C-1.13141876 8.8527594 -1.13344299 7.9789563 -1.13552856 7.07867432 C-1.11426236 1.11426236 -1.11426236 1.11426236 0 0 Z " fill="#FDDB7E" transform="translate(97,24)"/>
<path d="M0 0 C0.93809509 -0.00137466 1.87619019 -0.00274933 2.8427124 -0.00416565 C4.38343163 0.00122726 4.38343163 0.00122726 5.95527649 0.00672913 C7.57990311 0.00651009 7.57990311 0.00651009 9.23735046 0.00628662 C12.82474252 0.00698444 16.41208294 0.0147708 19.99946594 0.02259827 C22.48382539 0.02446291 24.96818521 0.02588659 27.45254517 0.02688599 C33.32796322 0.03031672 39.20336215 0.03820181 45.07877237 0.04823548 C52.42407869 0.06050718 59.76938609 0.0658799 67.11470032 0.07142639 C80.21822567 0.0821573 93.32173459 0.0992294 106.42524719 0.12025452 C106.42524719 5.40025452 106.42524719 10.68025452 106.42524719 16.12025452 C64.51524719 16.12025452 22.60524719 16.12025452 -20.57475281 16.12025452 C-17.99482842 8.38048134 -14.42771264 5.29162137 -7.57475281 1.12025452 C-4.71711177 0.1677075 -2.96257152 -0.00334754 0 0 Z " fill="#F9A130" transform="translate(309.5747528076172,447.87974548339844)"/>
<path d="M0 0 C28.38 0 56.76 0 86 0 C88.64 5.28 91.28 10.56 94 16 C60.34 16 26.68 16 -8 16 C-5.36 10.72 -2.72 5.44 0 0 Z " fill="#F9A130" transform="translate(125,448)"/>
<path d="M0 0 C26.4 0 52.8 0 80 0 C80 5.28 80 10.56 80 16 C53.6 16 27.2 16 0 16 C0 10.72 0 5.44 0 0 Z " fill="#FAA231" transform="translate(128,208)"/>
<path d="M0 0 C4.35699098 2.46622131 7.04335342 5.33670683 9.3125 9.875 C9.85610446 14.82982094 9.87687074 18.74625852 7.625 23.25 C4.45995126 26.84275803 1.10048338 30.56912413 -3.859375 31.11328125 C-9.70596537 31.28159218 -13.11942863 30.89925335 -17.6875 26.875 C-22.08643104 21.88161882 -23.04426337 18.96484773 -22.96875 12.4140625 C-22.41766315 7.43897287 -19.68052299 4.74980597 -16.0625 1.5625 C-10.83094803 -2.15465535 -5.95356591 -1.81634214 0 0 Z " fill="#E8F1F5" transform="translate(398.6875,265.125)"/>
<path d="M0 0 C4.35699098 2.46622131 7.04335342 5.33670683 9.3125 9.875 C9.85610446 14.82982094 9.87687074 18.74625852 7.625 23.25 C4.45995126 26.84275803 1.10048338 30.56912413 -3.859375 31.11328125 C-9.70596537 31.28159218 -13.11942863 30.89925335 -17.6875 26.875 C-22.08643104 21.88161882 -23.04426337 18.96484773 -22.96875 12.4140625 C-22.41766315 7.43897287 -19.68052299 4.74980597 -16.0625 1.5625 C-10.83094803 -2.15465535 -5.95356591 -1.81634214 0 0 Z " fill="#E8F1F5" transform="translate(318.6875,265.125)"/>
<path d="M0 0 C5.28 1.32 10.56 2.64 16 4 C16 15.88 16 27.76 16 40 C10.72 41.32 5.44 42.64 0 44 C0 29.48 0 14.96 0 0 Z " fill="#F69F30" transform="translate(432,50)"/>
<path d="M0 0 C0 14.52 0 29.04 0 44 C-5.28 42.68 -10.56 41.36 -16 40 C-16 28.12 -16 16.24 -16 4 C-2 0 -2 0 0 0 Z " fill="#F7A030" transform="translate(80,50)"/>
<path d="M0 0 C10.56 0 21.12 0 32 0 C32 5.28 32 10.56 32 16 C21.44 16 10.88 16 0 16 C0 10.72 0 5.44 0 0 Z " fill="#EFF8FC" transform="translate(176,240)"/>
<path d="M0 0 C10.56 0 21.12 0 32 0 C32 5.28 32 10.56 32 16 C21.44 16 10.88 16 0 16 C0 10.72 0 5.44 0 0 Z " fill="#EFF8FC" transform="translate(128,240)"/>
<path d="M0 0 C10.56 0 21.12 0 32 0 C32 5.28 32 10.56 32 16 C21.44 16 10.88 16 0 16 C0 10.72 0 5.44 0 0 Z " fill="#54A8F1" transform="translate(464,64)"/>
<path d="M0 0 C10.56 0 21.12 0 32 0 C32 5.28 32 10.56 32 16 C21.44 16 10.88 16 0 16 C0 10.72 0 5.44 0 0 Z " fill="#54A8F1" transform="translate(16,64)"/>
<path d="M0 0 C5.28 0 10.56 0 16 0 C16 5.28 16 10.56 16 16 C10.72 16 5.44 16 0 16 C0 10.72 0 5.44 0 0 Z " fill="#000000" transform="translate(288,368)"/>
</svg>
