<?xml version="1.0" encoding="UTF-8"?>
<svg version="1.1" xmlns="http://www.w3.org/2000/svg" width="512" height="512">
<path d="M0 0 C0.88319945 -0.00326884 1.76639891 -0.00653768 2.67636198 -0.00990558 C5.64756802 -0.01721158 8.61828604 -0.003005 11.58946228 0.01104736 C13.71471236 0.01025685 15.83996231 0.00816072 17.96520996 0.00485229 C23.74604259 -0.00029229 29.52669794 0.01327447 35.30750203 0.0303793 C41.34707671 0.04538515 47.38664881 0.04424054 53.42623901 0.04504395 C63.56889382 0.04873932 73.71148106 0.06372084 83.85411072 0.08624268 C96.88773732 0.11512435 109.92130951 0.12546608 122.95496464 0.12992477 C134.14171733 0.1339002 145.3284581 0.1464027 156.51520228 0.16027164 C160.12027316 0.16437635 163.7253436 0.16729907 167.33041573 0.17006683 C172.98644448 0.17494983 178.64244001 0.1851363 184.29845238 0.19950485 C186.37942327 0.20403852 188.46039864 0.20686903 190.54137421 0.20791245 C193.37161064 0.20965045 196.20176312 0.21751295 199.03198242 0.22705078 C199.86455521 0.2261843 200.697128 0.22531782 201.55493027 0.22442508 C207.22408382 0.25328489 207.22408382 0.25328489 209.45249939 1.36749268 C210.66877386 5.01631608 210.59283387 8.36079454 210.58392715 12.15933132 C210.58597979 12.96526034 210.58803242 13.77118936 210.59014726 14.60154048 C210.59583996 17.32508891 210.59435722 20.04858714 210.59294128 22.7721405 C210.59552361 24.73528447 210.59853639 26.6984279 210.60194468 28.66157061 C210.61003332 34.07422187 210.61180529 39.48685988 210.61254215 44.89951646 C210.61438943 50.72986418 210.62193504 56.56020498 210.62867737 62.39054871 C210.64227365 75.14643024 210.6482872 87.90230864 210.65268803 100.65819621 C210.65544782 108.61713335 210.65968464 116.57606926 210.6641922 124.53500557 C210.67638572 146.55490892 210.68672082 168.57481132 210.69006729 190.59471798 C210.69028893 192.01893146 210.69051071 193.44314494 210.69073264 194.86735842 C210.69095328 196.29504438 210.69117377 197.72273035 210.69139409 199.15041631 C210.69183665 202.01468591 210.69228376 204.8789555 210.69273376 207.7432251 C210.69289785 208.80848524 210.69289785 208.80848524 210.69306525 209.89526579 C210.69669768 232.9341333 210.7126249 255.97296939 210.73592413 279.01182486 C210.76050159 303.35903932 210.77423912 327.70623581 210.77543521 352.05346304 C210.77628751 365.32999523 210.78214533 378.60648798 210.80025482 391.88300896 C210.8156163 403.18497024 210.82079967 414.48687765 210.81251672 425.78884738 C210.80859638 431.55938868 210.80960701 437.32982133 210.82357407 443.10034943 C210.83623016 448.37729225 210.83518906 453.65404387 210.82298335 458.93098611 C210.8210119 460.84549241 210.82417086 462.76001188 210.83282772 464.67449962 C210.84381114 467.26650674 210.83651076 469.85782596 210.82443619 472.44981289 C210.83203138 473.20211572 210.83962657 473.95441855 210.84745193 474.72951844 C210.81538224 477.89394472 210.63050312 480.05230469 209.05954814 482.83396631 C207.45249939 484.36749268 207.45249939 484.36749268 205.36778259 484.82159424 C204.19735413 484.79017334 204.19735413 484.79017334 203.00328064 484.75811768 C201.73194275 484.73878174 201.73194275 484.73878174 200.43492126 484.71905518 C199.11330994 484.66878174 199.11330994 484.66878174 197.76499939 484.61749268 C196.87232361 484.5994458 195.97964783 484.58139893 195.05992126 484.56280518 C192.85636435 484.51567027 190.65497338 484.44989924 188.45249939 484.36749268 C188.46297302 485.14463623 188.47344666 485.92177979 188.48423767 486.72247314 C188.52570221 490.22911368 188.55179517 493.73570273 188.57749939 497.24249268 C188.5942572 498.46581299 188.61101501 499.6891333 188.62828064 500.94952393 C188.63472595 502.11612549 188.64117126 503.28272705 188.64781189 504.48468018 C188.65828552 505.56346436 188.66875916 506.64224854 188.67955017 507.75372314 C188.45249939 510.36749268 188.45249939 510.36749268 186.45249939 512.36749268 C182.1964333 512.81205056 177.92557177 512.78164943 173.64903259 512.79302979 C171.52570909 512.80493264 169.40528758 512.85410239 167.28257751 512.90460205 C165.93428442 512.91406583 164.58597346 512.92130109 163.23765564 512.92608643 C162.00925964 512.93954102 160.78086365 512.95299561 159.51524353 512.96685791 C158.50453796 512.76906738 157.4938324 512.57127686 156.45249939 512.36749268 C153.45249939 507.36749268 153.45249939 507.36749268 153.45249939 484.36749268 C117.48249939 484.36749268 81.51249939 484.36749268 44.45249939 484.36749268 C44.45249939 492.94749268 44.45249939 501.52749268 44.45249939 510.36749268 C41.61990364 513.20008843 39.72555279 512.62587528 35.76499939 512.63311768 C34.77753723 512.63598785 34.77753723 512.63598785 33.77012634 512.63891602 C32.37811399 512.64027718 30.98608892 512.63658551 29.59410095 512.62823486 C27.4606735 512.61753368 25.32808808 512.62813174 23.19468689 512.64093018 C21.84312253 512.63960857 20.49155869 512.63704615 19.13999939 512.63311768 C17.28955017 512.62973389 17.28955017 512.62973389 15.40171814 512.62628174 C12.45249939 512.36749268 12.45249939 512.36749268 10.45249939 510.36749268 C10.22544861 507.75372314 10.22544861 507.75372314 10.25718689 504.48468018 C10.2636322 503.31807861 10.27007751 502.15147705 10.27671814 500.94952393 C10.29347595 499.72620361 10.31023376 498.5028833 10.32749939 497.24249268 C10.33652283 496.01143799 10.34554626 494.7803833 10.35484314 493.51202393 C10.37847391 490.46365453 10.41141885 487.41566885 10.45249939 484.36749268 C9.89264343 484.38843994 9.33278748 484.40938721 8.75596619 484.43096924 C6.21749353 484.5141547 3.67930738 484.56615649 1.13999939 484.61749268 C0.25892517 484.6510083 -0.62214905 484.68452393 -1.52992249 484.71905518 C-2.37748108 484.7319458 -3.22503967 484.74483643 -4.09828186 484.75811768 C-4.8785675 484.77906494 -5.65885315 484.80001221 -6.46278381 484.82159424 C-8.54750061 484.36749268 -8.54750061 484.36749268 -10.1542002 482.8349424 C-12.08601965 479.41380843 -11.96064936 476.25824231 -11.92502403 472.43419552 C-11.92938435 471.62512468 -11.93374468 470.81605385 -11.93823713 469.98246571 C-11.94924089 467.25410842 -11.93874764 464.52625148 -11.92845154 461.79789734 C-11.93190607 459.82905078 -11.93666925 457.86020615 -11.94263327 455.89136559 C-11.95520088 450.46759184 -11.94894677 445.04397568 -11.93967462 439.62020123 C-11.93290803 433.77624938 -11.94335342 427.9323253 -11.95161438 422.08837891 C-11.96497926 410.63502774 -11.96206179 399.18173543 -11.95337646 387.72838192 C-11.94661147 378.42357745 -11.94567805 369.11878953 -11.94894791 359.81398201 C-11.94917706 359.15340493 -11.94940622 358.49282785 -11.94964232 357.81223328 C-11.9505763 355.13089839 -11.95153149 352.4495635 -11.95252161 349.76822863 C-11.96170288 324.60481789 -11.95337127 299.44143932 -11.93723092 274.27803354 C-11.92299197 251.90882887 -11.92426887 229.53967542 -11.93861389 207.17047119 C-11.95466789 182.05223827 -11.96105346 156.93403377 -11.9517771 131.81579643 C-11.95081491 129.13959349 -11.94987639 126.46339053 -11.94894791 123.78718758 C-11.94848508 122.47030907 -11.94802225 121.15343056 -11.9475454 119.79664664 C-11.9449506 110.49804709 -11.94933701 101.19947303 -11.95638657 91.900877 C-11.96478312 80.57621267 -11.96256033 69.25161075 -11.94654433 57.92695361 C-11.93863695 52.14438331 -11.93561189 46.36191724 -11.94549179 40.57934761 C-11.9543882 35.29261872 -11.94958984 30.00609131 -11.93355913 24.71938086 C-11.9301898 22.80021548 -11.93195321 20.8810333 -11.9391865 18.96187859 C-11.94822484 16.36598852 -11.93903903 13.77080118 -11.92502403 11.17494869 C-11.93204753 10.41870035 -11.93907103 9.662452 -11.94630736 8.88328704 C-11.91455387 5.96836762 -11.88321202 3.87877893 -10.2574622 1.40277272 C-7.15016659 -0.47850997 -3.52761452 -0.03422673 0 0 Z " fill="#4593F1" transform="translate(281.54750061035156,-0.36749267578125)"/>
<path d="M0 0 C0.88163946 -0.00297112 1.76327892 -0.00594224 2.67163473 -0.0090034 C5.64344974 -0.0177163 8.6152246 -0.01920082 11.58705139 -0.02069092 C13.71053148 -0.02531719 15.83401074 -0.03034159 17.95748901 -0.03573608 C23.73837907 -0.04887889 29.5192575 -0.0553085 35.30016017 -0.05974674 C38.90802019 -0.06267393 42.51587701 -0.06677802 46.12373543 -0.07125092 C57.40099636 -0.08492968 68.67825001 -0.09459496 79.95551866 -0.09845281 C92.99414123 -0.10293717 106.03265916 -0.12050104 119.0712499 -0.1494534 C129.13664878 -0.17103172 139.20201813 -0.18115499 149.2674399 -0.18249393 C155.28536881 -0.18354456 161.3031994 -0.18950716 167.32110405 -0.20731354 C172.97880024 -0.22372817 178.63632352 -0.22598202 184.29403496 -0.21717453 C186.37459271 -0.21640064 188.4551595 -0.22079276 190.53569412 -0.23063278 C193.36799945 -0.24324651 196.19968245 -0.23753351 199.03198242 -0.22705078 C199.86232449 -0.23510719 200.69266656 -0.24316359 201.54817051 -0.25146413 C207.01070188 -0.20392127 207.01070188 -0.20392127 209.28944463 1.17572194 C211.29943803 4.23692859 210.98990426 7.40565919 210.95700645 10.94789791 C210.96136678 11.75551531 210.9657271 12.5631327 210.97021955 13.39522335 C210.98124251 16.12466713 210.97072122 18.85361277 210.96043396 21.58305359 C210.96388775 23.55032441 210.96865043 25.51759329 210.97461569 27.4848581 C210.98719378 32.90896051 210.98092448 38.33290553 210.97165704 43.75700867 C210.9648946 49.59963392 210.97533382 55.44223129 210.9835968 61.28485107 C210.99696665 72.73800644 210.99404187 84.19110298 210.98535888 95.6442607 C210.97859517 104.94955724 210.97765991 114.25483722 210.98093033 123.5601368 C210.98115948 124.22063749 210.98138864 124.88113819 210.98162474 125.56165406 C210.98255871 128.24266903 210.98351391 130.92368399 210.98450403 133.60469894 C210.99368704 158.76980864 210.98535133 183.93488619 210.96921334 209.09999092 C210.95497751 231.46904194 210.95624832 253.83804172 210.97059631 276.20709229 C210.9866528 301.32386263 210.9930342 326.44060454 210.98375952 351.55737931 C210.98279734 354.23389661 210.98185882 356.91041392 210.98093033 359.58693123 C210.9804675 360.90396401 210.98000468 362.2209968 210.97952782 363.57793967 C210.97693354 372.87555687 210.9813184 382.17314857 210.98836899 391.47076225 C210.99676843 402.79652016 210.99453675 414.12221566 210.97852676 425.44796639 C210.97062281 431.23065363 210.96758848 437.01323668 210.97747421 442.79592323 C210.98637785 448.08397789 210.98156009 453.37183127 210.96554156 458.65986753 C210.96217529 460.57840766 210.96392889 462.4969646 210.97116892 464.41549402 C210.98022324 467.01295653 210.97100475 469.60971945 210.95700645 472.20714474 C210.96402995 472.96105192 210.97105345 473.71495909 210.97828978 474.49171194 C210.94391122 477.65906905 210.75842681 479.82354342 209.18618262 482.60789162 C207.57948303 484.14044189 207.57948303 484.14044189 205.49476624 484.59454346 C204.32433777 484.56312256 204.32433777 484.56312256 203.13026428 484.53106689 C201.85892639 484.51173096 201.85892639 484.51173096 200.56190491 484.49200439 C199.24029358 484.44173096 199.24029358 484.44173096 197.89198303 484.39044189 C196.99930725 484.37239502 196.10663147 484.35434814 195.18690491 484.33575439 C192.98334799 484.28861949 190.78195702 484.22284846 188.57948303 484.14044189 C188.58995667 484.91758545 188.6004303 485.694729 188.61122131 486.49542236 C188.65268586 490.0020629 188.67877881 493.50865195 188.70448303 497.01544189 C188.72124084 498.23876221 188.73799866 499.46208252 188.75526428 500.72247314 C188.76170959 501.88907471 188.76815491 503.05567627 188.77479553 504.25762939 C188.78526917 505.33641357 188.7957428 506.41519775 188.80653381 507.52667236 C188.57948303 510.14044189 188.57948303 510.14044189 186.57948303 512.14044189 C183.63026428 512.39923096 183.63026428 512.39923096 179.89198303 512.40606689 C178.90452087 512.40893707 178.90452087 512.40893707 177.89710999 512.41186523 C176.50509763 512.41322639 175.11307256 512.40953473 173.72108459 512.40118408 C171.58765714 512.3904829 169.45507172 512.40108096 167.32167053 512.41387939 C165.97010617 512.41255779 164.61854233 512.40999537 163.26698303 512.40606689 C161.41653381 512.40268311 161.41653381 512.40268311 159.52870178 512.39923096 C156.57948303 512.14044189 156.57948303 512.14044189 154.57948303 510.14044189 C154.57948303 501.56044189 154.57948303 492.98044189 154.57948303 484.14044189 C118.60948303 484.14044189 82.63948303 484.14044189 45.57948303 484.14044189 C45.57948303 491.73044189 45.57948303 499.32044189 45.57948303 507.14044189 C44.58948303 508.79044189 43.59948303 510.44044189 42.57948303 512.14044189 C39.51673889 512.73980713 39.51673889 512.73980713 35.79432678 512.69903564 C35.13743362 512.69670425 34.48054047 512.69437286 33.80374146 512.69197083 C32.41757692 512.68224122 31.03145172 512.66047103 29.64564514 512.62750244 C27.52078125 512.57803033 25.39823051 512.56601967 23.27284241 512.56036377 C12.89085334 512.4518122 12.89085334 512.4518122 10.57948303 510.14044189 C10.35243225 507.52667236 10.35243225 507.52667236 10.38417053 504.25762939 C10.39061584 503.09102783 10.39706116 501.92442627 10.40370178 500.72247314 C10.42045959 499.49915283 10.43721741 498.27583252 10.45448303 497.01544189 C10.46350647 495.78438721 10.47252991 494.55333252 10.48182678 493.28497314 C10.50545755 490.23660375 10.53840249 487.18861807 10.57948303 484.14044189 C10.01962708 484.16138916 9.45977112 484.18233643 8.88294983 484.20391846 C6.34447717 484.28710391 3.80629103 484.3391057 1.26698303 484.39044189 C0.38590881 484.42395752 -0.49516541 484.45747314 -1.40293884 484.49200439 C-2.25049744 484.50489502 -3.09805603 484.51778564 -3.97129822 484.53106689 C-4.75158386 484.55201416 -5.53186951 484.57296143 -6.33580017 484.59454346 C-8.42051697 484.14044189 -8.42051697 484.14044189 -10.02756572 482.60691553 C-11.95743445 479.18973181 -11.83101449 476.04219608 -11.79245377 472.22276211 C-11.7962149 471.41537965 -11.79997602 470.60799718 -11.80385113 469.77614859 C-11.81283955 467.05352374 -11.80032062 464.33141634 -11.78800964 461.60881042 C-11.79003281 459.64408958 -11.79337078 457.67936971 -11.79791522 455.71465307 C-11.80658997 450.30227134 -11.79647304 444.89006033 -11.78337288 439.47769344 C-11.77250231 433.64601896 -11.77888344 427.81436075 -11.78315735 421.98268127 C-11.7887996 410.55338631 -11.7784592 399.12415825 -11.76286939 387.6948747 C-11.74624594 375.06806267 -11.74397425 362.4412629 -11.74335395 349.81444175 C-11.74214212 325.42105899 -11.72643602 301.02770782 -11.70176697 276.63433838 C-11.67847193 253.59494787 -11.66430019 230.55557652 -11.66075134 207.51617432 C-11.66063983 206.806379 -11.66052831 206.09658368 -11.66041342 205.36527941 C-11.65996457 202.50371559 -11.65952259 199.64215177 -11.65908099 196.78058796 C-11.65886061 195.35460686 -11.65863932 193.92862576 -11.65841711 192.50264466 C-11.65819575 191.08020769 -11.65797698 189.65777073 -11.65776081 188.23533377 C-11.65424779 165.59881673 -11.6427747 142.96230337 -11.62995447 120.32578994 C-11.62551421 112.36743249 -11.622078 104.40907534 -11.61933234 96.45071714 C-11.61490587 83.82916266 -11.60715376 71.20761977 -11.59255794 58.58607262 C-11.58593687 52.8156868 -11.58088276 47.04531124 -11.5800972 41.27492142 C-11.57931333 35.99935702 -11.57393681 30.72381861 -11.5647777 25.44826228 C-11.56225854 23.53313401 -11.56144084 21.61800265 -11.56243649 19.70287298 C-11.56352362 17.11264463 -11.5585418 14.522499 -11.55194473 11.93228054 C-11.5537142 11.17763654 -11.55548368 10.42299254 -11.55730677 9.64548054 C-11.54367257 6.53515452 -11.41208393 4.11514278 -10.42051697 1.14044189 C-7.16447975 -0.48757671 -3.57808735 -0.00372382 0 0 Z " fill="#4593F1" transform="translate(31.420516967773438,-0.14044189453125)"/>
<path d="M0 0 C11.22 0 22.44 0 34 0 C37.26851868 3.26851868 37.3509335 4.12110656 37.39880675 8.51579437 C37.39178325 9.27204271 37.38475975 10.02829106 37.37752342 10.80745602 C37.38188374 11.61507341 37.38624407 12.42269081 37.39073652 13.25478145 C37.40175948 15.98422524 37.39123819 18.71317088 37.38095093 21.44261169 C37.38440472 23.40988251 37.38916739 25.3771514 37.39513266 27.3444162 C37.40771074 32.76851861 37.40144144 38.19246364 37.39217401 43.61656678 C37.38541156 49.45919202 37.39585079 55.3017894 37.40411377 61.14440918 C37.41748362 72.59756455 37.41455884 84.05066109 37.40587585 95.5038188 C37.39911214 104.80911534 37.39817688 114.11439532 37.4014473 123.4196949 C37.40167645 124.0801956 37.40190561 124.74069629 37.40214171 125.42121216 C37.40307568 128.10222713 37.40403088 130.7832421 37.405021 133.46425705 C37.41420401 158.62936674 37.40586829 183.79444429 37.38973031 208.95954903 C37.37549448 231.32860004 37.37676529 253.69759983 37.39111328 276.06665039 C37.40716976 301.18342073 37.41355117 326.30016265 37.40427649 351.41693741 C37.4033143 354.09345471 37.40237578 356.76997202 37.4014473 359.44648933 C37.40098447 360.76352212 37.40052164 362.08055491 37.40004479 363.43749778 C37.3974505 372.73511498 37.40183537 382.03270667 37.40888596 391.33032036 C37.41728539 402.65607827 37.41505372 413.98177377 37.39904372 425.30752449 C37.39113978 431.09021173 37.38810545 436.87279479 37.39799118 442.65548134 C37.40689482 447.943536 37.40207706 453.23138938 37.38605852 458.51942564 C37.38269226 460.43796576 37.38444586 462.35652271 37.39168589 464.27505212 C37.40074021 466.87251464 37.39152172 469.46927756 37.37752342 472.06670284 C37.38454692 472.82061002 37.39157042 473.5745172 37.39880675 474.35127005 C37.36516744 477.4505182 37.15738703 479.69602673 35.72152197 482.46921974 C32.74588516 485.11516104 29.01821106 484.44686569 25.25 484.3125 C24.48300781 484.30283203 23.71601563 484.29316406 22.92578125 484.28320312 C15.2620036 484.14036124 7.65516403 483.51034427 0 483 C0 323.61 0 164.22 0 0 Z " fill="#2988E5" transform="translate(205,0)"/>
<path d="M0 0 C34 0 34 0 36 1 C37.21627447 4.6488234 37.14033448 7.99330187 37.13142776 11.79183865 C37.1334804 12.59776767 37.13553303 13.40369669 37.13764787 14.2340478 C37.14334057 16.95759623 37.14185783 19.68109446 37.14044189 22.40464783 C37.14302422 24.36779179 37.146037 26.33093523 37.1494453 28.29407793 C37.15753393 33.70672919 37.1593059 39.1193672 37.16004276 44.53202379 C37.16189005 50.36237151 37.16943565 56.1927123 37.17617798 62.02305603 C37.18977426 74.77893756 37.19578781 87.53481596 37.20018864 100.29070354 C37.20294843 108.24964067 37.20718525 116.20857658 37.21169281 124.16751289 C37.22388633 146.18741624 37.23422143 168.20731864 37.2375679 190.2272253 C37.23778954 191.65143878 37.23801132 193.07565226 37.23823325 194.49986574 C37.23845389 195.92755171 37.23867438 197.35523767 37.2388947 198.78292364 C37.23933726 201.64719323 37.23978437 204.51146283 37.24023438 207.37573242 C37.24034377 208.08590585 37.24045316 208.79607928 37.24056586 209.52777311 C37.24419829 232.56664063 37.26012551 255.60547671 37.28342474 278.64433219 C37.3080022 302.99154665 37.32173973 327.33874314 37.32293582 351.68597037 C37.32378812 364.96250255 37.32964594 378.2389953 37.34775543 391.51551628 C37.36311691 402.81747757 37.36830028 414.11938497 37.36001733 425.4213547 C37.35609699 431.191896 37.35710762 436.96232866 37.37107468 442.73285675 C37.38373077 448.00979957 37.38268967 453.28655119 37.37048396 458.56349344 C37.36851251 460.47799974 37.37167147 462.3925192 37.38032833 464.30700695 C37.39131175 466.89901407 37.38401137 469.49033328 37.3719368 472.08232021 C37.37953199 472.83462305 37.38712718 473.58692588 37.39495254 474.36202577 C37.36357394 477.45825988 37.1564664 479.69784174 35.72187114 482.46824366 C32.74625217 485.11531934 29.01881618 484.44688726 25.25 484.3125 C24.48300781 484.30283203 23.71601563 484.29316406 22.92578125 484.28320312 C15.2620036 484.14036124 7.65516403 483.51034427 0 483 C0 323.61 0 164.22 0 0 Z " fill="#2988E5" transform="translate(455,0)"/>
<path d="M0 0 C1.01501083 -0.01134979 2.03002167 -0.02269958 3.07579041 -0.03439331 C4.74498787 -0.02999741 4.74498787 -0.02999741 6.44790649 -0.0255127 C7.62049515 -0.03398224 8.7930838 -0.04245178 10.00120544 -0.05117798 C13.2183055 -0.07058745 16.43505013 -0.07632361 19.65219831 -0.07443047 C22.33854055 -0.07431083 25.02482841 -0.08287214 27.71115553 -0.09120798 C34.05003773 -0.11045031 40.38878824 -0.11332325 46.72769165 -0.10656738 C53.26428557 -0.09992886 59.80031486 -0.12278064 66.33679426 -0.15988111 C71.95050762 -0.19058643 77.56403946 -0.2019372 83.17783511 -0.1980443 C86.5299273 -0.19597722 89.88158038 -0.20144812 93.23359299 -0.22593689 C96.97345688 -0.2480315 100.71195417 -0.23847049 104.45181274 -0.2208252 C105.56056259 -0.23408844 106.66931244 -0.24735168 107.81166077 -0.26101685 C115.3124462 -0.17864309 115.3124462 -0.17864309 119.26690674 2.77661133 C121.07925415 5.39440918 121.07925415 5.39440918 121.70425415 7.89440918 C120.74186518 11.74396505 119.26319696 13.00721597 116.07925415 15.39440918 C112.25068491 16.14941802 108.46725961 16.07731378 104.5753479 16.04138184 C103.41222076 16.05014343 102.24909363 16.05890503 101.05072021 16.06793213 C97.20568548 16.08993995 93.36180059 16.07536676 89.51675415 16.05847168 C86.84543425 16.06183938 84.17414929 16.06668391 81.50283813 16.07296753 C75.90415996 16.0820571 70.30581186 16.07009481 64.70718384 16.04626465 C58.23980603 16.01905413 51.77321637 16.02786882 45.30585766 16.05539668 C39.7472698 16.07810693 34.18891884 16.08127865 28.63029957 16.06820333 C25.31290913 16.06041906 21.99596915 16.06130925 18.67858887 16.07588577 C14.97956922 16.0885719 11.28206691 16.06924494 7.5831604 16.04138184 C6.48690338 16.05150299 5.39064636 16.06162415 4.26116943 16.072052 C-3.12149348 15.96892675 -3.12149348 15.96892675 -7.13973999 13.08053589 C-8.92074585 10.39440918 -8.92074585 10.39440918 -8.92074585 6.76940918 C-7.33504054 1.41765375 -5.54192873 0.02340138 0 0 Z " fill="#1A75C1" transform="translate(324.9207458496094,64.6055908203125)"/>
<path d="M0 0 C1.00797134 -0.01134979 2.01594269 -0.02269958 3.05445862 -0.03439331 C4.15431091 -0.03146271 5.25416321 -0.0285321 6.38734436 -0.0255127 C7.55032547 -0.03398224 8.71330658 -0.04245178 9.91152954 -0.05117798 C13.76173288 -0.07460631 17.61153798 -0.07556872 21.46180725 -0.07434082 C23.45917918 -0.07964516 25.45655124 -0.08495564 27.45392042 -0.09120798 C33.73384892 -0.11043786 40.01364449 -0.11332737 46.29359436 -0.10656738 C52.76829508 -0.09992593 59.2424262 -0.12279528 65.71701139 -0.15988111 C71.27979022 -0.19058592 76.84238588 -0.20193737 82.40524775 -0.1980443 C85.72605376 -0.1959776 89.04631737 -0.20367776 92.36706352 -0.22593689 C96.07090012 -0.24803151 99.77335688 -0.23847095 103.47718811 -0.2208252 C105.12393021 -0.24072006 105.12393021 -0.24072006 106.80393982 -0.26101685 C114.1992791 -0.17900892 114.1992791 -0.17900892 118.21304321 2.70629883 C119.9969635 5.39440918 119.9969635 5.39440918 120.0594635 9.01940918 C118.87835751 12.77115761 118.29207644 13.46730029 114.9969635 15.39440918 C112.64465427 15.77751923 112.64465427 15.77751923 109.993927 15.78881836 C108.98595566 15.80016815 107.97798431 15.81151794 106.93946838 15.82321167 C105.28968994 15.81881577 105.28968994 15.81881577 103.60658264 15.81433105 C101.86211098 15.82703537 101.86211098 15.82703537 100.08239746 15.83999634 C96.23219412 15.86342467 92.38238903 15.86438708 88.53211975 15.86315918 C86.53474782 15.86846352 84.53737576 15.873774 82.54000658 15.88002634 C76.26007808 15.89925622 69.98028251 15.90214573 63.70033264 15.89538574 C57.22563192 15.88874429 50.7515008 15.91161364 44.27691561 15.94869947 C38.71413678 15.97940428 33.15154112 15.99075573 27.58867925 15.98686266 C24.26787324 15.98479595 20.94760964 15.99249612 17.62686348 16.01475525 C13.92302688 16.03684987 10.22057012 16.02728931 6.51673889 16.00964355 C5.41891083 16.0229068 4.32108276 16.03617004 3.18998718 16.04983521 C-4.2053521 15.96782728 -4.2053521 15.96782728 -8.21911621 13.08251953 C-10.0030365 10.39440918 -10.0030365 10.39440918 -10.0655365 6.76940918 C-8.35610851 1.33946145 -5.51523011 0.02350952 0 0 Z " fill="#1A75C1" transform="translate(326.00303649902344,37.6055908203125)"/>
<path d="M0 0 C1.16312714 -0.0087616 2.32625427 -0.01752319 3.52462769 -0.02655029 C7.36966242 -0.04855811 11.21354731 -0.03398492 15.05859375 -0.01708984 C17.72991365 -0.02045755 20.40119861 -0.02530207 23.07250977 -0.03158569 C28.67118794 -0.04067526 34.26953604 -0.02871298 39.86816406 -0.00488281 C46.33554187 0.02232771 52.80213153 0.01351301 59.26949024 -0.01401484 C64.8280781 -0.0367251 70.38642906 -0.03989681 75.94504833 -0.02682149 C79.26243877 -0.01903723 82.57937875 -0.01992741 85.89675903 -0.03450394 C89.59577868 -0.04719007 93.29328099 -0.0278631 96.9921875 0 C98.08844452 -0.01012115 99.18470154 -0.02024231 100.31417847 -0.03067017 C107.69684138 0.07245508 107.69684138 0.07245508 111.71508789 2.96084595 C113.49609375 5.64697266 113.49609375 5.64697266 113.49609375 9.27197266 C112.50883246 12.60397952 112.17228296 13.63404813 109.49609375 15.64697266 C107.24842167 16.02449608 107.24842167 16.02449608 104.56861877 16.02792358 C103.04393478 16.04061279 103.04393478 16.04061279 101.4884491 16.05355835 C100.37407974 16.04748566 99.25971039 16.04141296 98.11157227 16.03515625 C96.93737732 16.04041321 95.76318237 16.04567017 94.55340576 16.05108643 C91.33221837 16.06203824 88.11139996 16.05945622 84.89021802 16.04994917 C81.51949105 16.04235705 78.14878884 16.04939709 74.77806091 16.05410767 C69.11623709 16.0595673 63.45453062 16.05236904 57.79272461 16.03808594 C51.24828888 16.02176679 44.70413365 16.02704156 38.15970474 16.04356515 C32.54092019 16.0571836 26.92222003 16.05909772 21.3034243 16.05124915 C17.94757773 16.04657355 14.59186294 16.04594438 11.23602486 16.05585861 C7.49382584 16.06346055 3.75216836 16.05188521 0.01000977 16.03515625 C-1.65850792 16.04426529 -1.65850792 16.04426529 -3.36073303 16.05355835 C-4.38000885 16.04509888 -5.39928467 16.0366394 -6.44944763 16.02792358 C-7.33415961 16.02679251 -8.21887159 16.02566143 -9.13039303 16.02449608 C-12.04095374 15.5615516 -13.392459 14.68197788 -15.50390625 12.64697266 C-16.56640625 9.27197266 -16.56640625 9.27197266 -16.50390625 5.64697266 C-12.25837452 -0.74215771 -6.97615751 -0.06440713 0 0 Z " fill="#1A75C1" transform="translate(82.50390625,37.35302734375)"/>
<path d="M0 0 C1.00797134 -0.01134979 2.01594269 -0.02269958 3.05445862 -0.03439331 C4.15431091 -0.03146271 5.25416321 -0.0285321 6.38734436 -0.0255127 C7.55032547 -0.03398224 8.71330658 -0.04245178 9.91152954 -0.05117798 C13.76173288 -0.07460631 17.61153798 -0.07556872 21.46180725 -0.07434082 C23.45917918 -0.07964516 25.45655124 -0.08495564 27.45392042 -0.09120798 C33.73384892 -0.11043786 40.01364449 -0.11332737 46.29359436 -0.10656738 C52.76829508 -0.09992593 59.2424262 -0.12279528 65.71701139 -0.15988111 C71.27979022 -0.19058592 76.84238588 -0.20193737 82.40524775 -0.1980443 C85.72605376 -0.1959776 89.04631737 -0.20367776 92.36706352 -0.22593689 C96.07090012 -0.24803151 99.77335688 -0.23847095 103.47718811 -0.2208252 C105.12393021 -0.24072006 105.12393021 -0.24072006 106.80393982 -0.26101685 C114.23176684 -0.17864866 114.23176684 -0.17864866 118.17788696 2.77661133 C119.9969635 5.39440918 119.9969635 5.39440918 120.6219635 7.89440918 C119.65957453 11.74396505 118.18090631 13.00721597 114.9969635 15.39440918 C111.16839426 16.14941802 107.38496896 16.07731378 103.49305725 16.04138184 C102.32993011 16.05014343 101.16680298 16.05890503 99.96842957 16.06793213 C96.12339483 16.08993995 92.27950994 16.07536676 88.4344635 16.05847168 C85.7631436 16.06183938 83.09185864 16.06668391 80.42054749 16.07296753 C74.82186931 16.0820571 69.22352122 16.07009481 63.62489319 16.04626465 C57.15751538 16.01905413 50.69092572 16.02786882 44.22356701 16.05539668 C38.66497915 16.07810693 33.10662819 16.08127865 27.54800892 16.06820333 C24.23061848 16.06041906 20.9136785 16.06130925 17.59629822 16.07588577 C13.89727857 16.0885719 10.19977626 16.06924494 6.50086975 16.04138184 C5.40461273 16.05150299 4.30835571 16.06162415 3.17887878 16.072052 C-4.20477322 15.96891294 -4.20477322 15.96891294 -8.21812439 13.08053589 C-10.0030365 10.39440918 -10.0030365 10.39440918 -10.0655365 6.76940918 C-8.35610851 1.33946145 -5.51523011 0.02350952 0 0 Z " fill="#1A75C1" transform="translate(76.00303649902344,64.6055908203125)"/>
<path d="M0 0 C1.02624481 -0.0112793 2.05248962 -0.02255859 3.10983276 -0.03417969 C4.22995758 -0.02608276 5.3500824 -0.01798584 6.50415039 -0.00964355 C8.28029221 -0.02015747 8.28029221 -0.02015747 10.09231567 -0.03088379 C13.33626653 -0.04547077 16.57956437 -0.04205452 19.8235054 -0.02936745 C23.21959039 -0.01923426 26.61563203 -0.028634 30.01171875 -0.03491211 C35.71467919 -0.04218764 41.41743236 -0.0326035 47.12036133 -0.0135498 C53.7120382 0.00821903 60.30322018 0.00116757 66.89488506 -0.02085543 C72.55617093 -0.03901233 78.21730789 -0.04156642 83.87861347 -0.03110075 C87.25907312 -0.0248673 90.63930021 -0.02402577 94.01974487 -0.0372467 C97.78832671 -0.04738208 101.55595244 -0.03195135 105.32446289 -0.00964355 C106.44458771 -0.01774048 107.56471252 -0.0258374 108.71878052 -0.03417969 C110.25814774 -0.01726074 110.25814774 -0.01726074 111.82861328 0 C113.16479454 0.00226215 113.16479454 0.00226215 114.52796936 0.00457001 C117.72634061 0.67922181 118.94786806 1.94078329 120.91430664 4.50793457 C120.85186132 8.06731762 120.67194112 10.47479664 118.53930664 13.38293457 C115.47819357 15.5021667 112.73664572 15.63459381 109.13868713 15.64164734 C107.66448807 15.64804482 107.66448807 15.64804482 106.1605072 15.65457153 C105.0835408 15.65411835 104.0065744 15.65366516 102.89697266 15.65319824 C101.19420166 15.65823616 101.19420166 15.65823616 99.45703125 15.66337585 C95.69408075 15.67289657 91.93117469 15.67482948 88.16821289 15.67590332 C85.558914 15.67911491 82.94961528 15.6824789 80.34031677 15.68598938 C74.86684885 15.69238538 69.39339303 15.69387174 63.91992188 15.6932373 C57.59367261 15.69263639 51.26750859 15.70319134 44.9412809 15.71898097 C38.85494415 15.73363054 32.76864832 15.73722544 26.68229485 15.73662758 C24.09267771 15.73780999 21.50305998 15.74224629 18.91345406 15.74995995 C15.29590854 15.75972709 11.67858402 15.75689474 8.06103516 15.75085449 C6.4486219 15.75928375 6.4486219 15.75928375 4.80363464 15.7678833 C3.32520584 15.76159157 3.32520584 15.76159157 1.81690979 15.75517273 C0.53408788 15.75598988 0.53408788 15.75598988 -0.77464962 15.75682354 C-3.35129158 15.47933084 -4.91185724 14.90893382 -7.08569336 13.50793457 C-9.41318681 10.0166944 -9.58868652 8.61571206 -9.08569336 4.50793457 C-6.27920347 0.95427014 -4.49394989 0.00760825 0 0 Z " fill="#1B75C2" transform="translate(325.085693359375,91.4920654296875)"/>
<path d="M0 0 C1.02624481 -0.0112793 2.05248962 -0.02255859 3.10983276 -0.03417969 C4.22995758 -0.02608276 5.3500824 -0.01798584 6.50415039 -0.00964355 C8.28029221 -0.02015747 8.28029221 -0.02015747 10.09231567 -0.03088379 C13.33626653 -0.04547077 16.57956437 -0.04205452 19.8235054 -0.02936745 C23.21959039 -0.01923426 26.61563203 -0.028634 30.01171875 -0.03491211 C35.71467919 -0.04218764 41.41743236 -0.0326035 47.12036133 -0.0135498 C53.7120382 0.00821903 60.30322018 0.00116757 66.89488506 -0.02085543 C72.55617093 -0.03901233 78.21730789 -0.04156642 83.87861347 -0.03110075 C87.25907312 -0.0248673 90.63930021 -0.02402577 94.01974487 -0.0372467 C97.78832671 -0.04738208 101.55595244 -0.03195135 105.32446289 -0.00964355 C106.44458771 -0.01774048 107.56471252 -0.0258374 108.71878052 -0.03417969 C110.25814774 -0.01726074 110.25814774 -0.01726074 111.82861328 0 C113.16479454 0.00226215 113.16479454 0.00226215 114.52796936 0.00457001 C117.70938812 0.67564592 118.91603014 1.99374792 120.91430664 4.50793457 C121.41430664 7.50793457 121.41430664 7.50793457 120.91430664 10.50793457 C118.68224233 13.35574076 117.36437666 14.35791123 113.91430664 15.50793457 C112.33953064 15.60345334 110.76104059 15.64283025 109.18338013 15.64837646 C107.72397003 15.65694168 107.72397003 15.65694168 106.2350769 15.66567993 C105.16903229 15.66679779 104.10298767 15.66791565 103.00463867 15.66906738 C101.31890747 15.67651474 101.31890747 15.67651474 99.59912109 15.68411255 C95.8734476 15.69874344 92.14781667 15.70553738 88.42211914 15.71105957 C85.8376363 15.7168098 83.25315347 15.72256755 80.66867065 15.72833252 C75.93978975 15.73750067 71.21092592 15.74380022 66.48203766 15.74682927 C59.52492992 15.7513103 52.56801863 15.76886191 45.61097062 15.79782987 C39.58229729 15.82205978 33.55371685 15.82977397 27.52499008 15.83150482 C24.9613119 15.83453553 22.39763463 15.84257802 19.83398819 15.85569 C16.25009454 15.87271309 12.66668116 15.87087922 9.08276367 15.86437988 C8.02076752 15.87359467 6.95877136 15.88280945 5.86459351 15.89230347 C-3.22923818 15.84054995 -3.22923818 15.84054995 -7.08569336 12.50793457 C-9.25120452 9.25966783 -9.63726289 8.276993 -9.08569336 4.50793457 C-6.25442522 0.97477019 -4.50047482 0.0076193 0 0 Z " fill="#1B75C2" transform="translate(75.085693359375,91.4920654296875)"/>
<path d="M0 0 C3.89220872 2.97537734 6.22521359 6.74595328 7.7578125 11.34375 C8.54126935 17.85543238 7.57677388 22.96195211 3.7578125 28.34375 C-0.00517701 32.40571676 -4.30622701 35.21554212 -9.92578125 35.4609375 C-17.449271 34.79929727 -21.94465921 33.06177032 -27.0546875 27.34375 C-30.80059878 22.20650025 -31.07387635 16.56739911 -30.2421875 10.34375 C-28.14188071 5.23677996 -24.90463921 1.3325011 -20.2421875 -1.65625 C-13.39483258 -3.78974164 -6.27301733 -3.55555638 0 0 Z " fill="#B2B2BA" transform="translate(83.2421875,213.65625)"/>
<path d="M0 0 C5.03311602 2.17879691 8.04281527 5.54831789 10.62890625 10.33203125 C12.48695043 15.90616378 12.43522009 21.27478693 9.94140625 26.64453125 C7.29700866 31.34464428 3.59315988 34.29097924 -1.37109375 36.33203125 C-7.15966574 36.97520592 -12.54019543 37.18209118 -17.87109375 34.70703125 C-23.49463799 29.36466422 -26.446822 25.43269228 -26.68359375 17.51953125 C-26.5841173 11.3610346 -24.85663833 8.02669617 -20.74609375 3.5703125 C-14.64258746 -1.88469625 -7.71574035 -2.17362702 0 0 Z " fill="#B2B2BA" transform="translate(329.37109375,211.66796875)"/>
<path d="M0 0 C1.43352212 0.00015908 2.86704998 0.00585132 4.30053711 0.01586914 C5.43041298 0.01799156 5.43041298 0.01799156 6.58311462 0.02015686 C8.99807646 0.02577163 11.41294687 0.03832656 13.82788086 0.05102539 C15.46134307 0.05603849 17.09480672 0.06060173 18.72827148 0.06469727 C22.74067671 0.07574585 26.75301326 0.09302033 30.76538086 0.11352539 C30.82321126 4.57180465 30.85891941 9.02998819 30.89038086 13.48852539 C30.90713867 14.75954102 30.92389648 16.03055664 30.94116211 17.34008789 C30.95083008 19.15766602 30.95083008 19.15766602 30.96069336 21.01196289 C30.97640381 22.69298096 30.97640381 22.69298096 30.99243164 24.40795898 C30.76538086 27.11352539 30.76538086 27.11352539 28.76538086 29.11352539 C24.50931477 29.55808327 20.23845324 29.52768215 15.96191406 29.5390625 C13.83859056 29.55096535 11.71816905 29.60013511 9.59545898 29.65063477 C8.24716589 29.66009854 6.89885493 29.6673338 5.55053711 29.67211914 C3.70794312 29.69230103 3.70794312 29.69230103 1.828125 29.71289062 C-1.23461914 29.11352539 -1.23461914 29.11352539 -3.13818359 26.92138672 C-4.30715336 23.92777254 -4.59488376 21.83092159 -4.56274414 18.62915039 C-4.55758789 17.61208008 -4.55243164 16.59500977 -4.54711914 15.54711914 C-4.52649414 14.4965332 -4.50586914 13.44594727 -4.48461914 12.36352539 C-4.47946289 11.2974707 -4.47430664 10.23141602 -4.46899414 9.13305664 C-4.37748413 0.15363651 -4.37748413 0.15363651 0 0 Z " fill="#9FA0A7" transform="translate(439.234619140625,482.886474609375)"/>
<path d="M0 0 C4.82380802 -0.0246519 9.64757967 -0.04283693 14.47143555 -0.05493164 C16.11369464 -0.05997174 17.75594923 -0.06680378 19.39819336 -0.07543945 C21.75375479 -0.08751926 24.10925709 -0.09323139 26.46484375 -0.09765625 C27.20339096 -0.10281754 27.94193817 -0.10797882 28.7028656 -0.11329651 C30.46898088 -0.1134925 32.23497146 -0.06194719 34 0 C36.46576563 2.46576563 35.23398821 8.93956186 35.25 12.25 C35.270625 13.30058594 35.29125 14.35117187 35.3125 15.43359375 C35.32023437 16.95919922 35.32023437 16.95919922 35.328125 18.515625 C35.34214355 19.91216309 35.34214355 19.91216309 35.35644531 21.33691406 C34.90913555 24.67886944 34.21972432 26.44377265 32 29 C28.93725586 29.59936523 28.93725586 29.59936523 25.21484375 29.55859375 C24.55795059 29.55626236 23.90105743 29.55393097 23.22425842 29.55152893 C21.83809388 29.54179933 20.45196868 29.52002914 19.06616211 29.48706055 C16.94129822 29.43758843 14.81874748 29.42557777 12.69335938 29.41992188 C2.31137031 29.31137031 2.31137031 29.31137031 0 27 C-0.22705078 24.29443359 -0.22705078 24.29443359 -0.1953125 20.8984375 C-0.18886719 19.68671875 -0.18242188 18.475 -0.17578125 17.2265625 C-0.15902344 15.95554687 -0.14226563 14.68453125 -0.125 13.375 C-0.11146484 11.456875 -0.11146484 11.456875 -0.09765625 9.5 C-0.07402303 6.33314833 -0.04107629 3.16666576 0 0 Z " fill="#A0A1A7" transform="translate(42,483)"/>
<path d="M0 0 C11.22 0 22.44 0 34 0 C34.04125 4.41375 34.0825 8.8275 34.125 13.375 C34.14320801 14.76638184 34.16141602 16.15776367 34.18017578 17.59130859 C34.1851709 18.68266113 34.19016602 19.77401367 34.1953125 20.8984375 C34.21102295 22.57945557 34.21102295 22.57945557 34.22705078 24.29443359 C34 27 34 27 32 29 C29.05078125 29.25878906 29.05078125 29.25878906 25.3125 29.265625 C24.65419189 29.26753845 23.99588379 29.2694519 23.31762695 29.27142334 C21.9256146 29.2727845 20.53358953 29.26909283 19.14160156 29.26074219 C17.00817411 29.250041 14.87558869 29.26063906 12.7421875 29.2734375 C11.39062314 29.27211589 10.0390593 29.26955347 8.6875 29.265625 C7.45386719 29.26336914 6.22023438 29.26111328 4.94921875 29.25878906 C2 29 2 29 0 27 C-0.22705078 24.29443359 -0.22705078 24.29443359 -0.1953125 20.8984375 C-0.19031738 19.80708496 -0.18532227 18.71573242 -0.18017578 17.59130859 C-0.16196777 16.19992676 -0.14375977 14.80854492 -0.125 13.375 C-0.08375 8.96125 -0.0425 4.5475 0 0 Z " fill="#9FA0A6" transform="translate(292,483)"/>
<path d="M0 0 C11.22 0 22.44 0 34 0 C34.04125 4.41375 34.0825 8.8275 34.125 13.375 C34.14320801 14.76638184 34.16141602 16.15776367 34.18017578 17.59130859 C34.1851709 18.68266113 34.19016602 19.77401367 34.1953125 20.8984375 C34.21102295 22.57945557 34.21102295 22.57945557 34.22705078 24.29443359 C34 27 34 27 32 29 C29.05078125 29.25878906 29.05078125 29.25878906 25.3125 29.265625 C24.65419189 29.26753845 23.99588379 29.2694519 23.31762695 29.27142334 C21.9256146 29.2727845 20.53358953 29.26909283 19.14160156 29.26074219 C17.00817411 29.250041 14.87558869 29.26063906 12.7421875 29.2734375 C11.39062314 29.27211589 10.0390593 29.26955347 8.6875 29.265625 C7.45386719 29.26336914 6.22023437 29.26111328 4.94921875 29.25878906 C2 29 2 29 0 27 C-0.22705078 24.29443359 -0.22705078 24.29443359 -0.1953125 20.8984375 C-0.19031738 19.80708496 -0.18532227 18.71573242 -0.18017578 17.59130859 C-0.16196777 16.19992676 -0.14375977 14.80854492 -0.125 13.375 C-0.08375 8.96125 -0.0425 4.5475 0 0 Z " fill="#9FA0A6" transform="translate(186,483)"/>
<path d="M0 0 C5.46564382 2.16083593 8.15768978 5.01746415 11 10 C12.84152373 15.52457118 12.8169855 20.91005661 10.375 26.25 C7.29205871 31.71868031 2.99639907 35.05426579 -3 37 C-9.56867524 37.28684171 -14.95924197 36.44066779 -20 32 C-21.78223469 30.06134577 -23.38645939 28.08811138 -25 26 C-22.41731564 24.70865782 -20.74894353 25.0738809 -17.875 25.25 C-12.01006922 25.28074669 -8.25229651 24.09221005 -4 20 C0.86674899 14.03030506 0.4419641 7.36606834 0 0 Z " fill="#9EA0A7" transform="translate(79,212)"/>
<path d="M0 0 C5.46564382 2.16083593 8.15768978 5.01746415 11 10 C12.85804418 15.57413253 12.80631384 20.94275568 10.3125 26.3125 C7.66810241 31.01261303 3.96425363 33.95894799 -1 36 C-6.78857199 36.64317467 -12.16910168 36.85005993 -17.5 34.375 C-20.28626876 31.72804468 -22.65057483 29.04043257 -25 26 C-22.41731564 24.70865782 -20.74894353 25.0738809 -17.875 25.25 C-12.01006922 25.28074669 -8.25229651 24.09221005 -4 20 C0.86674899 14.03030506 0.4419641 7.36606834 0 0 Z " fill="#9EA0A7" transform="translate(329,212)"/>
<path d="M0 0 C5.94 0 11.88 0 18 0 C18 9.24 18 18.48 18 28 C15.586875 28.103125 13.17375 28.20625 10.6875 28.3125 C9.55380981 28.38078003 9.55380981 28.38078003 8.3972168 28.45043945 C6.57421875 28.48828125 6.57421875 28.48828125 3 28 C0.26282354 24.49152296 -0.36658483 21.87289467 -0.29296875 17.48046875 C-0.28330078 16.45888672 -0.27363281 15.43730469 -0.26367188 14.38476562 C-0.23853516 13.32966797 -0.21339844 12.27457031 -0.1875 11.1875 C-0.17396484 10.11306641 -0.16042969 9.03863281 -0.14648438 7.93164062 C-0.11122976 5.28754459 -0.05742566 2.64370744 0 0 Z " fill="#B3B3BA" transform="translate(435,484)"/>
<path d="M0 0 C5.61 0 11.22 0 17 0 C17 9.24 17 18.48 17 28 C14.56625 28.04125 12.1325 28.0825 9.625 28.125 C8.86010254 28.14320801 8.09520508 28.16141602 7.30712891 28.18017578 C5.53712725 28.1948117 3.76727545 28.09928514 2 28 C0 26 0 26 -0.22705078 23.38623047 C-0.21657715 22.30744629 -0.20610352 21.22866211 -0.1953125 20.1171875 C-0.18886719 18.95058594 -0.18242187 17.78398437 -0.17578125 16.58203125 C-0.15902344 15.35871094 -0.14226562 14.13539063 -0.125 12.875 C-0.11597656 11.64394531 -0.10695313 10.41289062 -0.09765625 9.14453125 C-0.07402633 6.09627194 -0.03815439 3.04811211 0 0 Z " fill="#B3B3BA" transform="translate(292,484)"/>
<path d="M0 0 C5.61 0 11.22 0 17 0 C17 9.24 17 18.48 17 28 C14.56625 28.04125 12.1325 28.0825 9.625 28.125 C8.86010254 28.14320801 8.09520508 28.16141602 7.30712891 28.18017578 C5.53712725 28.1948117 3.76727545 28.09928514 2 28 C0 26 0 26 -0.22705078 23.38623047 C-0.21657715 22.30744629 -0.20610352 21.22866211 -0.1953125 20.1171875 C-0.18886719 18.95058594 -0.18242187 17.78398437 -0.17578125 16.58203125 C-0.15902344 15.35871094 -0.14226562 14.13539063 -0.125 12.875 C-0.11597656 11.64394531 -0.10695312 10.41289062 -0.09765625 9.14453125 C-0.07402633 6.09627194 -0.03815439 3.04811211 0 0 Z " fill="#B3B3BA" transform="translate(186,484)"/>
<path d="M0 0 C5.61 0 11.22 0 17 0 C17 9.24 17 18.48 17 28 C14.56625 28.04125 12.1325 28.0825 9.625 28.125 C8.86010254 28.14320801 8.09520508 28.16141602 7.30712891 28.18017578 C5.53712725 28.1948117 3.76727545 28.09928514 2 28 C0 26 0 26 -0.22705078 23.38623047 C-0.21657715 22.30744629 -0.20610352 21.22866211 -0.1953125 20.1171875 C-0.18886719 18.95058594 -0.18242188 17.78398437 -0.17578125 16.58203125 C-0.15902344 15.35871094 -0.14226563 14.13539063 -0.125 12.875 C-0.11597656 11.64394531 -0.10695312 10.41289062 -0.09765625 9.14453125 C-0.07402633 6.09627194 -0.03815439 3.04811211 0 0 Z " fill="#B3B3BA" transform="translate(42,484)"/>
</svg>
