<?xml version="1.0" encoding="UTF-8"?>
<svg version="1.1" xmlns="http://www.w3.org/2000/svg" width="500" height="500">
<path d="M0 0 C7.26517661 4.34689559 12.47791233 9.94109853 15.4375 17.9375 C15.4375 18.5975 15.4375 19.2575 15.4375 19.9375 C20.7175 19.9375 25.9975 19.9375 31.4375 19.9375 C31.4375 23.8975 31.4375 27.8575 31.4375 31.9375 C26.8175 31.9375 22.1975 31.9375 17.4375 31.9375 C17.334375 33.236875 17.23125 34.53625 17.125 35.875 C16.589192 40.83910353 15.18819775 45.27998334 13.4375 49.9375 C14.35789062 50.36160156 15.27828125 50.78570312 16.2265625 51.22265625 C20.30584387 53.10865884 24.3726642 55.02060308 28.4375 56.9375 C29.09878906 57.24703613 29.76007813 57.55657227 30.44140625 57.87548828 C32.32084368 58.75967816 34.19239168 59.65877432 36.0625 60.5625 C37.16851562 61.09101563 38.27453125 61.61953125 39.4140625 62.1640625 C51.74477338 69.39680506 56.73529515 83.88849835 60.4375 96.9375 C62.79275739 106.18100871 64.76066291 115.52151601 66.73828125 124.8515625 C66.89200195 125.57583939 67.04572266 126.30011627 67.20410156 127.04634094 C67.8222193 129.97175397 68.42980903 132.89766146 68.99658203 135.83349609 C69.88251354 140.28717263 71.08043952 143.58980553 73.6875 147.3125 C77.30293749 152.69083676 80.39849171 158.21836129 83.4375 163.9375 C84.4058985 165.7380374 85.37674508 167.53724228 86.34765625 169.33642578 C87.71366237 171.86865271 89.0755943 174.40306603 90.4375 176.9375 C92.70807377 176.99148987 94.97901288 177.03028742 97.25 177.0625 C98.51457031 177.08570313 99.77914063 177.10890625 101.08203125 177.1328125 C104.5713024 177.21331918 104.5713024 177.21331918 107.4375 174.9375 C108.4275 174.9375 109.4175 174.9375 110.4375 174.9375 C110.4375 174.2775 110.4375 173.6175 110.4375 172.9375 C115.2726138 171.3257954 120.63401495 171.33633832 125.4375 172.9375 C125.4375 161.3875 125.4375 149.8375 125.4375 137.9375 C130.42875 137.875625 135.42 137.81375 140.5625 137.75 C142.12629395 137.72268799 143.69008789 137.69537598 145.30126953 137.66723633 C146.54505371 137.65974365 147.78883789 137.65225098 149.0703125 137.64453125 C150.97127686 137.62096558 150.97127686 137.62096558 152.91064453 137.59692383 C157.90512697 138.07922363 161.00858719 139.52915902 164.57949829 143.04866028 C166.93767347 146.71517474 167.00119731 149.73287569 166.95507812 153.953125 C166.96559204 155.14186218 166.96559204 155.14186218 166.97631836 156.35461426 C166.99387792 158.96593596 166.98228337 161.57616788 166.96875 164.1875 C166.97144551 166.00683805 166.97532843 167.82617469 166.98034668 169.64550781 C166.98623895 173.45521789 166.9776876 177.26455239 166.95898438 181.07421875 C166.93619488 185.95361223 166.94931943 190.83212562 166.97327423 195.71148682 C166.9877396 199.46735241 166.98312285 203.22300991 166.97276306 206.97888184 C166.97009781 208.7777924 166.97335844 210.57672197 166.98268127 212.37561035 C166.99285922 214.89153978 166.97732961 217.40605101 166.95507812 219.921875 C166.96317505 220.66280396 166.97127197 221.40373291 166.97961426 222.16711426 C166.89983233 227.04492419 165.90648983 229.51861453 162.4375 232.9375 C159.18360012 235.10676659 158.30354043 235.17830049 154.55078125 235.1328125 C153.1440918 235.12314453 153.1440918 235.12314453 151.70898438 235.11328125 C150.24428711 235.08814453 150.24428711 235.08814453 148.75 235.0625 C147.76193359 235.05347656 146.77386719 235.04445313 145.75585938 235.03515625 C143.31616235 235.0115843 140.87695303 234.97868022 138.4375 234.9375 C138.45844727 236.19820312 138.47939453 237.45890625 138.50097656 238.7578125 C138.57370087 243.46163451 138.61941736 248.1654074 138.65722656 252.86962891 C138.67726836 254.90063857 138.70450947 256.93159106 138.73925781 258.96240234 C138.78810414 261.89174556 138.81054343 264.820322 138.828125 267.75 C138.84877014 268.64928223 138.86941528 269.54856445 138.89068604 270.47509766 C138.89345032 278.34629239 136.39884715 284.4121877 131.0859375 290.3046875 C122.98544932 298.32839381 115.4010464 302.76317087 104.4375 305.9375 C102.89835938 306.43443359 102.89835938 306.43443359 101.328125 306.94140625 C90.38674676 309.97673687 79.3808153 310.2020621 68.125 310.0625 C66.69076156 310.05243517 65.25651617 310.0433156 63.82226562 310.03515625 C60.36052885 310.01345449 56.89906148 309.97912455 53.4375 309.9375 C52.30273833 314.4756481 52.30273833 314.4756481 51.16943359 319.01416016 C50.1750248 322.9983191 49.17410806 326.98071229 48.1640625 330.9609375 C45.72840371 340.58556951 43.4190124 350.20714641 41.4375 359.9375 C33.46336207 360.06883874 33.46336207 360.06883874 29.4375 357.9375 C29.1075 357.2775 28.7775 356.6175 28.4375 355.9375 C28.7675 355.2775 29.0975 354.6175 29.4375 353.9375 C0.3975 353.9375 -28.6425 353.9375 -58.5625 353.9375 C-58.2325 354.9275 -57.9025 355.9175 -57.5625 356.9375 C-62.31945142 359.22083668 -65.22240614 360.01387798 -70.5625 359.9375 C-77.4412638 330.61865429 -77.4412638 330.61865429 -80 319.25 C-80.16338867 318.53408691 -80.32677734 317.81817383 -80.49511719 317.08056641 C-81.11695171 314.29062063 -81.5625 311.80764922 -81.5625 308.9375 C-82.16545898 309.00751221 -82.76841797 309.07752441 -83.38964844 309.1496582 C-105.67106202 311.57930328 -134.16533022 311.59645491 -152.82421875 297.19140625 C-159.21382356 291.77344383 -167.00333808 284.70864654 -167.73661804 275.82902527 C-167.79375713 273.23137912 -167.78713063 270.64108388 -167.7578125 268.04296875 C-167.7549826 267.09561356 -167.75215271 266.14825836 -167.74923706 265.17219543 C-167.73807187 262.15633334 -167.71297389 259.14077184 -167.6875 256.125 C-167.67746547 254.07617617 -167.66834045 252.02734768 -167.66015625 249.97851562 C-167.63814449 244.96472852 -167.60363971 239.95116517 -167.5625 234.9375 C-168.17246826 234.95844727 -168.78243652 234.97939453 -169.41088867 235.00097656 C-172.19042294 235.08442861 -174.9696932 235.13625011 -177.75 235.1875 C-178.70970703 235.22101563 -179.66941406 235.25453125 -180.65820312 235.2890625 C-187.78461373 235.38769794 -187.78461373 235.38769794 -191.61328125 233.171875 C-195.50533353 228.71044433 -195.86028984 225.03808194 -195.85302734 219.23486328 C-195.85974457 218.46363129 -195.86646179 217.69239929 -195.87338257 216.89779663 C-195.89236297 214.35106951 -195.89628677 211.80460593 -195.8984375 209.2578125 C-195.90486544 207.48428235 -195.9115938 205.71075326 -195.91860962 203.93722534 C-195.93058251 200.22000673 -195.93429044 196.50288106 -195.93310547 192.78564453 C-195.93290229 188.02856797 -195.9602033 183.27208888 -195.99464989 178.51515388 C-196.01691638 174.85193153 -196.02094309 171.18885301 -196.01988602 167.52556992 C-196.0222424 165.77212337 -196.03106804 164.01867289 -196.04655075 162.26529312 C-196.06620599 159.809415 -196.06037528 157.35482585 -196.04833984 154.89892578 C-196.05957886 154.17872253 -196.07081787 153.45851929 -196.08239746 152.7164917 C-196.01976837 147.67270672 -194.73814609 144.81592966 -191.5625 140.9375 C-187.07184794 137.94857921 -183.52519799 137.57845829 -178.1953125 137.64453125 C-176.95152832 137.65202393 -175.70774414 137.6595166 -174.42626953 137.66723633 C-172.08057861 137.70820435 -172.08057861 137.70820435 -169.6875 137.75 C-164.69625 137.811875 -159.705 137.87375 -154.5625 137.9375 C-154.5625 149.4875 -154.5625 161.0375 -154.5625 172.9375 C-151.2625 172.6075 -147.9625 172.2775 -144.5625 171.9375 C-137.50367647 173.99632353 -137.50367647 173.99632353 -134.5625 176.9375 C-131.98185871 177.08247985 -129.51306116 177.12427545 -126.9375 177.0625 C-126.23109375 177.05347656 -125.5246875 177.04445312 -124.796875 177.03515625 C-123.05193902 177.01157603 -121.30717705 176.97570461 -119.5625 176.9375 C-119.02677368 175.90363159 -119.02677368 175.90363159 -118.48022461 174.84887695 C-117.41932236 172.8024483 -116.35747576 170.75650907 -115.29492188 168.7109375 C-114.09055965 166.38870696 -112.89008471 164.06445655 -111.69335938 161.73828125 C-106.59431224 151.86270033 -106.59431224 151.86270033 -104.31640625 148.26171875 C-98.38364136 138.70851382 -97.1003176 128.07414935 -95.15527344 117.17089844 C-92.81017506 104.37910151 -90.32755545 91.67759636 -84.5625 79.9375 C-84.23507813 79.19628906 -83.90765625 78.45507812 -83.5703125 77.69140625 C-76.96930767 63.26193701 -63.80518955 59.31905489 -49.97387695 53.65258789 C-49.187146 53.32895264 -48.40041504 53.00531738 -47.58984375 52.671875 C-46.88593506 52.38538086 -46.18202637 52.09888672 -45.45678711 51.80371094 C-43.30485326 50.88016756 -43.30485326 50.88016756 -40.5625 48.9375 C-40.86994141 48.03257813 -40.86994141 48.03257813 -41.18359375 47.109375 C-41.45300781 46.31015625 -41.72242188 45.5109375 -42 44.6875 C-42.26683594 43.89859375 -42.53367188 43.1096875 -42.80859375 42.296875 C-46.02731457 32.2237798 -44.51381756 23.6317263 -40.5625 13.9375 C-32.64251188 -0.44969735 -15.19683836 -7.1074444 0 0 Z M-31.5625 35.9375 C-28.81271112 43.27027035 -27.18427723 47.52298185 -20.75 51.8125 C-15.14628129 53.79028307 -11.31110815 53.66106199 -5.9375 51.4375 C-1.877969 48.82115089 1.10598422 45.13892273 3.4375 40.9375 C3.7675 39.2875 4.0975 37.6375 4.4375 35.9375 C-7.4425 35.9375 -19.3225 35.9375 -31.5625 35.9375 Z M-60.5625 149.9375 C-61.15417969 151.06027344 -61.74585938 152.18304688 -62.35546875 153.33984375 C-63.15347556 154.85165239 -63.95166433 156.363365 -64.75 157.875 C-65.15984131 158.65174072 -65.56968262 159.42848145 -65.99194336 160.22875977 C-68.51072076 164.98988161 -71.07815195 169.71358804 -73.78515625 174.37109375 C-74.710677 175.94464067 -74.710677 175.94464067 -74.5625 177.9375 C-72.25006208 177.96435412 -69.9375373 177.98382841 -67.625 178 C-66.33722656 178.01160156 -65.04945313 178.02320313 -63.72265625 178.03515625 C-60.69951597 178.30282549 -60.69951597 178.30282549 -59.5625 176.9375 C-59.47491997 174.93785018 -59.45553424 172.9351389 -59.46484375 170.93359375 C-59.46967773 169.11118164 -59.46967773 169.11118164 -59.47460938 167.25195312 C-59.48717773 165.33286133 -59.48717773 165.33286133 -59.5 163.375 C-59.50451172 162.09173828 -59.50902344 160.80847656 -59.51367188 159.48632812 C-59.52550455 156.30333978 -59.54198932 153.12044238 -59.5625 149.9375 C-59.8925 149.9375 -60.2225 149.9375 -60.5625 149.9375 Z M31.4375 154.9375 C31.4375 162.5275 31.4375 170.1175 31.4375 177.9375 C35.7275 177.9375 40.0175 177.9375 44.4375 177.9375 C40.61150645 170.16957369 36.5740819 162.54308862 32.4375 154.9375 C32.1075 154.9375 31.7775 154.9375 31.4375 154.9375 Z M-103.5625 173.9375 C-104.93466028 176.32451843 -106.28493979 178.72005054 -107.625 181.125 C-108.01494141 181.79853516 -108.40488281 182.47207031 -108.80664062 183.16601562 C-111.06449013 187.23623223 -111.06449013 187.23623223 -111.41796875 191.8046875 C-110.29128923 194.61366931 -109.30210678 195.6437968 -106.5625 196.9375 C-102.15319642 195.76458181 -100.12786911 193.67657388 -97.375 190.125 C-96.70082031 189.27292969 -96.02664062 188.42085937 -95.33203125 187.54296875 C-93.64330578 185.05647893 -92.5522808 182.76472003 -91.5625 179.9375 C-93.18420379 178.93216333 -94.80997237 177.93338093 -96.4375 176.9375 C-97.34242188 176.380625 -98.24734375 175.82375 -99.1796875 175.25 C-101.40107467 173.77667671 -101.40107467 173.77667671 -103.5625 173.9375 Z M72.4375 173.9375 C69.98338972 175.08687583 69.98338972 175.08687583 67.375 176.75 C66.47652344 177.29269531 65.57804687 177.83539063 64.65234375 178.39453125 C62.3329045 179.74813886 62.3329045 179.74813886 61.4375 181.9375 C62.58468881 184.42610094 62.58468881 184.42610094 64.25 187.0625 C64.79269531 187.97257813 65.33539063 188.88265625 65.89453125 189.8203125 C66.40371094 190.51898438 66.91289062 191.21765625 67.4375 191.9375 C68.0975 191.9375 68.7575 191.9375 69.4375 191.9375 C69.685 192.576875 69.9325 193.21625 70.1875 193.875 C71.25675227 196.0436865 71.25675227 196.0436865 73.25 196.875 C76.39285453 196.96479584 77.94312917 195.77545745 80.4375 193.9375 C82.65787383 191.2853535 82.65787383 191.2853535 82.27734375 189.13671875 C81.13704598 186.15072971 79.61525923 183.50702252 78 180.75 C77.38253906 179.68394531 76.76507813 178.61789063 76.12890625 177.51953125 C74.69342407 174.85582375 74.69342407 174.85582375 72.4375 173.9375 Z M-153.5625 187.9375 C-157.12437553 201.17008949 -154.94648138 217.91372777 -155.02246094 231.57763672 C-155.04481965 235.23826387 -155.08674504 238.89788495 -155.14550781 242.55810547 C-155.21670908 247.00476479 -155.25330323 251.45047079 -155.26557922 255.89767075 C-155.27594323 257.58257601 -155.29828034 259.26745442 -155.33317566 260.95203018 C-155.82785686 271.60764898 -155.82785686 271.60764898 -151.20507812 280.83154297 C-150.01914816 281.89911943 -148.80608776 282.93768059 -147.5625 283.9375 C-146.55571305 284.99357116 -145.5546081 286.05512722 -144.5625 287.125 C-129.16112164 299.82681092 -103.07001804 297.84316789 -84.53125 296.6015625 C-83.64759766 296.54307129 -82.76394531 296.48458008 -81.85351562 296.42431641 C-79.23227469 295.86733064 -78.31063564 295.16690246 -76.625 293.125 C-71.66870294 284.30781936 -69.35402699 273.94798835 -68.5625 263.9375 C-70.39646188 262.10353812 -73.08904574 262.59447221 -75.5625 262.5 C-81.60794501 262.51990816 -84.96519745 263.69895249 -89.66015625 267.4296875 C-91.58914726 268.95862082 -93.25373865 270.07810191 -95.5625 270.9375 C-98.5625 269.625 -98.5625 269.625 -101.5625 267.9375 C-108.95185159 265.69646714 -114.99682339 266.32676561 -121.875 269.8125 C-122.84050781 270.34617187 -123.80601562 270.87984375 -124.80078125 271.4296875 C-127.34242003 272.81734319 -129.85468363 273.92145233 -132.5625 274.9375 C-132.66046875 274.3290625 -132.7584375 273.720625 -132.859375 273.09375 C-133.80612657 267.543827 -135.00286815 262.13232325 -136.4375 256.6875 C-141.20211779 237.95285981 -146.84088405 215.06133283 -141.5625 195.9375 C-141.23224828 193.11682547 -141.33343759 190.82368642 -141.5625 187.9375 C-143.66443164 185.44632177 -144.92590489 185.03066026 -148.125 184.5625 C-151.05907901 185.01389677 -151.73245197 185.6567739 -153.5625 187.9375 Z M113.5625 185.9375 C111.77801669 189.10991478 112.06439995 192.37869949 112.4375 195.9375 C112.9325 197.4225 112.9325 197.4225 113.4375 198.9375 C115.29310929 221.9376597 111.23246422 244.16316261 104.9621582 266.20507812 C103.9882875 269.63184891 103.4375 272.33818222 103.4375 275.9375 C102.46167969 275.37160156 101.48585938 274.80570312 100.48046875 274.22265625 C99.19539475 273.48162818 97.91023396 272.74075061 96.625 272 C95.98240234 271.62681641 95.33980469 271.25363281 94.67773438 270.86914062 C88.33696849 267.2223789 83.66419564 266.30583327 76.4375 266.9375 C73.6201004 267.71984435 71.13718467 268.77384281 68.4375 269.9375 C66.42578125 270.7109375 66.42578125 270.7109375 64.4375 270.9375 C62.69140625 269.79296875 62.69140625 269.79296875 61 268.125 C57.41679627 264.62493325 54.38430458 263.05963329 49.32421875 262.7421875 C48.26847656 262.76539063 47.21273437 262.78859375 46.125 262.8125 C44.52205078 262.83957031 44.52205078 262.83957031 42.88671875 262.8671875 C42.07847656 262.89039063 41.27023437 262.91359375 40.4375 262.9375 C37.91820673 267.97608653 41.69171396 277.58705137 43.390625 282.94140625 C44.31094111 285.33349773 45.32276696 287.63056213 46.4375 289.9375 C46.97375 291.113125 47.51 292.28875 48.0625 293.5 C52.51177167 298.06635777 60.03024243 296.96690985 66.13671875 297.140625 C77.62525805 297.28981447 88.31610131 297.09305257 99.4375 293.9375 C101.25314453 293.46183594 101.25314453 293.46183594 103.10546875 292.9765625 C113.12087783 289.94939705 119.64450696 284.62698956 125.4375 275.9375 C125.73643278 272.78651361 125.73643278 272.78651361 125.68041992 269.13378906 C125.68326744 268.10125755 125.68326744 268.10125755 125.68617249 267.04786682 C125.6898832 264.76617107 125.67915904 262.48479266 125.66796875 260.203125 C125.66677534 258.60666949 125.66632413 257.01021326 125.6665802 255.41375732 C125.66501401 252.0578576 125.65672388 248.70206432 125.64331055 245.34619141 C125.62648534 241.08679397 125.62249162 236.82751529 125.62325573 232.56808853 C125.62298067 229.26309109 125.61744373 225.9581186 125.61025429 222.65312958 C125.60711266 221.08577411 125.605111 219.51841587 125.60436058 217.95105743 C125.59654276 210.14348998 125.50417138 202.34087789 125.11450195 194.54199219 C125.0580098 193.34096863 125.00151764 192.13994507 124.9433136 190.90252686 C124.66447376 187.96292926 124.66447376 187.96292926 123.08268738 186.04815674 C120.01280756 183.97569816 116.75914011 184.23262527 113.5625 185.9375 Z M-127.5625 189.9375 C-129.8503305 193.36924575 -130.17553172 195.56052897 -130.75 199.625 C-131.01876953 201.39423828 -131.01876953 201.39423828 -131.29296875 203.19921875 C-132.40892775 216.05117455 -129.92458127 228.87998573 -127.5 241.4375 C-127.21461238 242.95426132 -126.93010346 244.47118824 -126.64648438 245.98828125 C-125.96188099 249.63997462 -125.26562786 253.28932223 -124.5625 256.9375 C-123.46325195 256.69410889 -123.46325195 256.69410889 -122.34179688 256.44580078 C-119.8470067 255.98953294 -117.621512 255.80855089 -115.09375 255.8046875 C-114.27519531 255.80339844 -113.45664063 255.80210937 -112.61328125 255.80078125 C-111.35064453 255.80658203 -111.35064453 255.80658203 -110.0625 255.8125 C-108.79986328 255.80669922 -108.79986328 255.80669922 -107.51171875 255.80078125 C-103.35580424 255.807326 -99.64312352 256.11194033 -95.5625 256.9375 C-93.55915314 255.62288601 -93.55915314 255.62288601 -91.5625 253.9375 C-86.3525301 251.68974719 -81.62656488 251.66779375 -76.0625 251.75 C-75.23363281 251.75064453 -74.40476563 251.75128906 -73.55078125 251.75195312 C-70.04778419 251.77701431 -66.86687399 251.87457835 -63.42578125 252.5859375 C-59.55338178 253.06140265 -56.90103618 252.06468146 -53.25 250.75 C-52.01636719 250.32332031 -50.78273438 249.89664063 -49.51171875 249.45703125 C-46.52986451 248.27397404 -46.52986451 248.27397404 -45.62890625 246.19140625 C-45.53889862 243.13644131 -45.67049684 240.11556797 -45.8125 237.0625 C-46.03600444 227.47309504 -43.47622671 218.62014203 -37.5625 210.9375 C-37.5625 210.2775 -37.5625 209.6175 -37.5625 208.9375 C-36.2425 208.2775 -34.9225 207.6175 -33.5625 206.9375 C-33.5625 206.2775 -33.5625 205.6175 -33.5625 204.9375 C-31.5825 204.2775 -29.6025 203.6175 -27.5625 202.9375 C-27.5625 202.6075 -27.5625 202.2775 -27.5625 201.9375 C-34.1625 201.9375 -40.7625 201.9375 -47.5625 201.9375 C-47.5625 203.5875 -47.5625 205.2375 -47.5625 206.9375 C-51.5225 206.6075 -55.4825 206.2775 -59.5625 205.9375 C-59.8925 200.6575 -60.2225 195.3775 -60.5625 189.9375 C-73.46861335 188.67302915 -73.46861335 188.67302915 -85.42236328 192.19628906 C-87.7923775 194.79283085 -89.34591346 197.70181355 -90.9453125 200.8125 C-93.2663401 205.29757749 -94.79624453 206.37614045 -99.5625 207.9375 C-107.25308039 208.86082005 -112.41023267 207.90340524 -118.75 203.375 C-121.13548033 200.16694024 -121.7946966 196.95335346 -122.65625 193.08203125 C-122.9553125 192.37433594 -123.254375 191.66664063 -123.5625 190.9375 C-125.58302502 190.0614405 -125.58302502 190.0614405 -127.5625 189.9375 Z M31.4375 190.9375 C31.4375 196.2175 31.4375 201.4975 31.4375 206.9375 C27.1475 206.9375 22.8575 206.9375 18.4375 206.9375 C18.4375 205.2875 18.4375 203.6375 18.4375 201.9375 C12.4975 201.9375 6.5575 201.9375 0.4375 201.9375 C2.9125 203.9175 2.9125 203.9175 5.4375 205.9375 C13.52484452 213.78945403 17.54320571 222.69284886 18.4375 233.9375 C18.30933776 238.29976303 17.94729905 242.60420809 17.4375 246.9375 C19.3526579 247.75354999 21.26968834 248.56520632 23.1875 249.375 C24.78851563 250.05369141 24.78851563 250.05369141 26.421875 250.74609375 C31.48580436 252.74673942 34.15013244 252.98084796 39.5625 251.9375 C49.17970934 250.37940463 55.67970461 250.93035631 64.11328125 255.9765625 C67.08392244 257.20476037 68.31959959 256.66703659 71.4375 255.9375 C74.624806 255.77457769 77.80916439 255.79791888 81 255.8125 C81.85013672 255.80863281 82.70027344 255.80476563 83.57617188 255.80078125 C84.39794922 255.80207031 85.21972656 255.80335938 86.06640625 255.8046875 C87.1812439 255.80637939 87.1812439 255.80637939 88.31860352 255.80810547 C90.47022621 255.93949849 92.36829354 256.34830421 94.4375 256.9375 C96.04459744 253.24820028 96.9728231 249.74472597 97.69140625 245.7890625 C98.01334961 244.03335938 98.01334961 244.03335938 98.34179688 242.2421875 C98.55900391 241.02789062 98.77621094 239.81359375 99 238.5625 C99.22107422 237.3559375 99.44214844 236.149375 99.66992188 234.90625 C102.44561449 219.64413351 102.78477218 206.2786003 100.4375 190.9375 C98.4575 190.9375 96.4775 190.9375 94.4375 190.9375 C94.045625 192.13375 93.65375 193.33 93.25 194.5625 C91.21697866 199.93005635 88.57048621 203.37677838 83.875 206.8125 C78.7967339 208.474478 73.7285139 208.66385722 68.4375 207.9375 C65.69140625 206.4140625 65.69140625 206.4140625 63.4375 204.9375 C62.7775 204.9375 62.1175 204.9375 61.4375 204.9375 C60.7775 203.2875 60.1175 201.6375 59.4375 199.9375 C58.7775 199.9375 58.1175 199.9375 57.4375 199.9375 C57.169375 199.195 56.90125 198.4525 56.625 197.6875 C55.4497386 194.96584203 54.45730535 193.09887118 52.4375 190.9375 C50.12659272 190.38836421 50.12659272 190.38836421 47.55078125 190.546875 C46.61298828 190.55976563 45.67519531 190.57265625 44.70898438 190.5859375 C43.73251953 190.61945313 42.75605469 190.65296875 41.75 190.6875 C40.76193359 190.70554687 39.77386719 190.72359375 38.75585938 190.7421875 C36.31599314 190.78933467 33.87662481 190.86107833 31.4375 190.9375 Z M-30.5625 221.9375 C-34.25442128 229.32134256 -34.78117918 237.21254202 -33.05859375 245.3046875 C-30.810692 251.90709607 -26.95758695 258.09366867 -20.578125 261.26953125 C-16.50559313 262.61914937 -12.76002191 262.81116262 -8.5625 261.9375 C-1.85898756 258.47650987 2.95672716 253.04153132 5.4375 245.9375 C7.07100924 236.50530147 6.81918305 228.46830821 1.8125 220.1875 C-1.78844996 215.20894691 -5.71177472 211.81419752 -11.79296875 210.4296875 C-20.04395063 209.7764256 -26.27461765 215.26746079 -30.5625 221.9375 Z M-27.5625 271.9375 C-26.30716022 277.7957523 -23.4520797 280.77003642 -18.5625 283.9375 C-15.58330135 285.25458771 -15.58330135 285.25458771 -12.5625 284.9375 C-7.73661671 282.47531465 -4.72919401 279.22185072 -1.5625 274.9375 C-1.5625 274.2775 -1.5625 273.6175 -1.5625 272.9375 C-2.490625 273.1025 -3.41875 273.2675 -4.375 273.4375 C-12.38455408 274.55624338 -19.82096586 274.27456691 -27.5625 271.9375 Z " fill="#0E0E0E" transform="translate(264.5625,71.0625)"/>
<path d="M0 0 C-0.03480469 0.845625 -0.06960937 1.69125 -0.10546875 2.5625 C-0.37444734 13.83398363 1.87174476 21.16375206 9 30 C9.72316406 30.54011719 10.44632813 31.08023437 11.19140625 31.63671875 C11.78824219 32.08660156 12.38507813 32.53648437 13 33 C13 33.66 13 34.32 13 35 C17.71445386 36.84478629 21.69984343 37.26996109 26.75 37.25 C28.06484375 37.25515625 29.3796875 37.2603125 30.734375 37.265625 C34.08372414 37.34791095 34.08372414 37.34791095 36 35 C36.99 35 37.98 35 39 35 C39 34.34 39 33.68 39 33 C40.3303125 31.948125 40.3303125 31.948125 41.6875 30.875 C47.35143822 26.32242554 50.6961089 20.1121333 52 13 C52.14614954 8.99348666 52.11842918 5.00685401 52 1 C55.95043647 -0.31681216 57.67555818 0.61025544 61.5625 2 C62.71878906 2.391875 63.87507813 2.78375 65.06640625 3.1875 C68 5 68 5 69.33203125 8.22265625 C69.99199024 11.95470505 70.57989155 15.6870003 71.125 19.4375 C72.49455045 27.74643449 75.88380992 38.88380992 82 45 C81.52369113 50.34395319 80.50889242 55.30772146 79.125 60.5 C77.32217712 67.42995928 75.92495691 74.38111922 74.65625 81.42578125 C74.12039622 84.34427058 73.5339102 87.23257804 72.875 90.125 C72.13316111 93.4102865 71.51193246 96.67243899 71 100 C70.34 99.34 69.68 98.68 69 98 C69.33 97.34 69.66 96.68 70 96 C40.96 96 11.92 96 -18 96 C-17.67 96.99 -17.34 97.98 -17 99 C-17.99 99.495 -17.99 99.495 -19 100 C-19.19335938 98.87722656 -19.38671875 97.75445312 -19.5859375 96.59765625 C-19.84884843 95.08591838 -20.11187552 93.57420071 -20.375 92.0625 C-20.50132812 91.32708984 -20.62765625 90.59167969 -20.7578125 89.83398438 C-22.07722946 82.28032227 -23.79636713 74.84731861 -25.578125 67.390625 C-26.135684 65.01047927 -26.69297047 62.63026969 -27.25 60.25 C-27.54390625 59.04472656 -27.8378125 57.83945312 -28.140625 56.59765625 C-28.40875 55.43621094 -28.676875 54.27476562 -28.953125 53.078125 C-29.32679199 51.50659668 -29.32679199 51.50659668 -29.70800781 49.90332031 C-30.18670577 45.14355763 -28.04056242 41.93875147 -25.625 38 C-20.99547879 29.77884434 -18.85871094 20.61268135 -17.4921875 11.33984375 C-16.95650407 8.79322172 -16.50698089 7.13302637 -15 5 C-12.28515625 3.515625 -12.28515625 3.515625 -9.0625 2.25 C-8.00160156 1.82203125 -6.94070312 1.3940625 -5.84765625 0.953125 C-3 0 -3 0 0 0 Z " fill="#8ECA52" transform="translate(224,329)"/>
<path d="M0 0 C1.52050781 1.57543945 1.52050781 1.57543945 2.953125 3.61328125 C3.75327026 4.73597412 3.75327026 4.73597412 4.56958008 5.88134766 C5.12411865 6.68362793 5.67865723 7.4859082 6.25 8.3125 C6.82194092 9.12251465 7.39388184 9.9325293 7.9831543 10.76708984 C12.43583491 17.10115828 16.78480431 23.5052876 21 30 C20.35546875 31.03125 19.7109375 32.0625 19.046875 33.125 C16.03950932 39.13973136 16.3266431 45.40172595 16.25 52 C16.20552734 53.87751953 16.20552734 53.87751953 16.16015625 55.79296875 C16.08987212 58.86204241 16.03696808 61.93037452 16 65 C19.63 65 23.26 65 27 65 C27 63.02 27 61.04 27 59 C27.56847656 59.03480469 28.13695312 59.06960937 28.72265625 59.10546875 C34.2007984 59.29752382 38.11570749 58.7773428 43 56 C47.12643206 51.76204275 48.79915686 48.04190531 49.375 42.1875 C49.28578647 37.50378992 47.35744356 33.95713741 45 30 C46.20442708 28.33984375 47.40885417 26.6796875 48.61328125 25.01953125 C49.54669202 23.66016966 50.43091276 22.26585234 51.265625 20.84375 C53.81365793 16.6658942 56.61490476 12.68328566 59.4375 8.6875 C60.01048828 7.85154297 60.58347656 7.01558594 61.17382812 6.15429688 C61.73392578 5.36474609 62.29402344 4.57519531 62.87109375 3.76171875 C63.37568115 3.03944092 63.88026855 2.31716309 64.40014648 1.57299805 C66 0 66 0 70 0 C71.72686666 0.68423018 73.45221202 1.37741972 75.13671875 2.16015625 C76.9213774 2.96456214 78.77436741 3.61185083 80.625 4.25 C88.85009679 8.514865 92.12910921 18.61606842 95 27 C96.7057599 32.68462758 98.04934306 38.45841737 99.36914062 44.24267578 C100.03760638 47.16436783 100.7287034 50.08017066 101.421875 52.99609375 C101.88651035 54.9763062 102.35007718 56.95676971 102.8125 58.9375 C103.03172119 59.86691406 103.25094238 60.79632813 103.47680664 61.75390625 C103.67653076 62.62789062 103.87625488 63.501875 104.08203125 64.40234375 C104.25968018 65.17054443 104.4373291 65.93874512 104.62036133 66.73022461 C105.03953278 69.23635772 105.21308482 71.4649251 105 74 C102.76953125 76.0546875 102.76953125 76.0546875 99.8125 77.875 C98.36810547 78.79925781 98.36810547 78.79925781 96.89453125 79.7421875 C93.66338575 81.14627502 92.29465413 81.0721178 89 80 C86.23204447 67.43623021 86.23204447 67.43623021 85.2734375 61.89453125 C83.47081984 48.40345458 83.47081984 48.40345458 77 37 C73.5 36.66666667 73.5 36.66666667 70 37 C66.98486822 40.01513178 67.6427143 43.45813702 67.5859375 47.5078125 C67.56829346 48.25281006 67.55064941 48.99780762 67.5324707 49.76538086 C67.46934471 52.55169992 67.42319872 55.33838275 67.375 58.125 C67.25125 64.35375 67.1275 70.5825 67 77 C44.56 77 22.12 77 -1 77 C-1.3125 57.625 -1.3125 57.625 -1.38793945 51.51025391 C-1.42021632 49.91566598 -1.45358818 48.32109968 -1.48828125 46.7265625 C-1.49452515 45.89471436 -1.50076904 45.06286621 -1.50720215 44.20581055 C-1.53858165 41.56608381 -1.53858165 41.56608381 -2 38 C-4.87166463 35.74205069 -4.87166463 35.74205069 -8.375 35.6875 C-12.50735032 37.18369581 -12.82047334 37.66876506 -14.6875 41.4375 C-19.14536366 52.68480733 -21.01070725 65.1165933 -23 77 C-26.6182505 78.318017 -28.57715685 77.67521057 -32.0625 76.1875 C-32.91972656 75.83042969 -33.77695313 75.47335938 -34.66015625 75.10546875 C-37 74 -37 74 -40 72 C-38.5956075 64.80192397 -37.15752912 57.61125074 -35.69238281 50.42529297 C-35.25401759 48.25665262 -34.82277424 46.08655012 -34.40136719 43.91455078 C-28.89025365 15.54516582 -28.89025365 15.54516582 -19.66015625 6.77734375 C-16.67931407 4.78573848 -13.68598948 3.20446554 -10.4375 1.6875 C-9.32246094 1.15511719 -8.20742187 0.62273437 -7.05859375 0.07421875 C-3.84562819 -1.05421743 -3.05024438 -1.21337339 0 0 Z " fill="#99EEF9" transform="translate(217,139)"/>
<path d="M0 0 C22.44 0 44.88 0 68 0 C68 7.26 68 14.52 68 22 C45.56 22 23.12 22 0 22 C0 14.74 0 7.48 0 0 Z " fill="#F6D34E" transform="translate(216,227)"/>
<path d="M0 0 C5.61 0 11.22 0 17 0 C17 24.09 17 48.18 17 73 C11.39 73 5.78 73 0 73 C0 48.91 0 24.82 0 0 Z " fill="#7C7C7C" transform="translate(402,221)"/>
<path d="M0 0 C5.61 0 11.22 0 17 0 C17 24.09 17 48.18 17 73 C11.39 73 5.78 73 0 73 C0 48.91 0 24.82 0 0 Z " fill="#7C7C7C" transform="translate(81,221)"/>
<path d="M0 0 C1.32 0.66 2.64 1.32 4 2 C4 2.66 4 3.32 4 4 C4.66 4 5.32 4 6 4 C16.97291994 16.3286475 20.92858485 28.53988336 20.18359375 44.9296875 C19.4296918 53.43113501 16.05357731 61.2175673 11 68 C10.34 68 9.68 68 9 68 C8.773125 68.556875 8.54625 69.11375 8.3125 69.6875 C6.59377841 72.71572375 4.67211603 74.77323664 2 77 C-1.36828935 76.70477145 -2.98876089 75.3529145 -5.25 72.9375 C-5.77078125 72.38964844 -6.2915625 71.84179688 -6.828125 71.27734375 C-7.21484375 70.85582031 -7.6015625 70.43429688 -8 70 C-6.54034225 66.65181599 -4.65203392 64.4301257 -2.125 61.8125 C5.46508381 53.25640553 6.99387796 45.7148214 6.5078125 34.45703125 C5.62882016 24.04384311 -0.32331363 16.62455169 -8 10 C-6.27200079 6.23055056 -4.01169351 3.85724769 -1 1 C-0.67 0.67 -0.34 0.34 0 0 Z " fill="#181818" transform="translate(340,72)"/>
<path d="M0 0 C22.44 0 44.88 0 68 0 C68 5.61 68 11.22 68 17 C67.67 17 67.34 17 67 17 C67 15.35 67 13.7 67 12 C65.72125 12.10699219 64.4425 12.21398437 63.125 12.32421875 C61.41673251 12.44623786 59.70839502 12.56727961 58 12.6875 C57.16082031 12.76033203 56.32164062 12.83316406 55.45703125 12.90820312 C49.41871646 13.30607658 45.56568327 12.32296526 40 10 C37.38234631 9.57515431 37.38234631 9.57515431 35 9.6875 C33.8553125 9.69330078 33.8553125 9.69330078 32.6875 9.69921875 C29.81075844 9.9486047 29.81075844 9.9486047 26.375 11.01171875 C21.26139692 12.35319851 16.25408023 12.21921109 11 12.125 C10.03449219 12.11597656 9.06898438 12.10695313 8.07421875 12.09765625 C5.71587901 12.07430635 3.35807714 12.04156047 1 12 C1 13.65 1 15.3 1 17 C0.67 17 0.34 17 0 17 C0 11.39 0 5.78 0 0 Z " fill="#F5D350" transform="translate(216,261)"/>
<path d="M0 0 C1.54074116 -0.08221346 3.08280654 -0.13973295 4.625 -0.1875 C5.91277344 -0.23970703 5.91277344 -0.23970703 7.2265625 -0.29296875 C10 0 10 0 12.87109375 1.48828125 C18.78913331 4.34755879 26.99704965 4.19062113 33.28515625 2.3203125 C34.86529305 1.5644384 36.43330208 0.78334896 38 0 C41.9375 -0.1875 41.9375 -0.1875 45 0 C45 4.09805494 44.89244664 4.64788586 42.65625 7.72265625 C42.15544922 8.42140869 41.65464844 9.12016113 41.13867188 9.84008789 C40.59791016 10.57348389 40.05714844 11.30687988 39.5 12.0625 C38.95408203 12.8145874 38.40816406 13.5666748 37.84570312 14.34155273 C36.74665678 15.85500686 35.64447554 17.36618978 34.5390625 18.875 C33.18039791 20.75092269 31.86144803 22.64500528 30.5625 24.5625 C29.5415625 26.0475 29.5415625 26.0475 28.5 27.5625 C27.9121875 28.43003906 27.324375 29.29757813 26.71875 30.19140625 C26.1515625 30.78824219 25.584375 31.38507813 25 32 C23.68 32 22.36 32 21 32 C19.09484315 29.82702558 17.49683682 27.74655657 15.875 25.375 C15.40215576 24.70436523 14.92931152 24.03373047 14.44213867 23.34277344 C13.45291373 21.93922119 12.46853777 20.5322402 11.48876953 19.12207031 C10.03986413 17.05682175 8.55756758 15.02130461 7.05859375 12.9921875 C6.59662598 12.3626416 6.1346582 11.7330957 5.65869141 11.08447266 C4.77543018 9.88084102 3.88850028 8.6798912 2.99755859 7.48193359 C0 3.3396525 0 3.3396525 0 0 Z " fill="#9AEFF9" transform="translate(227,132)"/>
<path d="M0 0 C5.65294981 1.8843166 8.71836774 8.03483054 11.875 12.875 C14.42394484 19.95540232 14.78778699 26.82255775 12.01953125 33.86328125 C6.87747278 44.63993253 6.87747278 44.63993253 2 47 C-1.14844588 47 -2.32581015 45.73935188 -4.8125 43.75 C-7 41 -7 41 -7.125 38.5625 C-6 36 -6 36 -3.5 33.1875 C-0.92370072 30.26669558 -0.12225421 27.88932713 0.13671875 24.01953125 C-0.17448793 19.422564 -1.94681181 15.99467774 -5.25 12.875 C-7 11 -7 11 -7.125 8.625 C-5.50023318 4.83387741 -3.03645137 2.77802998 0 0 Z " fill="#1B1B1B" transform="translate(324,87)"/>
<path d="M0 0 C4.68883221 2.11215197 7.32806036 4.90809808 10 9.25 C11 12 11 12 11 14 C-0.22 14 -11.44 14 -23 14 C-22.1413608 10.56544322 -21.64705886 9.14933532 -19.6875 6.4375 C-19.27886719 5.85871094 -18.87023437 5.27992187 -18.44921875 4.68359375 C-13.31415889 -1.28193401 -7.47186925 -1.09670635 0 0 Z " fill="#F75553" transform="translate(257,81)"/>
<path d="M0 0 C22.44 0 44.88 0 68 0 C68 7.26 68 14.52 68 22 C45.56 22 23.12 22 0 22 C0 14.74 0 7.48 0 0 Z M2 2 C2 7.94 2 13.88 2 20 C22.79 20 43.58 20 65 20 C66.20672456 11.68991316 66.20672456 11.68991316 66 2 C44.88 2 23.76 2 2 2 Z " fill="#E2C863" transform="translate(216,227)"/>
<path d="M0 0 C22.44 0 44.88 0 68 0 C68 5.61 68 11.22 68 17 C67.67 17 67.34 17 67 17 C67 15.35 67 13.7 67 12 C66.44014404 12.04600342 65.88028809 12.09200684 65.3034668 12.1394043 C62.76579383 12.33861807 60.22700811 12.51330991 57.6875 12.6875 C56.36588867 12.79674805 56.36588867 12.79674805 55.01757812 12.90820312 C54.17001953 12.96298828 53.32246094 13.01777344 52.44921875 13.07421875 C51.27879028 13.16062622 51.27879028 13.16062622 50.0847168 13.2487793 C48 13 48 13 45 10 C55.395 9.505 55.395 9.505 66 9 C66 6.69 66 4.38 66 2 C45.21 2.33 24.42 2.66 3 3 C3 4.98 3 6.96 3 9 C11.91 9 20.82 9 30 9 C25.31852204 11.34073898 22.19707296 12.12925044 17.015625 12.09765625 C16.08105469 12.09443359 15.14648438 12.09121094 14.18359375 12.08789062 C13.21550781 12.07951172 12.24742187 12.07113281 11.25 12.0625 C9.77466797 12.05573242 9.77466797 12.05573242 8.26953125 12.04882812 C5.84629209 12.03706483 3.42317727 12.02062684 1 12 C1 13.65 1 15.3 1 17 C0.67 17 0.34 17 0 17 C0 11.39 0 5.78 0 0 Z " fill="#D3C06F" transform="translate(216,261)"/>
<path d="M0 0 C6.93 2.475 6.93 2.475 14 5 C13.12167314 8.51330743 12.07289018 11.0630858 10.4375 14.25 C9.98246094 15.14203125 9.52742187 16.0340625 9.05859375 16.953125 C8.70925781 17.62859375 8.35992187 18.3040625 8 19 C4.42959697 18.34097701 1.82267745 16.83770842 -1.25 14.9375 C-2.14203125 14.38964844 -3.0340625 13.84179688 -3.953125 13.27734375 C-4.62859375 12.85582031 -5.3040625 12.43429688 -6 12 C-4.59204581 7.07216034 -3.00508456 4.50762683 0 0 Z " fill="#DAC265" transform="translate(173,222)"/>
<path d="M0 0 C2.27706226 1.08798324 2.92151347 2.04554394 4.09765625 4.2578125 C4.4328125 4.86367187 4.76796875 5.46953125 5.11328125 6.09375 C5.84765625 7.8828125 5.84765625 7.8828125 5.84765625 10.8828125 C3.29296875 12.70703125 3.29296875 12.70703125 -0.02734375 14.5703125 C-1.11789062 15.19292969 -2.2084375 15.81554687 -3.33203125 16.45703125 C-6.15234375 17.8828125 -6.15234375 17.8828125 -8.15234375 17.8828125 C-8.85171577 16.4510509 -9.53647093 15.01214218 -10.21484375 13.5703125 C-10.59769531 12.76980469 -10.98054688 11.96929687 -11.375 11.14453125 C-12.15234375 8.8828125 -12.15234375 8.8828125 -11.15234375 5.8828125 C-9.2265625 4.2421875 -9.2265625 4.2421875 -6.83984375 2.6328125 C-5.67001953 1.82070312 -5.67001953 1.82070312 -4.4765625 0.9921875 C-2.15234375 -0.1171875 -2.15234375 -0.1171875 0 0 Z " fill="#E9CB5B" transform="translate(326.15234375,224.1171875)"/>
<path d="M0 0 C0.66 0 1.32 0 2 0 C2.11069824 0.61520508 2.22139648 1.23041016 2.33544922 1.86425781 C2.84230988 4.66069408 3.35855178 7.45531919 3.875 10.25 C4.04902344 11.21808594 4.22304687 12.18617188 4.40234375 13.18359375 C4.57636719 14.11816406 4.75039062 15.05273438 4.9296875 16.015625 C5.08679199 16.87446289 5.24389648 17.73330078 5.40576172 18.61816406 C5.89963703 20.98957398 5.89963703 20.98957398 7.00439453 22.93652344 C8 25 8 25 9 31 C37.71 31.33 66.42 31.66 96 32 C96.495 30.515 96.495 30.515 97 29 C97 30.32 97 31.64 97 33 C85.43038672 33.02313398 73.8607789 33.0409205 62.29114723 33.05181217 C56.91935028 33.05703868 51.54756911 33.06413214 46.17578125 33.07543945 C40.99517028 33.08627654 35.81457452 33.09227859 30.63395309 33.09487724 C28.65393204 33.09673 26.67391185 33.10034778 24.69389725 33.10573006 C21.92823717 33.11295136 19.16264059 33.11399048 16.39697266 33.11352539 C15.15943489 33.1189183 15.15943489 33.1189183 13.89689636 33.12442017 C8.22810432 33.11405216 8.22810432 33.11405216 6 32 C3.72319626 25.40799756 2.62262216 18.34383984 1.3125 11.5 C1.18109619 10.81800537 1.04969238 10.13601074 0.91430664 9.43334961 C0.31609391 6.20042963 0 3.30543666 0 0 Z " fill="#92C75A" transform="translate(198,390)"/>
<path d="M0 0 C1.11246094 -0.01933594 2.22492188 -0.03867188 3.37109375 -0.05859375 C7.15188849 0.52911853 8.81485147 1.84392522 11.5625 4.4375 C10.5725 4.9325 10.5725 4.9325 9.5625 5.4375 C8.5725 5.1075 7.5825 4.7775 6.5625 4.4375 C6.2325 3.7775 5.9025 3.1175 5.5625 2.4375 C-2.46649429 2.76935138 -2.46649429 2.76935138 -9.4375 6.4375 C-9.7675 7.0975 -10.0975 7.7575 -10.4375 8.4375 C-11.0975 8.4375 -11.7575 8.4375 -12.4375 8.4375 C-12.7675 9.4275 -13.0975 10.4175 -13.4375 11.4375 C-3.8675 11.7675 5.7025 12.0975 15.5625 12.4375 C15.5625 11.7775 15.5625 11.1175 15.5625 10.4375 C14.9025 10.4375 14.2425 10.4375 13.5625 10.4375 C13.8925 9.1175 14.2225 7.7975 14.5625 6.4375 C17.5625 12.1875 17.5625 12.1875 17.5625 14.4375 C6.3425 14.4375 -4.8775 14.4375 -16.4375 14.4375 C-15.5788608 11.00294322 -15.08455886 9.58683532 -13.125 6.875 C-12.71636719 6.29621094 -12.30773437 5.71742187 -11.88671875 5.12109375 C-8.24080223 0.88554113 -5.60216616 0.00647649 0 0 Z " fill="#C95658" transform="translate(250.4375,80.5625)"/>
<path d="M0 0 C3.12685037 3.12685037 4.7567018 6.2063237 6.625 10.125 C8.4091776 14.34401609 8.4091776 14.34401609 11 18 C10.52369113 23.34395319 9.50889242 28.30772146 8.125 33.5 C6.28460669 40.50800426 4.95555199 47.51941494 3.80859375 54.671875 C3.02392213 57.90153789 2.21148949 59.57410017 0 62 C0 59.36 0 56.72 0 54 C0.66 54 1.32 54 2 54 C1.979375 53.05125 1.95875 52.1025 1.9375 51.125 C2 48 2 48 3 46 C2.96834846 44.2908168 2.90047605 42.58221095 2.8125 40.875 C2.74864606 35.97101714 3.6039333 33.15572891 6.04296875 28.984375 C7.98028863 24.96740154 8 20.40150966 8 16 C6.68 15.67 5.36 15.34 4 15 C4 13.02 4 11.04 4 9 C3.34 9 2.68 9 2 9 C1.34 6.03 0.68 3.06 0 0 Z " fill="#88B45B" transform="translate(295,356)"/>
<path d="M0 0 C2.5 0.75 2.5 0.75 5.5 2.75 C4.75 8.5 4.75 8.5 2.5 10.75 C-0.4375 11.125 -0.4375 11.125 -3.5 10.75 C-5.4375 9.0625 -5.4375 9.0625 -6.5 6.75 C-6.375 4.125 -6.375 4.125 -5.5 1.75 C-2.5 -0.25 -2.5 -0.25 0 0 Z " fill="#9E9E9E" transform="translate(250.5,176.25)"/>
<path d="M0 0 C2.31 0.66 4.62 1.32 7 2 C7 2.33 7 2.66 7 3 C5.35 3 3.7 3 2 3 C2.02320313 3.83402344 2.04640625 4.66804688 2.0703125 5.52734375 C2.3355337 22.06578019 2.3355337 22.06578019 -1.38671875 26.7421875 C-3 28 -3 28 -6 28 C-6 28.66 -6 29.32 -6 30 C-7.32 30.33 -8.64 30.66 -10 31 C-9.27683594 29.93072266 -9.27683594 29.93072266 -8.5390625 28.83984375 C-2.76800206 20.0890317 -0.72805079 13.96482894 -1.02734375 3.4765625 C-1 1 -1 1 0 0 Z " fill="#8BB85C" transform="translate(277,329)"/>
<path d="M0 0 C3.63 0 7.26 0 11 0 C11 0.66 11 1.32 11 2 C11.66 2.33 12.32 2.66 13 3 C13 4.32 13 5.64 13 7 C13.66 7 14.32 7 15 7 C15 7.66 15 8.32 15 9 C9.39 8.34 3.78 7.68 -2 7 C-1.01 5.35 -0.02 3.7 1 2 C0.67 1.34 0.34 0.68 0 0 Z " fill="#F4D353" transform="translate(246,263)"/>
<path d="M0 0 C0.99 0 1.98 0 3 0 C2.67 0.99 2.34 1.98 2 3 C1.8460737 5.80160502 1.74261955 8.58298425 1.68359375 11.38671875 C1.66281265 12.20372757 1.64203156 13.02073639 1.62062073 13.86250305 C1.55526921 16.47075034 1.49630727 19.07909775 1.4375 21.6875 C1.39430108 23.45639054 1.35068635 25.22527097 1.30664062 26.99414062 C1.19960257 31.32932463 1.09829456 35.66460929 1 40 C0.34 40 -0.32 40 -1 40 C-1.19385203 35.58967471 -1.37230155 31.17906187 -1.53710938 26.76757812 C-1.5951544 25.27001653 -1.65725058 23.77260582 -1.72363281 22.27539062 C-1.81886788 20.11095716 -1.89904027 17.94638193 -1.9765625 15.78125 C-2.02893066 14.48251953 -2.08129883 13.18378906 -2.13525391 11.84570312 C-1.98474906 7.5663668 -1.17008957 4.10529721 0 0 Z " fill="#A0E1E7" transform="translate(283,175)"/>
<path d="M0 0 C0.66 0.33 1.32 0.66 2 1 C-4.73076923 9.65384615 -4.73076923 9.65384615 -8.75 10.75 C-9.86375 10.87375 -9.86375 10.87375 -11 11 C-11 11.66 -11 12.32 -11 13 C-11.66 13 -12.32 13 -13 13 C-12.7525 13.7425 -12.505 14.485 -12.25 15.25 C-12.1675 16.1575 -12.085 17.065 -12 18 C-13.9375 20.3125 -13.9375 20.3125 -16 22 C-17 19 -17 19 -15.9609375 16.22265625 C-15.43757812 15.17980469 -14.91421875 14.13695312 -14.375 13.0625 C-13.86710938 12.02222656 -13.35921875 10.98195312 -12.8359375 9.91015625 C-9.6916916 4.926192 -5.37135218 2.26790425 0 0 Z " fill="#97DBE1" transform="translate(206,141)"/>
<path d="M0 0 C0.66 0.99 1.32 1.98 2 3 C1.54625 3.391875 1.0925 3.78375 0.625 4.1875 C-1.14889105 5.95743841 -1.14889105 5.95743841 -2 8.5 C-3.03323602 11.08309006 -4.03163326 12.11364854 -6 14 C-7.17574711 16.09989652 -7.17574711 16.09989652 -8 18 C-8.66 18 -9.32 18 -10 18 C-10 20.97 -10 23.94 -10 27 C-10.66 27.33 -11.32 27.66 -12 28 C-12.99 26.02 -13.98 24.04 -15 22 C-13.79557292 20.33984375 -12.59114583 18.6796875 -11.38671875 17.01953125 C-10.39609997 15.57685545 -9.46001706 14.09611552 -8.5625 12.59375 C-6.92126958 9.8693075 -5.14781199 7.2846396 -3.3125 4.6875 C-2.68988281 3.80449219 -2.06726563 2.92148438 -1.42578125 2.01171875 C-0.95527344 1.34785156 -0.48476563 0.68398437 0 0 Z " fill="#95D5DB" transform="translate(277,147)"/>
<path d="M0 0 C0 1.65 0 3.3 0 5 C-0.99 5.495 -0.99 5.495 -2 6 C-2.33 6.99 -2.66 7.98 -3 9 C-5.0625 9.6875 -5.0625 9.6875 -7 10 C-8.80066242 7.0534615 -10.50163895 4.11198065 -12 1 C-7.67265609 -1.22923777 -4.71599818 -0.92470553 0 0 Z " fill="#F4D34E" transform="translate(184,228)"/>
<path d="M0 0 C0.99 0 1.98 0 3 0 C10.35683499 8.35100188 15.34569281 21.03324445 17 32 C16.69140625 34.2421875 16.69140625 34.2421875 16 36 C15.01 36.495 15.01 36.495 14 37 C13.67 32.38 13.34 27.76 13 23 C12.34 23 11.68 23 11 23 C10.87625 22.195625 10.7525 21.39125 10.625 20.5625 C10.41875 19.716875 10.2125 18.87125 10 18 C9.34 17.67 8.68 17.34 8 17 C7.855625 16.113125 7.71125 15.22625 7.5625 14.3125 C6.78377147 9.72665419 5.50493074 6.20394459 1.8125 3.25 C1.214375 2.8375 0.61625 2.425 0 2 C0 1.34 0 0.68 0 0 Z " fill="#9CD9DE" transform="translate(298,145)"/>
<path d="M0 0 C-0.03480469 0.845625 -0.06960937 1.69125 -0.10546875 2.5625 C-0.26930641 9.42807823 -0.09838621 14.84211946 3 21 C3.35964844 21.74636719 3.71929687 22.49273437 4.08984375 23.26171875 C5.034159 25.18731532 6.01375967 27.09553591 7 29 C6.01 29 5.02 29 4 29 C-0.67519625 20.61319757 -3.51177677 12.7237587 -3 3 C-4.65 3 -6.3 3 -8 3 C-3.5 0 -3.5 0 0 0 Z " fill="#88B45E" transform="translate(224,329)"/>
<path d="M0 0 C1.62463842 -0.05395478 3.24978541 -0.09277195 4.875 -0.125 C5.77992188 -0.14820313 6.68484375 -0.17140625 7.6171875 -0.1953125 C10 0 10 0 12 2 C11.01 2.33 10.02 2.66 9 3 C9 4.65 9 6.3 9 8 C7.02 8.99 7.02 8.99 5 10 C4.15801693 8.90241493 3.32669329 7.79664683 2.5 6.6875 C2.0359375 6.07261719 1.571875 5.45773438 1.09375 4.82421875 C0 3 0 3 0 0 Z " fill="#9EE7EC" transform="translate(227,132)"/>
<path d="M0 0 C-0.33 0.99 -0.66 1.98 -1 3 C-7.93 2.67 -14.86 2.34 -22 2 C-22 7.28 -22 12.56 -22 18 C-22.33 18 -22.66 18 -23 18 C-23 12.06 -23 6.12 -23 0 C-19.5419198 -0.1941064 -16.08372393 -0.38058011 -12.625 -0.5625 C-11.64015625 -0.61857422 -10.6553125 -0.67464844 -9.640625 -0.73242188 C-8.69960938 -0.78076172 -7.75859375 -0.82910156 -6.7890625 -0.87890625 C-5.48509521 -0.94960327 -5.48509521 -0.94960327 -4.15478516 -1.02172852 C-2 -1 -2 -1 0 0 Z " fill="#828082" transform="translate(318,260)"/>
<path d="M0 0 C3 1 3 1 4 3 C4.99 3.66 5.98 4.32 7 5 C6.01 5.495 6.01 5.495 5 6 C6.65 6.33 8.3 6.66 10 7 C10.33 5.68 10.66 4.36 11 3 C11.66 3 12.32 3 13 3 C12.690625 3.763125 12.38125 4.52625 12.0625 5.3125 C11.32106407 7.18789677 10.63771783 9.08684652 10 11 C5.75523087 10.32083694 2.54422063 8.34052306 -1 6 C-2.0625 3.875 -2.0625 3.875 -2 2 C-1.34 1.34 -0.68 0.68 0 0 Z " fill="#F2D156" transform="translate(171,230)"/>
<path d="M0 0 C0.33 0 0.66 0 1 0 C1.5064814 2.70726366 2.005351 5.41557124 2.5 8.125 C2.64308594 8.88554687 2.78617187 9.64609375 2.93359375 10.4296875 C3.70312456 14.68042914 4.16644376 18.65859197 4 23 C5.98 22.67 7.96 22.34 10 22 C10.33 22.66 10.66 23.32 11 24 C8 26 8 26 5.3125 25.625 C4.1678125 25.315625 4.1678125 25.315625 3 25 C-0.94074496 7.7995157 -0.94074496 7.7995157 -1 1 C-0.67 0.67 -0.34 0.34 0 0 Z " fill="#9DDAE1" transform="translate(303,194)"/>
<path d="M0 0 C3.08549979 1.89111277 4.58171178 4.88456911 5.9375 8.1875 C5.9375 9.1775 5.9375 10.1675 5.9375 11.1875 C1.9775 13.1675 1.9775 13.1675 -2.0625 15.1875 C-1.7325 12.8775 -1.4025 10.5675 -1.0625 8.1875 C-0.0725 8.1875 0.9175 8.1875 1.9375 8.1875 C1.9375 6.5375 1.9375 4.8875 1.9375 3.1875 C-2.5175 3.6825 -2.5175 3.6825 -7.0625 4.1875 C-2.76892202 0.25172018 -2.76892202 0.25172018 0 0 Z " fill="#E6CA65" transform="translate(326.0625,223.8125)"/>
<path d="M0 0 C0.33 1.98 0.66 3.96 1 6 C-1.31 5.34 -3.62 4.68 -6 4 C-6 4.66 -6 5.32 -6 6 C-6.66 6 -7.32 6 -8 6 C-8.33 6.66 -8.66 7.32 -9 8 C-9.99 8 -10.98 8 -12 8 C-10.125 3.25 -10.125 3.25 -9 1 C-5.8035914 -0.06546953 -3.34252724 -0.07427838 0 0 Z M-4 5 C-3.34 5.99 -2.68 6.98 -2 8 C-2.99 8.33 -3.98 8.66 -5 9 C-5.66 8.34 -6.32 7.68 -7 7 C-6.01 7 -5.02 7 -4 7 C-4 6.34 -4 5.68 -4 5 Z " fill="#F5D24E" transform="translate(328,227)"/>
<path d="M0 0 C0.66 0 1.32 0 2 0 C2.11069824 0.61520508 2.22139648 1.23041016 2.33544922 1.86425781 C2.84230988 4.66069408 3.35855178 7.45531919 3.875 10.25 C4.04902344 11.21808594 4.22304687 12.18617188 4.40234375 13.18359375 C4.57636719 14.11816406 4.75039062 15.05273438 4.9296875 16.015625 C5.08679199 16.87446289 5.24389648 17.73330078 5.40576172 18.61816406 C5.90448632 21.01709485 5.90448632 21.01709485 7.09033203 23.07714844 C8.53155698 26.12360246 7.61804808 28.78615001 7 32 C6.67 32 6.34 32 6 32 C4.18724641 25.21181633 2.62077176 18.40146991 1.3125 11.5 C1.18125732 10.81808594 1.05001465 10.13617188 0.91479492 9.43359375 C0.31583662 6.20058473 0 3.30563559 0 0 Z " fill="#86B05D" transform="translate(198,390)"/>
<path d="M0 0 C1.79133978 -0.05391993 3.58313899 -0.09275571 5.375 -0.125 C6.37273437 -0.14820313 7.37046875 -0.17140625 8.3984375 -0.1953125 C11 0 11 0 13 2 C9.52674819 3.1577506 6.63932552 3.06866652 3 3 C2.855625 3.639375 2.71125 4.27875 2.5625 4.9375 C2 7 2 7 1 8 C-1.02408755 7.90997602 -3.04544287 7.75358962 -5.0625 7.5625 C-6.71958984 7.40974609 -6.71958984 7.40974609 -8.41015625 7.25390625 C-9.26480469 7.17011719 -10.11945313 7.08632812 -11 7 C-11 6.67 -11 6.34 -11 6 C-7.37 6 -3.74 6 0 6 C0 4.02 0 2.04 0 0 Z " fill="#94D2D9" transform="translate(244,198)"/>
<path d="M0 0 C0.33 0 0.66 0 1 0 C1 2.31 1 4.62 1 7 C2.8871875 7.1546875 2.8871875 7.1546875 4.8125 7.3125 C7.60499657 7.64858808 8.74433121 7.80025876 11 9.5625 C11.33 10.036875 11.66 10.51125 12 11 C11.67 10.01 11.34 9.02 11 8 C12.32 7.67 13.64 7.34 15 7 C15.33 8.65 15.66 10.3 16 12 C12.3817495 13.318017 10.42284315 12.67521057 6.9375 11.1875 C6.08027344 10.83042969 5.22304687 10.47335938 4.33984375 10.10546875 C2 9 2 9 -1 7 C-0.67 4.69 -0.34 2.38 0 0 Z " fill="#96CCD2" transform="translate(178,204)"/>
<path d="M0 0 C5.29860806 1.2976183 9.34525646 3.15015702 14 6 C12.375 6.6875 12.375 6.6875 10 7 C7.98347806 6.0337499 5.98320018 5.03291676 4 4 C2.68 4 1.36 4 0 4 C-0.33 4.99 -0.66 5.98 -1 7 C-1.66 7 -2.32 7 -3 7 C-3.33 7.99 -3.66 8.98 -4 10 C-4.66 9.34 -5.32 8.68 -6 8 C-4.02 5.36 -2.04 2.72 0 0 Z " fill="#A1DADF" transform="translate(284,138)"/>
<path d="M0 0 C0.33 0.99 0.66 1.98 1 3 C-0.328125 5.59375 -0.328125 5.59375 -2.25 8.5 C-2.87390625 9.4590625 -3.4978125 10.418125 -4.140625 11.40625 C-6 14 -6 14 -7.671875 15.65625 C-9.27091565 17.07612118 -9.27091565 17.07612118 -10 20 C-10.99 20 -11.98 20 -13 20 C-11.66349743 17.19607216 -10.1678969 14.66068855 -8.3984375 12.109375 C-7.90859375 11.40039062 -7.41875 10.69140625 -6.9140625 9.9609375 C-6.40617187 9.23132813 -5.89828125 8.50171875 -5.375 7.75 C-4.859375 7.00492188 -4.34375 6.25984375 -3.8125 5.4921875 C-2.54395914 3.6598507 -1.27306421 1.82919561 0 0 Z " fill="#14272D" transform="translate(271,136)"/>
<path d="M0 0 C0.75796875 0.24363281 0.75796875 0.24363281 1.53125 0.4921875 C4.87997208 1.18100691 8.08341354 1.13172556 11.5 1.125 C12.8096875 1.12757813 14.119375 1.13015625 15.46875 1.1328125 C18.83572999 1.13831419 18.83572999 1.13831419 21.34375 0.3671875 C22.16359375 0.18542969 22.16359375 0.18542969 23 0 C23.66 0.66 24.32 1.32 25 2 C17.07860642 5.4254675 8.32026195 4.2558886 0 3 C0 2.01 0 1.02 0 0 Z " fill="#9FE2E6" transform="translate(239,134)"/>
<path d="M0 0 C0.66 0.33 1.32 0.66 2 1 C1.1875 3.9375 1.1875 3.9375 0 7 C-0.99 7.33 -1.98 7.66 -3 8 C-2.690625 9.2375 -2.38125 10.475 -2.0625 11.75 C-1.70833333 13.16666667 -1.35416667 14.58333333 -1 16 C-0.77183594 16.66515625 -0.54367188 17.3303125 -0.30859375 18.015625 C0.09232695 20.59369737 -0.67185275 21.81246335 -2 24 C-5.62959641 9.95874439 -5.62959641 9.95874439 -4.0859375 5.15625 C-2.84619328 3.24468909 -1.61703523 1.60123358 0 0 Z " fill="#8BB65F" transform="translate(199,366)"/>
<path d="M0 0 C0.99 0 1.98 0 3 0 C2.67 0.99 2.34 1.98 2 3 C1.34 3 0.68 3 0 3 C0 5.97 0 8.94 0 12 C-0.99 12.495 -0.99 12.495 -2 13 C-2.99 11.02 -3.98 9.04 -5 7 C-4.24172908 5.82512964 -3.46792245 4.66027408 -2.6875 3.5 C-2.25824219 2.8503125 -1.82898438 2.200625 -1.38671875 1.53125 C-0.70029297 0.77328125 -0.70029297 0.77328125 0 0 Z " fill="#A0E1E7" transform="translate(267,162)"/>
<path d="M0 0 C0.33 0 0.66 0 1 0 C1.30663616 9.04576659 1.30663616 9.04576659 -1 13 C-3.5 15.1875 -3.5 15.1875 -6 17 C-6.66 17.66 -7.32 18.32 -8 19 C-8.99 18.34 -9.98 17.68 -11 17 C-10.2575 16.62875 -9.515 16.2575 -8.75 15.875 C-2.87939475 11.8723146 -1.36907353 6.61718873 0 0 Z " fill="#99D3D9" transform="translate(267,180)"/>
<path d="M0 0 C3.18005028 3.88672813 6.10554447 7.89952133 9 12 C8.01 13.98 7.02 15.96 6 18 C5.375 16.1875 5.375 16.1875 5 14 C5.66 13.01 6.32 12.02 7 11 C6.01 11 5.02 11 4 11 C3.54625 9.865625 3.0925 8.73125 2.625 7.5625 C1.42904194 3.95278308 1.42904194 3.95278308 -1 3 C-0.67 2.01 -0.34 1.02 0 0 Z " fill="#9FDCE1" transform="translate(229,157)"/>
<path d="M0 0 C0.98484375 0.02707031 1.9696875 0.05414063 2.984375 0.08203125 C3.73203125 0.11683594 4.4796875 0.15164062 5.25 0.1875 C5.25 0.5175 5.25 0.8475 5.25 1.1875 C4.23679687 1.36925781 4.23679687 1.36925781 3.203125 1.5546875 C2.31109375 1.72226563 1.4190625 1.88984375 0.5 2.0625 C-0.82257813 2.30613281 -0.82257813 2.30613281 -2.171875 2.5546875 C-4.71109493 3.05113364 -4.71109493 3.05113364 -6.59375 4.25 C-9.82519525 5.65497619 -13.04393722 5.3974316 -16.5 5.3125 C-17.19738281 5.30347656 -17.89476562 5.29445312 -18.61328125 5.28515625 C-20.32566958 5.26169888 -22.03788004 5.22583104 -23.75 5.1875 C-23.75 4.8575 -23.75 4.5275 -23.75 4.1875 C-22.30367187 4.13142578 -22.30367187 4.13142578 -20.828125 4.07421875 C-19.56484375 4.00847656 -18.3015625 3.94273437 -17 3.875 C-15.74703125 3.81699219 -14.4940625 3.75898438 -13.203125 3.69921875 C-7.88543033 2.91118934 -5.7239888 -0.20442817 0 0 Z " fill="#1B2F35" transform="translate(266.75,130.8125)"/>
<path d="M0 0 C2.95723437 2.46713092 3.77066694 4.75500782 4.75 8.4375 C5.01296875 9.38496094 5.2759375 10.33242187 5.546875 11.30859375 C5.99917669 13.99510985 6.02701417 15.49522655 5 18 C4.34 18.33 3.68 18.66 3 19 C2.67 14.38 2.34 9.76 2 5 C1.34 5 0.68 5 0 5 C0 3.35 0 1.7 0 0 Z " fill="#90CCD1" transform="translate(309,163)"/>
<path d="M0 0 C-0.33 2.31 -0.66 4.62 -1 7 C-4.37503669 5.8141763 -6.64722731 4.72426311 -9 2 C-3.375 0 -3.375 0 0 0 Z " fill="#424041" transform="translate(369,340)"/>
<path d="M0 0 C0.33 0 0.66 0 1 0 C1.46360304 8.37919574 0.77770111 15.39691302 -5 22 C-4.56037229 18.4829783 -3.8245081 15.39427364 -2.5 12.125 C-0.89832896 8.07785074 -0.38628643 4.32640803 0 0 Z " fill="#102404" transform="translate(276,332)"/>
<path d="M0 0 C0 2 0 2 -1.453125 3.64453125 C-5.24767826 5.66402509 -8.5589527 5.08019349 -12.75 4.6875 C-13.54277344 4.62626953 -14.33554687 4.56503906 -15.15234375 4.50195312 C-17.10275869 4.34920979 -19.05159555 4.17654756 -21 4 C-20.67 3.34 -20.34 2.68 -20 2 C-18.53626953 2.03480469 -18.53626953 2.03480469 -17.04296875 2.0703125 C-15.77066406 2.08835938 -14.49835938 2.10640625 -13.1875 2.125 C-11.29064453 2.15980469 -11.29064453 2.15980469 -9.35546875 2.1953125 C-5.46907635 1.96909641 -3.84015862 0 0 0 Z " fill="#4F4F4F" transform="translate(375,246)"/>
<path d="M0 0 C0.66 0.33 1.32 0.66 2 1 C1.71743908 2.93884889 1.4236207 4.87605961 1.125 6.8125 C0.96257812 7.89144531 0.80015625 8.97039062 0.6328125 10.08203125 C0 13 0 13 -2 16 C-2.2358396 10.22192976 -1.86783046 5.48675196 0 0 Z " fill="#93CED5" transform="translate(196,192)"/>
<path d="M0 0 C0.66 0.33 1.32 0.66 2 1 C-0.97 4.96 -0.97 4.96 -4 9 C-8 7 -8 7 -9 4 C-7.02 4.66 -5.04 5.32 -3 6 C-3 4.68 -3 3.36 -3 2 C-2.01 2 -1.02 2 0 2 C0 1.34 0 0.68 0 0 Z " fill="#9AD4DB" transform="translate(255,156)"/>
<path d="M0 0 C7.26 0.33 14.52 0.66 22 1 C22 1.33 22 1.66 22 2 C18.89738494 2.25494218 15.79325198 2.47447008 12.6875 2.6875 C11.36588867 2.79674805 11.36588867 2.79674805 10.01757812 2.90820312 C9.17001953 2.96298828 8.32246094 3.01777344 7.44921875 3.07421875 C6.66893311 3.13182373 5.88864746 3.18942871 5.0847168 3.2487793 C3 3 3 3 0 0 Z " fill="#F0E2A9" transform="translate(261,271)"/>
<path d="M0 0 C0.66 0 1.32 0 2 0 C1.690625 0.763125 1.38125 1.52625 1.0625 2.3125 C0.32106407 4.18789677 -0.36228217 6.08684652 -1 8 C-4.35595828 7.40072174 -6.37801226 6.15377564 -9 4 C-6.36 4 -3.72 4 -1 4 C-0.67 2.68 -0.34 1.36 0 0 Z " fill="#D3BD6B" transform="translate(182,233)"/>
<path d="M0 0 C7.42857143 -0.28571429 7.42857143 -0.28571429 11 2 C10.67 2.66 10.34 3.32 10 4 C8.01432292 3.70703125 6.02864583 3.4140625 4.04296875 3.12109375 C1.7974658 2.86095201 1.7974658 2.86095201 -1 4 C-0.67 2.68 -0.34 1.36 0 0 Z " fill="#A0E2E8" transform="translate(205,172)"/>
<path d="M0 0 C0.99 0 1.98 0 3 0 C3 1.32 3 2.64 3 4 C3.66 4 4.32 4 5 4 C5 4.66 5 5.32 5 6 C0.71 5.34 -3.58 4.68 -8 4 C-8 3.67 -8 3.34 -8 3 C-5.36 3 -2.72 3 0 3 C0 2.01 0 1.02 0 0 Z " fill="#E4C762" transform="translate(256,266)"/>
<path d="M0 0 C2.06132142 -0.10864945 4.12431321 -0.18588321 6.1875 -0.25 C7.33605469 -0.29640625 8.48460937 -0.3428125 9.66796875 -0.390625 C13.60353399 0.07075428 15.17745787 1.29971488 18 4 C17.01 4.495 17.01 4.495 16 5 C15.01 4.67 14.02 4.34 13 4 C12.67 3.34 12.34 2.68 12 2 C7.71 2 3.42 2 -1 2 C-0.67 1.34 -0.34 0.68 0 0 Z " fill="#C75557" transform="translate(244,81)"/>
<path d="M0 0 C1.32 0.66 2.64 1.32 4 2 C4 2.66 4 3.32 4 4 C4.66 4 5.32 4 6 4 C5.67 4.66 5.34 5.32 5 6 C4.01 5.34 3.02 4.68 2 4 C1.01 4.66 0.02 5.32 -1 6 C-1.99 5.34 -2.98 4.68 -4 4 C-2.68 2.68 -1.36 1.36 0 0 Z " fill="#5A5859" transform="translate(340,72)"/>
<path d="M0 0 C0.33 0 0.66 0 1 0 C0.88557539 1.60495567 0.75805306 3.20898119 0.625 4.8125 C0.55539063 5.70582031 0.48578125 6.59914063 0.4140625 7.51953125 C0 10 0 10 -2 13 C-2.66 13 -3.32 13 -4 13 C-3.52343588 11.20763933 -3.04366502 9.41613103 -2.5625 7.625 C-2.29566406 6.62726563 -2.02882812 5.62953125 -1.75390625 4.6015625 C-1 2 -1 2 0 0 Z " fill="#87B15F" transform="translate(206,347)"/>
<path d="M0 0 C2.56781377 1.50527014 2.95920868 3.2893032 3.8125 6.0625 C3.1525 6.0625 2.4925 6.0625 1.8125 6.0625 C1.8125 5.0725 1.8125 4.0825 1.8125 3.0625 C-2.6425 3.5575 -2.6425 3.5575 -7.1875 4.0625 C-2.84433646 0.08126676 -2.84433646 0.08126676 0 0 Z " fill="#D0BA61" transform="translate(326.1875,223.9375)"/>
<path d="M0 0 C0.66 0.33 1.32 0.66 2 1 C1.67 2.65 1.34 4.3 1 6 C-1.31 5.67 -3.62 5.34 -6 5 C-4.68 4.67 -3.36 4.34 -2 4 C-2.33 3.01 -2.66 2.02 -3 1 C-2.01 0.67 -1.02 0.34 0 0 Z " fill="#93D5D9" transform="translate(192,211)"/>
<path d="M0 0 C0.33 0 0.66 0 1 0 C1.08153933 1.58246707 1.13943557 3.16616273 1.1875 4.75 C1.23970703 6.07257813 1.23970703 6.07257813 1.29296875 7.421875 C0.94923684 10.44671583 -0.00227459 11.75583602 -2 14 C-2 11.36 -2 8.72 -2 6 C-1.34 6 -0.68 6 0 6 C0 4.02 0 2.04 0 0 Z " fill="#8BB95F" transform="translate(297,404)"/>
<path d="M0 0 C2.03833424 1.2739589 4.03852126 2.61061923 6 4 C6 4.66 6 5.32 6 6 C7.32 6.66 8.64 7.32 10 8 C5.46153846 8 5.46153846 8 3 7 C0 2.82142857 0 2.82142857 0 0 Z " fill="#86B05B" transform="translate(231,358)"/>
<path d="M0 0 C5.94 3.465 5.94 3.465 12 7 C11.01 7.495 11.01 7.495 10 8 C7.625 7.1875 7.625 7.1875 5 6 C4.2575 5.71125 3.515 5.4225 2.75 5.125 C1 4 1 4 0 0 Z " fill="#281C09" transform="translate(166,233)"/>
<path d="M0 0 C0 1.32 0 2.64 0 4 C-3.3 3.34 -6.6 2.68 -10 2 C-6.3558226 -0.4294516 -4.28758728 -0.16179575 0 0 Z " fill="#9DDBE0" transform="translate(272,132)"/>
<path d="M0 0 C0.33 0.66 0.66 1.32 1 2 C-0.5039544 4.79305817 -2.24016054 7.36024081 -4 10 C-4.33 10.66 -4.66 11.32 -5 12 C-5.875 9.9375 -5.875 9.9375 -6 7 C-4.26080867 4.40994275 -2.19602066 2.20875121 0 0 Z " fill="#5F5E5E" transform="translate(323,117)"/>
<path d="M0 0 C2.40072955 2.88087546 4.47291037 5.56404834 6 9 C5.01 9.495 5.01 9.495 4 10 C4 9.34 4 8.68 4 8 C3.01 8.33 2.02 8.66 1 9 C1.33 7.35 1.66 5.7 2 4 C1.34 4 0.68 4 0 4 C0 2.68 0 1.36 0 0 Z " fill="#14282C" transform="translate(229,137)"/>
<path d="M0 0 C0.33 0.66 0.66 1.32 1 2 C0.00390625 4.1640625 0.00390625 4.1640625 -1.4375 6.625 C-1.91058594 7.44226563 -2.38367188 8.25953125 -2.87109375 9.1015625 C-3.24363281 9.72804687 -3.61617188 10.35453125 -4 11 C-4.33 10.34 -4.66 9.68 -5 9 C-5.66 8.67 -6.32 8.34 -7 8 C-4.69 5.36 -2.38 2.72 0 0 Z " fill="#525252" transform="translate(342,129)"/>
<path d="M0 0 C0.33 0.66 0.66 1.32 1 2 C3.02463255 2.65213292 3.02463255 2.65213292 5 3 C4.67 3.66 4.34 4.32 4 5 C3.05125 4.814375 2.1025 4.62875 1.125 4.4375 C-1.89868793 3.71313368 -1.89868793 3.71313368 -4 5 C-4 4.01 -4 3.02 -4 2 C-2.68 1.34 -1.36 0.68 0 0 Z " fill="#1D1507" transform="translate(175,219)"/>
<path d="M0 0 C2.0625 0.4375 2.0625 0.4375 4 1 C3.6875 2.9375 3.6875 2.9375 3 5 C2.01 5.33 1.02 5.66 0 6 C-0.38218767 4.34385343 -0.71395102 2.67542976 -1 1 C-0.67 0.67 -0.34 0.34 0 0 Z " fill="#A9A9A9" transform="translate(246,180)"/>
<path d="M0 0 C0.66 0 1.32 0 2 0 C2.96070434 2.88211302 3.10581883 4.69850044 3.0625 7.6875 C3.05347656 8.49574219 3.04445312 9.30398438 3.03515625 10.13671875 C3.02355469 10.75160156 3.01195312 11.36648438 3 12 C0.7655402 7.96707255 0.45503257 4.55032566 0 0 Z " fill="#91BB62" transform="translate(198,390)"/>
<path d="M0 0 C2.43840236 2.43840236 3.62292893 4.85240898 5 8 C4.67 8.66 4.34 9.32 4 10 C2.68 9.34 1.36 8.68 0 8 C0.33 6.68 0.66 5.36 1 4 C0.34 3.67 -0.32 3.34 -1 3 C-0.67 2.01 -0.34 1.02 0 0 Z " fill="#392C15" transform="translate(313,231)"/>
<path d="M0 0 C0.33 0.66 0.66 1.32 1 2 C0.67 2.78375 0.34 3.5675 0 4.375 C-1.07720707 7.20266855 -1.0264725 8.22852426 0 11 C-2.89932357 8.60490662 -3.50168276 6.68754757 -4 3 C-2.68 2.01 -1.36 1.02 0 0 Z " fill="#E2CC71" transform="translate(318,228)"/>
<path d="M0 0 C0.99 0 1.98 0 3 0 C3.63394697 4.04141194 4.12404452 7.9065307 4 12 C1.78600697 8.20458337 0.99019802 4.24370579 0 0 Z " fill="#99D6DC" transform="translate(298,181)"/>
<path d="M0 0 C0.91307373 3.08162384 1.41112802 5.79320141 1 9 C-1 10.8125 -1 10.8125 -3 12 C-2.40075776 7.80530429 -1.42500059 3.99000166 0 0 Z " fill="#575256" transform="translate(178,155)"/>
<path d="M0 0 C0.33 0.66 0.66 1.32 1 2 C-5.0546875 2.9765625 -5.0546875 2.9765625 -7 3 C-7.66 2.34 -8.32 1.68 -9 1 C-5.63579264 -0.58865348 -3.5299383 -1.5128307 0 0 Z " fill="#98CCD0" transform="translate(217,139)"/>
<path d="M0 0 C3.96 0 7.92 0 12 0 C12 0.33 12 0.66 12 1 C8.7 1 5.4 1 2 1 C1.67 2.32 1.34 3.64 1 5 C0.34 4.34 -0.32 3.68 -1 3 C-0.67 2.01 -0.34 1.02 0 0 Z " fill="#1A2B2F" transform="translate(225,131)"/>
<path d="M0 0 C-0.33 1.98 -0.66 3.96 -1 6 C-1.33 5.01 -1.66 4.02 -2 3 C-3.98 3 -5.96 3 -8 3 C-3.5 0 -3.5 0 0 0 Z " fill="#7B9C5C" transform="translate(224,329)"/>
<path d="M0 0 C0.66 0.33 1.32 0.66 2 1 C2 1.66 2 2.32 2 3 C-0.97 4.65 -3.94 6.3 -7 8 C-7 7.34 -7 6.68 -7 6 C-5.46875 4.4921875 -5.46875 4.4921875 -3.5 2.875 C-2.8503125 2.33617187 -2.200625 1.79734375 -1.53125 1.2421875 C-1.0259375 0.83226562 -0.520625 0.42234375 0 0 Z " fill="#605F5E" transform="translate(234,274)"/>
<path d="M0 0 C0.99 0.33 1.98 0.66 3 1 C2.67 1.99 2.34 2.98 2 4 C2.87483915 6.16715557 2.87483915 6.16715557 4 8 C2.68 7.67 1.36 7.34 0 7 C-1.125 2.25 -1.125 2.25 0 0 Z " fill="#112225" transform="translate(261,166)"/>
<path d="M0 0 C1 3 1 3 -0.1875 5.625 C-2 8 -2 8 -6 9 C-4.02 6.03 -2.04 3.06 0 0 Z " fill="#0D2024" transform="translate(257,156)"/>
<path d="M0 0 C2 3.75 2 3.75 2 6 C1.34 6 0.68 6 0 6 C0 6.66 0 7.32 0 8 C-0.66 8 -1.32 8 -2 8 C-2 8.66 -2 9.32 -2 10 C-2.66 9.67 -3.32 9.34 -4 9 C-3.2884375 7.88625 -3.2884375 7.88625 -2.5625 6.75 C-1.22130673 4.38949985 -0.487688 2.63351523 0 0 Z " fill="#81AC57" transform="translate(275,345)"/>
<path d="M0 0 C1.32 0 2.64 0 4 0 C4.66 0.66 5.32 1.32 6 2 C6.99 2 7.98 2 9 2 C8.01 2.99 7.02 3.98 6 5 C2.83884224 3.63016497 2.0072908 3.0109362 0 0 Z " fill="#575455" transform="translate(325,338)"/>
<path d="M0 0 C2.97 0.495 2.97 0.495 6 1 C6.33 3.31 6.66 5.62 7 8 C6.21625 7.195625 5.4325 6.39125 4.625 5.5625 C2.28017144 3.01309583 2.28017144 3.01309583 0 2 C0 1.34 0 0.68 0 0 Z " fill="#89B160" transform="translate(286,333)"/>
<path d="M0 0 C6.93 0.495 6.93 0.495 14 1 C14 1.33 14 1.66 14 2 C12.73542969 2.09087891 12.73542969 2.09087891 11.4453125 2.18359375 C10.34960938 2.26738281 9.25390625 2.35117187 8.125 2.4375 C7.03445313 2.51871094 5.94390625 2.59992188 4.8203125 2.68359375 C2.05271029 2.83001703 2.05271029 2.83001703 0 4 C0 2.68 0 1.36 0 0 Z " fill="#201E20" transform="translate(303,332)"/>
<path d="M0 0 C0.33 0 0.66 0 1 0 C1.02696365 1.79158489 1.04637917 3.58328473 1.0625 5.375 C1.07410156 6.37273437 1.08570313 7.37046875 1.09765625 8.3984375 C1 11 1 11 0 13 C-0.66 13 -1.32 13 -2 13 C-1.34 8.71 -0.68 4.42 0 0 Z " fill="#7D7C7C" transform="translate(364,303)"/>
<path d="M0 0 C-1.25 1.5 -1.25 1.5 -3 3 C-4.32 3 -5.64 3 -7 3 C-7 2.01 -7 1.02 -7 0 C-3.86650268 -1.04449911 -3.01031744 -0.93423645 0 0 Z " fill="#A2E2E6" transform="translate(314,217)"/>
<path d="M0 0 C2.64 0 5.28 0 8 0 C8.66 1.32 9.32 2.64 10 4 C9.34 4.66 8.68 5.32 8 6 C7.4121875 5.0409375 7.4121875 5.0409375 6.8125 4.0625 C4.61527704 1.56221181 3.24208567 1.35049575 0 1 C0 0.67 0 0.34 0 0 Z " fill="#92C8D1" transform="translate(289,174)"/>
<path d="M0 0 C1.70884005 1.62339805 3.37446717 3.29319053 5 5 C5 5.66 5 6.32 5 7 C4.01 7.33 3.02 7.66 2 8 C0 2.25 0 2.25 0 0 Z " fill="#111F23" transform="translate(239,152)"/>
<path d="M0 0 C2.4375 0.625 2.4375 0.625 5 2 C5.8125 5.125 5.8125 5.125 6 8 C1.125 3.375 1.125 3.375 0 0 Z " fill="#081B20" transform="translate(219,142)"/>
<path d="M0 0 C0.33 0.66 0.66 1.32 1 2 C-1.97 2.66 -4.94 3.32 -8 4 C-7.67 3.01 -7.34 2.02 -7 1 C-4.53721199 -0.231394 -2.7204945 -0.07159196 0 0 Z " fill="#1F393F" transform="translate(212,174)"/>
<path d="M0 0 C4.875 4.625 4.875 4.625 6 8 C4.68 8 3.36 8 2 8 C1.34 5.36 0.68 2.72 0 0 Z " fill="#98D3D8" transform="translate(223,149)"/>
<path d="M0 0 C3.45925163 1.2491742 6.14693203 2.67527795 9 5 C5.87709365 4.51421457 3.00419641 4.0013988 0 3 C0 2.01 0 1.02 0 0 Z " fill="#97D0D6" transform="translate(289,140)"/>
<path d="M0 0 C1.32 0.33 2.64 0.66 4 1 C3.34 2.32 2.68 3.64 2 5 C0.68 4.34 -0.64 3.68 -2 3 C-1.34 2.01 -0.68 1.02 0 0 Z " fill="#4D4D4D" transform="translate(261,340)"/>
<path d="M0 0 C0.66 0 1.32 0 2 0 C2 0.66 2 1.32 2 2 C2.99 1.67 3.98 1.34 5 1 C5 3.31 5 5.62 5 8 C2.20127563 5.47211993 0.54226981 3.79588866 0 0 Z " fill="#555456" transform="translate(301,234)"/>
<path d="M0 0 C0.66 0.33 1.32 0.66 2 1 C2 4.63 2 8.26 2 12 C1.67 12 1.34 12 1 12 C0.63896464 10.18885568 0.28634496 8.37603177 -0.0625 6.5625 C-0.25972656 5.55316406 -0.45695312 4.54382813 -0.66015625 3.50390625 C-0.77230469 2.67761719 -0.88445312 1.85132813 -1 1 C-0.67 0.67 -0.34 0.34 0 0 Z " fill="#A5EBEF" transform="translate(267,175)"/>
<path d="M0 0 C0.66 0.33 1.32 0.66 2 1 C0.02 3.97 0.02 3.97 -2 7 C-2.66 6.67 -3.32 6.34 -4 6 C-4 5.34 -4 4.68 -4 4 C-3.34 4 -2.68 4 -2 4 C-2 3.01 -2 2.02 -2 1 C-1.34 0.67 -0.68 0.34 0 0 Z " fill="#A4E2E9" transform="translate(269,136)"/>
<path d="M0 0 C0.66 0 1.32 0 2 0 C1.375 1.875 1.375 1.875 0 4 C-3.125 5.25 -3.125 5.25 -6 6 C-4 4 -2 2 0 0 Z " fill="#6B6B6B" transform="translate(236,72)"/>
<path d="" fill="#FFFFFF" transform="translate(0,0)"/>
<path d="" fill="#FFFFFF" transform="translate(0,0)"/>
<path d="" fill="#FFFFFF" transform="translate(0,0)"/>
<path d="" fill="#FFFFFF" transform="translate(0,0)"/>
<path d="" fill="#FFFFFF" transform="translate(0,0)"/>
<path d="" fill="#FFFFFF" transform="translate(0,0)"/>
<path d="" fill="#FFFFFF" transform="translate(0,0)"/>
<path d="" fill="#FFFFFF" transform="translate(0,0)"/>
<path d="" fill="#FFFFFF" transform="translate(0,0)"/>
<path d="" fill="#FFFFFF" transform="translate(0,0)"/>
<path d="" fill="#FFFFFF" transform="translate(0,0)"/>
<path d="" fill="#FFFFFF" transform="translate(0,0)"/>
<path d="" fill="#FFFFFF" transform="translate(0,0)"/>
<path d="" fill="#FFFFFF" transform="translate(0,0)"/>
<path d="" fill="#FFFFFF" transform="translate(0,0)"/>
<path d="" fill="#FFFFFF" transform="translate(0,0)"/>
<path d="" fill="#FFFFFF" transform="translate(0,0)"/>
<path d="" fill="#FFFFFF" transform="translate(0,0)"/>
<path d="" fill="#FFFFFF" transform="translate(0,0)"/>
<path d="" fill="#FFFFFF" transform="translate(0,0)"/>
<path d="" fill="#FFFFFF" transform="translate(0,0)"/>
<path d="" fill="#FFFFFF" transform="translate(0,0)"/>
<path d="" fill="#FFFFFF" transform="translate(0,0)"/>
<path d="" fill="#FFFFFF" transform="translate(0,0)"/>
<path d="" fill="#FFFFFF" transform="translate(0,0)"/>
<path d="" fill="#FFFFFF" transform="translate(0,0)"/>
<path d="" fill="#FFFFFF" transform="translate(0,0)"/>
<path d="" fill="#FFFFFF" transform="translate(0,0)"/>
<path d="" fill="#FFFFFF" transform="translate(0,0)"/>
<path d="" fill="#FFFFFF" transform="translate(0,0)"/>
<path d="" fill="#FFFFFF" transform="translate(0,0)"/>
<path d="" fill="#FFFFFF" transform="translate(0,0)"/>
<path d="" fill="#FFFFFF" transform="translate(0,0)"/>
<path d="" fill="#FFFFFF" transform="translate(0,0)"/>
<path d="" fill="#FFFFFF" transform="translate(0,0)"/>
<path d="" fill="#FFFFFF" transform="translate(0,0)"/>
<path d="" fill="#FFFFFF" transform="translate(0,0)"/>
<path d="" fill="#FFFFFF" transform="translate(0,0)"/>
<path d="" fill="#FFFFFF" transform="translate(0,0)"/>
<path d="" fill="#FFFFFF" transform="translate(0,0)"/>
<path d="" fill="#FFFFFF" transform="translate(0,0)"/>
<path d="" fill="#FFFFFF" transform="translate(0,0)"/>
<path d="" fill="#FFFFFF" transform="translate(0,0)"/>
<path d="" fill="#FFFFFF" transform="translate(0,0)"/>
<path d="" fill="#FFFFFF" transform="translate(0,0)"/>
<path d="" fill="#FFFFFF" transform="translate(0,0)"/>
<path d="" fill="#FFFFFF" transform="translate(0,0)"/>
<path d="" fill="#FFFFFF" transform="translate(0,0)"/>
<path d="" fill="#FFFFFF" transform="translate(0,0)"/>
<path d="" fill="#FFFFFF" transform="translate(0,0)"/>
<path d="" fill="#FFFFFF" transform="translate(0,0)"/>
<path d="" fill="#FFFFFF" transform="translate(0,0)"/>
<path d="" fill="#FFFFFF" transform="translate(0,0)"/>
<path d="" fill="#FFFFFF" transform="translate(0,0)"/>
<path d="" fill="#FFFFFF" transform="translate(0,0)"/>
<path d="" fill="#FFFFFF" transform="translate(0,0)"/>
<path d="" fill="#FFFFFF" transform="translate(0,0)"/>
<path d="" fill="#FFFFFF" transform="translate(0,0)"/>
<path d="" fill="#FFFFFF" transform="translate(0,0)"/>
<path d="" fill="#FFFFFF" transform="translate(0,0)"/>
<path d="" fill="#FFFFFF" transform="translate(0,0)"/>
<path d="" fill="#FFFFFF" transform="translate(0,0)"/>
<path d="" fill="#FFFFFF" transform="translate(0,0)"/>
<path d="" fill="#FFFFFF" transform="translate(0,0)"/>
<path d="" fill="#FFFFFF" transform="translate(0,0)"/>
<path d="" fill="#FFFFFF" transform="translate(0,0)"/>
<path d="" fill="#FFFFFF" transform="translate(0,0)"/>
<path d="" fill="#FFFFFF" transform="translate(0,0)"/>
<path d="" fill="#FFFFFF" transform="translate(0,0)"/>
<path d="" fill="#FFFFFF" transform="translate(0,0)"/>
<path d="" fill="#FFFFFF" transform="translate(0,0)"/>
</svg>
