<?xml version="1.0" encoding="UTF-8"?>
<svg version="1.1" xmlns="http://www.w3.org/2000/svg" width="512" height="512">
<path d="M0 0 C1.14146484 -0.01611328 2.28292969 -0.03222656 3.45898438 -0.04882812 C10.77252606 -0.05305316 17.18030046 0.14978146 23.0859375 4.9609375 C23.75496094 5.81558594 23.75496094 5.81558594 24.4375 6.6875 C24.89898437 7.25210937 25.36046875 7.81671875 25.8359375 8.3984375 C28.62277377 12.74732213 29.31045042 16.44067075 29.28955078 21.5715332 C29.28939972 22.81244217 29.28924866 24.05335114 29.28909302 25.3318634 C29.27888143 26.67567101 29.26844946 28.01947695 29.2578125 29.36328125 C29.25407931 30.7461883 29.25123378 32.12909802 29.24923706 33.51200867 C29.24162462 37.1403034 29.22199691 40.76843637 29.1998291 44.39666748 C29.17931899 48.10361544 29.17022433 51.8105897 29.16015625 55.51757812 C29.13874855 62.78262559 29.10464175 70.04754007 29.0625 77.3125 C31.3725 77.3125 33.6825 77.3125 36.0625 77.3125 C36.145 76.11625 36.2275 74.92 36.3125 73.6875 C37.04506452 67.99758103 39.76069247 64.31013527 44 60.5625 C49.66145634 56.40306269 54.20224994 55.99497509 61.01953125 55.9765625 C62.31222176 55.9665773 62.31222176 55.9665773 63.63102722 55.95639038 C65.45069249 55.94628827 67.27039461 55.9415726 69.09008789 55.94189453 C71.85561116 55.9375306 74.61952535 55.90121186 77.38476562 55.86328125 C79.15884875 55.85741048 80.9329394 55.85344283 82.70703125 55.8515625 C83.52500687 55.83719147 84.34298248 55.82282043 85.18574524 55.80801392 C91.8276864 55.86013768 96.98609368 57.71121435 102.0859375 62.0234375 C106.0759888 66.93604402 108.0625 70.81825215 108.0625 77.3125 C129.1825 77.3125 150.3025 77.3125 172.0625 77.3125 C172.0625 72.6925 172.0625 68.0725 172.0625 63.3125 C172.89165827 59.64674765 173.67377984 56.71655795 175.0625 53.3125 C175.53816406 52.10013672 175.53816406 52.10013672 176.0234375 50.86328125 C181.38451862 38.75332142 190.87308529 30.15174334 202.9609375 25.1015625 C218.49263496 19.23033102 237.53933777 18.8782488 252.87109375 25.53125 C266.20456508 32.18873915 275.59069446 42.54709595 280.5 56.625 C282.0625 63.3125 282.0625 63.3125 282.0625 77.3125 C303.1825 77.3125 324.3025 77.3125 346.0625 77.3125 C346.3925 74.6725 346.7225 72.0325 347.0625 69.3125 C349.918854 63.91716466 353.77146461 60.04113227 359.1940918 57.19287109 C363.16139055 55.9752288 366.890719 55.98771388 371.01953125 55.9765625 C371.88132492 55.9699057 372.74311859 55.9632489 373.63102722 55.95639038 C375.45069249 55.94628827 377.27039461 55.9415726 379.09008789 55.94189453 C381.85561116 55.9375306 384.61952535 55.90121186 387.38476562 55.86328125 C389.15884875 55.85741048 390.9329394 55.85344283 392.70703125 55.8515625 C393.52500687 55.83719147 394.34298248 55.82282043 395.18574524 55.80801392 C401.82430855 55.86011117 407.02517262 57.69148583 412.0859375 62.05859375 C416.03484012 67.00042853 418.43635493 70.7700387 418.0625 77.3125 C420.3725 77.3125 422.6825 77.3125 425.0625 77.3125 C425.05361755 76.55352417 425.04473511 75.79454834 425.0355835 75.01257324 C424.95518505 67.83362288 424.89440831 60.65489312 424.85525131 53.47560883 C424.8344429 49.78530045 424.80625081 46.09536642 424.76074219 42.40527344 C424.71704057 38.83907939 424.69331224 35.27324369 424.68299103 31.70680237 C424.67208506 29.69499888 424.64089809 27.68333804 424.60931396 25.67175293 C424.60741172 17.86012472 424.94962319 11.82264436 430.43939209 5.8026123 C437.31434462 -0.46201138 445.13621045 -0.02450586 453.875 0 C455.58139648 -0.02416992 455.58139648 -0.02416992 457.32226562 -0.04882812 C464.83280538 -0.05316196 472.13075649 0.17850155 478.21875 5.03125 C478.6621875 5.6190625 479.105625 6.206875 479.5625 6.8125 C480.0265625 7.4003125 480.490625 7.988125 480.96875 8.59375 C483.17667777 12.06335079 483.19341568 15.10060342 483.20967102 19.09968567 C483.22040398 20.91032249 483.22040398 20.91032249 483.23135376 22.75753784 C483.23419396 24.09722875 483.2369057 25.43691993 483.23950195 26.77661133 C483.24576772 28.1860216 483.25241462 29.59543022 483.25941467 31.00483704 C483.2804423 35.63472343 483.29081514 40.26461012 483.30078125 44.89453125 C483.30482915 46.4889242 483.30894608 48.08331698 483.31313133 49.67770958 C483.33217935 57.16776232 483.34641177 64.65780521 483.3547433 72.14787751 C483.36451776 80.79221038 483.39084419 89.43628731 483.43124419 98.08052999 C483.46140536 104.7634337 483.47621213 111.44626404 483.47952431 118.12923449 C483.48187462 122.12013937 483.49083239 126.11077072 483.51598549 130.10160255 C483.53927178 133.85684378 483.54349749 137.61163147 483.53322411 141.36692619 C483.53272878 142.74316034 483.53904846 144.11941685 483.55278015 145.49558258 C483.63309673 154.02367399 483.4783617 158.76707757 477.46484375 164.95703125 C470.99631679 170.11460342 464.93673818 169.5634495 457.03100586 169.60766602 C455.6025194 169.61915085 454.17407467 169.63954736 452.74584961 169.66918945 C437.97173445 169.97559272 437.97173445 169.97559272 431.0625 165.3125 C426.28342143 160.40765621 424.80789237 155.81867425 424.83544922 149.0534668 C424.83560028 147.81255783 424.83575134 146.57164886 424.83590698 145.2931366 C424.84611857 143.94932899 424.85655054 142.60552305 424.8671875 141.26171875 C424.87092069 139.8788117 424.87376622 138.49590198 424.87576294 137.11299133 C424.88337538 133.4846966 424.90300309 129.85656363 424.9251709 126.22833252 C424.94568101 122.52138456 424.95477567 118.8144103 424.96484375 115.10742188 C424.98625145 107.84237441 425.02035825 100.57745993 425.0625 93.3125 C422.4225 93.3125 419.7825 93.3125 417.0625 93.3125 C416.98 94.01375 416.8975 94.715 416.8125 95.4375 C416.0625 98.3125 416.0625 98.3125 414.04776001 100.89727783 C411.44175458 105.38036189 411.50103164 108.74223154 411.54833984 113.83105469 C411.54121475 114.77171783 411.53408966 115.71238098 411.52674866 116.68154907 C411.50749456 119.78270585 411.51574446 122.88317839 411.5234375 125.984375 C411.51352643 128.14903759 411.50158363 130.31369175 411.48770142 132.47833252 C411.45533813 138.17581767 411.44494844 143.8731107 411.44085693 149.57067871 C411.43210426 158.67505577 411.39640866 167.77927477 411.3486824 176.88352203 C411.33616022 180.05300374 411.33685035 183.22228339 411.33895874 186.39178467 C411.33237229 188.35331371 411.32536483 190.3148414 411.31787109 192.27636719 C411.32405708 193.58285721 411.32405708 193.58285721 411.33036804 194.91574097 C411.25441002 206.62322442 409.06983944 214.30516056 400.75 222.625 C392.71402559 227.6708444 383.6972324 228.80010816 374.44921875 226.7265625 C354.47402238 220.11868267 335.76661559 206.77091937 319.27734375 194.01953125 C317.5881131 192.71760216 315.83703517 191.49552345 314.0625 190.3125 C304.9502137 204.89601559 298.15237244 217.01605576 296.0625 234.3125 C297.031875 233.9825 298.00125 233.6525 299 233.3125 C307.86648089 230.83771919 316.37873371 232.36977584 324.484375 236.56640625 C333.79289094 242.29832798 338.14794206 249.95785983 341.0625 260.3125 C342.32697422 266.42263984 343.06034527 272.62262432 343.8125 278.8125 C343.91923035 279.67188171 344.02596069 280.53126343 344.13592529 281.41668701 C346.813496 303.26130693 347.82436522 323.60170071 341.69482422 344.98217773 C339.59793225 352.7099128 338.79863792 360.11381091 338.6015625 368.11328125 C337.95567138 371.94650466 336.87917344 373.66004957 334.0625 376.3125 C332.7425 376.3125 331.4225 376.3125 330.0625 376.3125 C330.0625 382.5825 330.0625 388.8525 330.0625 395.3125 C331.7125 395.9725 333.3625 396.6325 335.0625 397.3125 C336.8984375 398.96875 336.8984375 398.96875 338.0625 401.3125 C338.01680426 403.09047959 337.95948513 404.86967774 337.81762695 406.64257812 C337.04683041 419.49593588 344.10794439 428.86899874 350.86254883 439.13171387 C356.70131273 448.01142149 361.71179162 456.37956687 360.0625 467.3125 C358.24375694 474.4906161 354.99742312 479.83637101 349.0625 484.3125 C342.0636644 488.43572706 334.44793408 488.47030639 326.5703125 488.48046875 C325.21315628 488.48546135 325.21315628 488.48546135 323.82858276 488.49055481 C321.92072048 488.49560119 320.01284942 488.49796384 318.10498047 488.49780273 C315.20395195 488.49998761 312.30330503 488.51816332 309.40234375 488.53710938 C307.54166796 488.54004419 305.68099037 488.5420284 303.8203125 488.54296875 C302.96172638 488.55015427 302.10314026 488.55733978 301.21853638 488.56474304 C291.87914987 488.52974025 284.23951907 486.55992422 277.0625 480.3125 C270.69605378 472.31285617 270.35331709 464.19897542 271.0625 454.3125 C271.63736364 450.74884103 272.40002727 447.26840135 273.19726562 443.74829102 C277.09111008 426.31718429 277.6302925 409.19960714 277.5625 391.375 C277.56040527 390.17561798 277.55831055 388.97623596 277.55615234 387.74050903 C277.50347622 373.4827156 276.91547741 359.45438052 275.0625 345.3125 C273.76119141 345.73692383 273.76119141 345.73692383 272.43359375 346.16992188 C258.90653505 350.14873301 245.19795016 349.92708169 231.22460938 349.83398438 C227.75855337 349.81119476 224.29372676 349.82470128 220.82771301 349.84779358 C206.513921 349.92818493 192.79066459 349.7899623 179.0625 345.3125 C176.92086198 360.46334383 176.58858449 375.52623598 176.5625 390.8125 C176.55549072 392.69470245 176.55549072 392.69470245 176.54833984 394.6149292 C176.52292011 412.74988536 177.73004929 429.73964736 181.75 447.4140625 C183.89370696 457.272999 185.00040958 468.23460345 179.66796875 477.2265625 C174.54501179 483.88266716 168.07917471 486.51454533 160.0625 488.3125 C156.7685712 488.67869304 153.52655465 488.71214047 150.21484375 488.67578125 C149.3181044 488.67627975 148.42136505 488.67677826 147.49745178 488.67729187 C145.6176632 488.67496987 143.73787038 488.66535354 141.8581543 488.64868164 C139.00345682 488.62502864 136.14969304 488.62814316 133.29492188 488.63476562 C131.45572368 488.62918905 129.61652936 488.6220793 127.77734375 488.61328125 C126.93646713 488.61419266 126.09559052 488.61510406 125.22923279 488.61604309 C116.11279497 488.50848473 108.20742723 487.38176654 101.46875 480.7421875 C95.80553119 474.55151204 93.75787468 468.78447789 93.56640625 460.44921875 C94.70074621 453.27697474 97.39209544 447.83836795 102.171875 442.390625 C115.96126328 425.75429096 116.65051836 408.66898643 116.4375 387.875 C116.43338608 387.19963699 116.42927216 386.52427399 116.42503357 385.82844543 C116.32033005 369.55433383 115.16441323 354.19024112 110.67268372 338.50946045 C105.26772133 319.0489467 107.81868141 298.514509 110.3125 278.75 C110.46599411 277.4944632 110.46599411 277.4944632 110.62258911 276.21356201 C112.30154978 262.72124522 114.10390774 248.87829769 125.09765625 239.59375 C132.75399966 234.08442352 141.58455265 231.07344746 151.0625 232.3125 C153.40503482 232.94607677 155.74039294 233.60772507 158.0625 234.3125 C155.41702528 217.36425544 149.54788501 204.54057751 140.0625 190.3125 C139.35625488 190.85438965 139.35625488 190.85438965 138.63574219 191.40722656 C123.73150121 202.7775463 108.24513792 212.54835219 91.75 221.4375 C91.07501465 221.80399658 90.4000293 222.17049316 89.70458984 222.5480957 C79.9473484 227.6817436 69.97428213 229.11795873 59.3125 225.875 C52.72946461 223.20748928 47.96645247 218.294665 44.91015625 211.90234375 C42.93507522 205.86787958 42.92173951 199.94783484 42.93652344 193.67041016 C42.9346553 192.71678085 42.93278717 191.76315155 42.93086243 190.78062439 C42.92686944 188.7165008 42.9247846 186.65237281 42.92440033 184.58824539 C42.92097182 180.19396421 42.89959577 175.79982927 42.87916946 171.40559959 C42.84120949 163.23164244 42.80988627 155.05784456 42.81201172 146.88378906 C42.81279956 141.19026739 42.78940781 135.49728603 42.7501297 129.80390549 C42.73968319 127.63907679 42.73813568 125.47418564 42.74578094 123.30934525 C42.75542415 120.27676326 42.7341805 117.24581365 42.70605469 114.21337891 C42.71625137 113.32584427 42.72644806 112.43830963 42.73695374 111.52388 C42.64394753 105.91133253 41.48852667 102.53438895 38.13362503 98.00739098 C37.0625 96.3125 37.0625 96.3125 37.0625 93.3125 C34.4225 93.3125 31.7825 93.3125 29.0625 93.3125 C29.07138245 94.07147583 29.08026489 94.83045166 29.0894165 95.61242676 C29.16981495 102.79137712 29.23059169 109.97010688 29.26974869 117.14939117 C29.2905571 120.83969955 29.31874919 124.52963358 29.36425781 128.21972656 C29.40795943 131.78592061 29.43168776 135.35175631 29.44200897 138.91819763 C29.45291494 140.93000112 29.48410191 142.94166196 29.51568604 144.95324707 C29.51745865 152.23256948 29.08419459 157.16644999 25.0625 163.3125 C18.19411352 170.00477401 10.80837525 169.65619415 1.77026367 169.62817383 C-0.36526575 169.6250144 -2.49940719 169.64849795 -4.63476562 169.67382812 C-6.0052066 169.67610163 -7.37565127 169.67680438 -8.74609375 169.67578125 C-9.98157959 169.67876221 -11.21706543 169.68174316 -12.48999023 169.68481445 C-17.07632403 169.18951249 -20.43670545 167.7251976 -23.80078125 164.55859375 C-24.51814453 163.66333984 -24.51814453 163.66333984 -25.25 162.75 C-25.74113281 162.15058594 -26.23226563 161.55117187 -26.73828125 160.93359375 C-29.32266836 157.44004114 -29.08137934 154.75565834 -29.11450195 150.44775391 C-29.12435875 149.38893761 -29.12435875 149.38893761 -29.13441467 148.30873108 C-29.15415295 145.96884052 -29.16581062 143.62901411 -29.17578125 141.2890625 C-29.17985678 140.4905122 -29.1839323 139.6919619 -29.18813133 138.8692131 C-29.20899312 134.64360563 -29.22329503 130.41803066 -29.23266602 126.19238281 C-29.24373818 121.82517757 -29.27814656 117.45848078 -29.31783772 113.09145546 C-29.34396444 109.73543338 -29.35235425 106.37953326 -29.35594749 103.02341843 C-29.36082275 101.41344133 -29.37246348 99.80347001 -29.39098549 98.19359207 C-29.41529719 95.94066123 -29.41442748 93.68905662 -29.4074707 91.43603516 C-29.41333694 90.15411285 -29.41920319 88.87219055 -29.42524719 87.55142212 C-28.9375 84.3125 -28.9375 84.3125 -27.09562683 81.86727905 C-24.9375 80.3125 -24.9375 80.3125 -21.9375 80.3125 C-21.96029401 77.20670506 -22.03757819 74.10459516 -22.125 71 C-22.13080078 70.11892578 -22.13660156 69.23785156 -22.14257812 68.33007812 C-22.22605337 65.89074603 -22.34943015 63.68249577 -22.9375 61.3125 C-25.27059215 59.17631736 -25.27059215 59.17631736 -27.9375 58.3125 C-29.46471341 56.78528659 -29.08685458 55.40073513 -29.11450195 53.27099609 C-29.12733719 52.41275238 -29.14017242 51.55450867 -29.15339661 50.67025757 C-29.16078354 49.73493195 -29.16817047 48.79960632 -29.17578125 47.8359375 C-29.183853 46.87732819 -29.19192474 45.91871887 -29.20024109 44.93106079 C-29.21410417 42.894977 -29.22481632 40.85886976 -29.23266602 38.82275391 C-29.24981355 35.72122344 -29.29367181 32.62077683 -29.33789062 29.51953125 C-29.34802294 27.54167451 -29.35653736 25.56380869 -29.36328125 23.5859375 C-29.38078934 22.66275726 -29.39829742 21.73957703 -29.41633606 20.78842163 C-29.3923184 13.58734175 -27.83488253 9.20988253 -22.625 4 C-15.56907149 -0.43046674 -8.0870003 -0.02275464 0 0 Z M107.0625 93.3125 C105.4125 96.6125 103.7625 99.9125 102.0625 103.3125 C99.18506716 106.07483553 96.36833681 108.10860879 93.0625 110.3125 C92.64722876 112.43944665 92.64722876 112.43944665 92.76953125 114.8828125 C92.77919922 115.77871094 92.78886719 116.67460937 92.79882812 117.59765625 C92.82396484 118.53480469 92.84910156 119.47195312 92.875 120.4375 C92.88853516 121.38238281 92.90207031 122.32726562 92.91601562 123.30078125 C92.95143694 125.63858779 93.00082729 127.97526237 93.0625 130.3125 C93.79597656 129.56613281 94.52945313 128.81976563 95.28515625 128.05078125 C109.69270522 113.8458701 127.22908823 104.56783553 147.6484375 103.99609375 C148.35022125 103.97531265 149.052005 103.95453156 149.77505493 103.93312073 C151.99577958 103.86823676 154.21661276 103.8090277 156.4375 103.75 C157.95183371 103.70675646 159.46615683 103.6631404 160.98046875 103.61914062 C164.67436655 103.51261914 168.36838354 103.41118323 172.0625 103.3125 C172.0625 100.0125 172.0625 96.7125 172.0625 93.3125 C150.6125 93.3125 129.1625 93.3125 107.0625 93.3125 Z M282.0625 93.3125 C282.0625 96.6125 282.0625 99.9125 282.0625 103.3125 C283.39087891 103.32651855 283.39087891 103.32651855 284.74609375 103.34082031 C310.42062855 103.6814554 331.46168203 104.80381261 352.0625 122.3125 C352.73410156 122.87453125 353.40570313 123.4365625 354.09765625 124.015625 C356.50212919 126.04979923 358.83475789 128.08475789 361.0625 130.3125 C361.29639694 127.10541312 361.43737528 123.90052405 361.5625 120.6875 C361.62953125 119.78386719 361.6965625 118.88023437 361.765625 117.94921875 C361.97712869 112.74254618 361.97712869 112.74254618 359.34936523 108.47241211 C357.93744726 107.44936506 356.49088664 106.47236478 355.01318359 105.546875 C352.67847028 104.06948945 351.4700873 102.52318056 350.125 100.125 C349.74472656 99.47144531 349.36445313 98.81789063 348.97265625 98.14453125 C348.0625 96.3125 348.0625 96.3125 347.0625 93.3125 C325.6125 93.3125 304.1625 93.3125 282.0625 93.3125 Z " fill="#010101" transform="translate(28.9375,11.6875)"/>
<path d="M0 0 C2.64 0 5.28 0 8 0 C7.98428955 1.29921387 7.9685791 2.59842773 7.95239258 3.93701172 C7.89730191 8.84612608 7.86336786 13.75521434 7.83520508 18.66455078 C7.82029594 20.77267073 7.79996151 22.88076067 7.77368164 24.98876953 C7.58200612 40.78132946 8.60336044 55.39561066 12.75 70.6875 C14.53914994 77.6442479 13.45301154 82.05807346 10.625 88.5625 C6.76187599 97.51690883 4.9406596 106.26384468 5.0625 116 C4.875 119.234375 4.875 119.234375 4 122 C1.22932693 124.13268914 -1.48482197 125.26894003 -4.7265625 126.56640625 C-13.49252271 130.40543656 -18.95534562 137.73040588 -23.625 145.8125 C-25 148 -25 148 -27 149 C-28.39239803 149.11414973 -29.7898972 149.16929997 -31.18676758 149.19287109 C-32.05139114 149.20893402 -32.91601471 149.22499695 -33.80683899 149.24154663 C-37.76290103 149.28600609 -41.71879538 149.3270618 -45.67504883 149.35009766 C-47.76142531 149.36665749 -49.84774507 149.39394778 -51.93383789 149.43212891 C-54.9418684 149.48690264 -57.94856917 149.50877242 -60.95703125 149.5234375 C-61.887397 149.54610687 -62.81776276 149.56877625 -63.77632141 149.59213257 C-68.35987184 149.57718738 -70.3316312 149.52772188 -74.03271484 146.60546875 C-75.75526603 144.32412521 -77.34722176 142.07745965 -78.8125 139.625 C-83.51262922 132.44986603 -88.32457203 128.59566896 -96.375 125.6875 C-101.51760887 123.29363816 -101.51760887 123.29363816 -102.68115234 120.17333984 C-103.60061485 115.55698207 -103.71775778 110.88329206 -103.87695312 106.18994141 C-104.27790888 99.05388363 -106.61687672 92.59435766 -109.75 86.25 C-112.01712129 81.45626762 -112.37013531 78.1175915 -111 73 C-110.51736657 70.95915007 -110.03856484 68.91739216 -109.5625 66.875 C-109.31097168 65.79702148 -109.05944336 64.71904297 -108.80029297 63.60839844 C-105.78156374 49.99741064 -105.58536792 36.50490017 -105.375 22.625 C-105.33673037 20.52081876 -105.29767376 18.41665169 -105.2578125 16.3125 C-105.16280929 11.2084511 -105.07843005 6.10432936 -105 1 C-98.27246094 0.77148438 -98.27246094 0.77148438 -95.8203125 2.828125 C-95.26085937 3.62734375 -94.70140625 4.4265625 -94.125 5.25 C-93.55007812 6.03890625 -92.97515625 6.8278125 -92.3828125 7.640625 C-90.1068731 11.52386624 -89.88846376 14.7641174 -90.0078125 19.21875 C-90.49868628 34.87125327 -90.49868628 34.87125327 -87 50 C-86.63648438 51.00933594 -86.27296875 52.01867187 -85.8984375 53.05859375 C-80.90297575 65.96622234 -73.95018064 76.09168547 -61.234375 82.0546875 C-53.28620975 85.4173728 -44.38383768 84.81894399 -36.3046875 82.03125 C-23.91843446 76.48892661 -16.73879767 65.21721273 -12 53 C-9.55224948 45.95315574 -7.79191736 39.42379709 -8.1484375 31.921875 C-8.18324219 30.76042969 -8.21804688 29.59898437 -8.25390625 28.40234375 C-8.3341476 25.98216124 -8.43803436 23.56263851 -8.56640625 21.14453125 C-8.74310561 13.52963025 -7.84130878 9.34536392 -2.61572266 3.68066406 C-1.81593994 2.84873535 -1.81593994 2.84873535 -1 2 C-0.67 1.34 -0.34 0.68 0 0 Z " fill="#FCA75B" transform="translate(305,130)"/>
<path d="M0 0 C9.13654599 5.62856352 14.99821668 13.44774762 18.35888672 23.66040039 C19.00771104 27.00683928 18.99548635 30.33426603 19.015625 33.73046875 C19.02132507 34.48032547 19.02702515 35.23018219 19.03289795 36.00276184 C19.04232831 37.58882242 19.04887412 39.17490241 19.05273438 40.76098633 C19.06239729 43.16197929 19.09342039 45.56209988 19.125 47.96289062 C19.22508508 62.23599102 16.53012058 72.20315671 6.4375 82.6875 C-2.50779263 91.19740228 -9.19823502 94.35942788 -21.5625 94.375 C-22.57828125 94.39949219 -23.5940625 94.42398438 -24.640625 94.44921875 C-34.46461352 94.48749403 -39.70472522 90.92692595 -46.75 84.375 C-47.31501221 83.85083496 -47.88002441 83.32666992 -48.4621582 82.78662109 C-55.5118074 76.03602318 -60.72036629 68.12808772 -61.47802734 58.1887207 C-61.50450142 56.76790689 -61.51905682 55.34683493 -61.5234375 53.92578125 C-61.5300943 53.16130173 -61.5367511 52.3968222 -61.54360962 51.60917664 C-61.55369446 49.9963927 -61.55842794 48.38356739 -61.55810547 46.77075195 C-61.56245678 44.33667862 -61.59875687 41.90445373 -61.63671875 39.47070312 C-61.73356938 26.24847504 -59.64769323 15.88407154 -50.1875 6 C-37.79063469 -5.35344177 -15.02517656 -7.82024565 0 0 Z " fill="#FDDECE" transform="translate(277.1875,52)"/>
<path d="M0 0 C5.94 0 11.88 0 18 0 C18.03738281 2.90167969 18.07476562 5.80335938 18.11328125 8.79296875 C18.15951934 11.60953218 18.21074471 14.42596392 18.26245117 17.24243164 C18.29566354 19.19677702 18.32370695 21.15121747 18.34643555 23.10571289 C18.38004933 25.91854282 18.43236854 28.73050447 18.48828125 31.54296875 C18.49467117 32.41398727 18.5010611 33.2850058 18.50764465 34.18241882 C18.62173936 38.91167494 18.90728099 42.17261211 22 46 C25.10048928 47.55024464 27.57894218 47.28992015 31 47 C34.77848384 44.45969625 36.86221596 41.94290899 39.0625 38 C48.22709844 23.12989234 62.28343084 13.31070141 78.6875 7.75 C82.54821651 6.85054817 86.31726597 6.92559907 90.26953125 6.953125 C91.52999268 6.95989258 92.7904541 6.96666016 94.08911133 6.97363281 C95.04970459 6.98233398 96.01029785 6.99103516 97 7 C97.05033814 12.49111675 97.08615097 17.98209228 97.10986328 23.47338867 C97.11977319 25.33213649 97.13330498 27.19086939 97.15087891 29.04956055 C97.26862574 41.84587106 96.62028931 54.3034714 95 67 C93 67 93 67 91 65.0625 C90.34 64.381875 89.68 63.70125 89 63 C85.20933981 61.10466991 81.11661383 61.35016577 77 62 C73.74610381 63.66148825 71.16903105 65.90550115 68.4375 68.3125 C66.86236325 69.61328565 65.28284059 70.90877659 63.69921875 72.19921875 C62.91208496 72.84552246 62.12495117 73.49182617 61.31396484 74.15771484 C46.94791931 85.59537886 24.9269571 102.04765325 6 100 C2.38308725 97.90219061 1.31708591 96.95125774 0 93 C-0.09169534 90.03276394 -0.12594642 87.08942724 -0.11352539 84.12231445 C-0.11367142 83.21479431 -0.11381744 82.30727417 -0.1139679 81.37225342 C-0.11327061 78.36923848 -0.10548676 75.36628537 -0.09765625 72.36328125 C-0.09579142 70.28248631 -0.09436782 68.20169092 -0.09336853 66.12089539 C-0.08954849 60.6414977 -0.07972255 55.16212648 -0.06866455 49.68273926 C-0.05843943 44.09253294 -0.05386855 38.50232235 -0.04882812 32.91210938 C-0.03809985 21.94139275 -0.02050717 10.97070271 0 0 Z " fill="#FDDDCD" transform="translate(88,123)"/>
<path d="M0 0 C5.94 0 11.88 0 18 0 C18.06776752 12.03933368 18.12281146 24.07854075 18.15543652 36.11802197 C18.17109462 41.70839205 18.19233576 47.29862491 18.22631836 52.88891602 C18.25890631 58.28352012 18.27685193 63.67799221 18.28463173 69.07268715 C18.29017622 71.13118887 18.3010032 73.18968334 18.31719017 75.24812889 C18.33895673 78.13066619 18.34196722 81.01265745 18.34057617 83.89526367 C18.351362 84.74690598 18.36214783 85.59854828 18.3732605 86.47599792 C18.34889711 91.13948996 18.054287 94.23129228 15 98 C10.01556499 101.32295668 5.81591295 101.11867006 0 100 C-18.96816265 92.81527472 -36.66693095 79.57550549 -52.40625 66.98828125 C-57.66130083 62.95993656 -60.95054959 61.46118736 -67.55078125 61.62890625 C-71.22949341 62.18628688 -73.1805861 63.62575672 -76 66 C-80.94170022 54.13991947 -79.12022223 39.36394119 -79.0625 26.75 C-79.05747402 24.82942825 -79.05291306 22.90885523 -79.04882812 20.98828125 C-79.03791167 16.32548882 -79.0207078 11.66275881 -79 7 C-60.31926745 6.60463128 -46.01039971 11.72814771 -32.3125 24.6796875 C-26.58526472 30.42627155 -21.58453001 36.23086385 -17.32421875 43.15234375 C-15.96517293 45.27827774 -15.96517293 45.27827774 -13 47 C-10.81122932 47.212876 -10.81122932 47.212876 -8.5 46.9375 C-7.7265625 46.88464844 -6.953125 46.83179688 -6.15625 46.77734375 C-3.84533924 46.15257258 -3.84533924 46.15257258 -2.3972168 44.04248047 C-0.46661133 39.83853057 -0.52185408 36.11932375 -0.48828125 31.54296875 C-0.46135445 30.18852409 -0.46135445 30.18852409 -0.43388367 28.80671692 C-0.37986979 25.93369156 -0.34591363 23.06083149 -0.3125 20.1875 C-0.27931904 18.23500309 -0.24482866 16.28252796 -0.20898438 14.33007812 C-0.12169208 9.5533628 -0.06154794 4.77739353 0 0 Z " fill="#FDDDCD" transform="translate(406,123)"/>
<path d="M0 0 C4.39838399 2.05037449 6.88286503 4.25596671 9.703125 8.28125 C10.6730957 11.47290039 10.6730957 11.47290039 11.31640625 15.06640625 C11.43494461 15.71803238 11.55348297 16.36965851 11.6756134 17.04103088 C12.88242271 23.87313941 13.81309642 30.7456144 14.63842773 37.63305664 C14.89028367 39.7159272 15.15857137 41.79625705 15.42773438 43.87695312 C17.40709536 59.75976542 17.91935752 75.4635761 12.5 90.75390625 C9.36425897 100.69912413 7.92220061 110.87393074 8.703125 121.28125 C8.74953125 122.01988281 8.7959375 122.75851562 8.84375 123.51953125 C9.12734375 124.10089844 9.4109375 124.68226563 9.703125 125.28125 C12.673125 126.27125 12.673125 126.27125 15.703125 127.28125 C15.703125 133.88125 15.703125 140.48125 15.703125 147.28125 C13.723125 148.27125 11.743125 149.26125 9.703125 150.28125 C7.74239951 154.20270098 8.10006227 158.91494 7.703125 163.28125 C-1.866875 163.28125 -11.436875 163.28125 -21.296875 163.28125 C-21.33554687 157.42246094 -21.33554687 157.42246094 -21.375 151.4453125 C-21.41356867 147.60247019 -21.45868101 143.7597554 -21.50439453 139.91699219 C-21.53448251 137.27526739 -21.55369906 134.63411916 -21.56787109 131.9921875 C-21.66657343 114.6205768 -22.85712562 99.24227845 -28.046875 82.65625 C-32.08676487 66.00292619 -29.03592511 47.90932254 -26.984375 31.15625 C-26.87786621 30.26659546 -26.77135742 29.37694092 -26.66162109 28.46032715 C-26.34964692 25.89600831 -26.02015685 23.33463383 -25.68359375 20.7734375 C-25.58966843 20.00556915 -25.4957431 19.23770081 -25.39897156 18.44656372 C-24.53630957 12.19294958 -22.81970951 7.04360767 -17.734375 2.96875 C-17.13496094 2.47761719 -16.53554688 1.98648437 -15.91796875 1.48046875 C-11.34234916 -1.90438719 -5.30007725 -1.65852758 0 0 Z " fill="#FDDDCE" transform="translate(343.296875,260.71875)"/>
<path d="M0 0 C5.00243545 4.52601303 7.62604916 6.92852557 8.6328125 13.671875 C8.79523438 14.74050781 8.95765625 15.80914062 9.125 16.91015625 C9.3725 18.62525391 9.3725 18.62525391 9.625 20.375 C9.8003125 21.52871094 9.975625 22.68242187 10.15625 23.87109375 C16.72129864 67.87594876 16.72129864 67.87594876 11.5847168 84.27270508 C6.36143579 101.15701741 5.96938931 117.40407719 5.875 135 C5.84891704 137.66411879 5.81684795 140.32812468 5.78515625 142.9921875 C5.70881235 149.45329257 5.66765189 155.91323813 5.625 162.375 C-3.945 162.375 -13.515 162.375 -23.375 162.375 C-23.41238281 158.57871094 -23.44976562 154.78242188 -23.48828125 150.87109375 C-23.53464386 147.14748752 -23.58582379 143.42397599 -23.63745117 139.70043945 C-23.67047058 137.13539505 -23.69857203 134.57028199 -23.72143555 132.00512695 C-23.8044883 111.98416801 -23.8044883 111.98416801 -27.375 92.375 C-27.57424072 91.60728271 -27.77348145 90.83956543 -27.97875977 90.04858398 C-28.4483474 88.31347175 -28.97049193 86.5927742 -29.5 84.875 C-33.92933743 70.4539014 -32.73829962 55.6381806 -30.83081055 40.89282227 C-30.56226668 38.810691 -30.31033007 36.72703479 -30.06054688 34.64257812 C-29.21959134 27.78666274 -28.224597 20.95640048 -26.98828125 14.16015625 C-26.77598877 12.97429932 -26.56369629 11.78844238 -26.3449707 10.56665039 C-24.85527812 5.66487562 -22.34693101 3.10890709 -18.3125 0.0625 C-12.49237251 -3.01062766 -5.82976238 -2.80692263 0 0 Z " fill="#FDDDCE" transform="translate(184.375,261.625)"/>
<path d="M0 0 C3.28293391 1.38675656 4.93914832 2.86032754 7 5.75 C7.77150391 6.81734375 7.77150391 6.81734375 8.55859375 7.90625 C9.76642488 9.66071474 10.92118104 11.45155801 12.0625 13.25 C15.558296 18.21177497 19.18284541 20.48415416 25 22 C28.57758236 22.31798537 32.14412127 22.35159861 35.734375 22.37109375 C36.76757874 22.38012222 37.80078247 22.3891507 38.86529541 22.39845276 C41.04721188 22.4129274 43.22917147 22.42183505 45.41113281 22.42553711 C48.72536592 22.43741174 52.03772297 22.48660855 55.3515625 22.53710938 C57.47915765 22.54657733 59.60676416 22.55381058 61.734375 22.55859375 C63.20363434 22.58789223 63.20363434 22.58789223 64.70257568 22.61778259 C72.6313098 22.56656568 79.53380124 20.46619876 85.25 14.75 C85.8275 13.8425 86.405 12.935 87 12 C88.01744829 10.45609723 89.03857935 8.91461791 90.0625 7.375 C90.54847656 6.61960937 91.03445313 5.86421875 91.53515625 5.0859375 C92.89981143 3.14266852 94.19285355 1.53778858 96 0 C96.66 0 97.32 0 98 0 C97.84853516 1.09014404 97.69707031 2.18028809 97.54101562 3.3034668 C94.46910332 25.65585994 92.10882201 47.40795247 93 70 C82.85726518 74.1322253 73.40613628 75.3139895 62.484375 75.3359375 C61.31094543 75.3425943 60.13751587 75.3492511 58.92852783 75.35610962 C56.4577388 75.36618484 53.98692284 75.37092824 51.51611328 75.37060547 C47.77459954 75.3749713 44.03427386 75.41132838 40.29296875 75.44921875 C15.43522547 75.56577183 15.43522547 75.56577183 6 71 C4.72926968 68.45853935 4.96378376 66.85625916 5.078125 64.015625 C5.59370073 45.12120663 3.56970561 27.07484684 0.76226807 8.41825867 C0.33852406 5.57674765 0 2.87821691 0 0 Z " fill="#658B96" transform="translate(207,271)"/>
<path d="M0 0 C1.12019531 -0.00128906 2.24039062 -0.00257812 3.39453125 -0.00390625 C4.57402344 -0.00003906 5.75351562 0.00382812 6.96875 0.0078125 C8.73798828 0.00201172 8.73798828 0.00201172 10.54296875 -0.00390625 C12.22326172 -0.00197266 12.22326172 -0.00197266 13.9375 0 C14.97326172 0.00112793 16.00902344 0.00225586 17.07617188 0.00341797 C19.46875 0.1328125 19.46875 0.1328125 20.46875 1.1328125 C20.56724988 2.88943274 20.59507077 4.65004427 20.59573364 6.40942383 C20.59855347 7.55367828 20.60137329 8.69793274 20.60427856 9.87686157 C20.60225433 11.14339569 20.6002301 12.40992981 20.59814453 13.71484375 C20.59949856 15.05325366 20.60127851 16.3916632 20.60345459 17.73007202 C20.60802869 21.37460105 20.60623946 25.01910189 20.6030755 28.66363144 C20.60055178 32.46952137 20.60288947 36.27540881 20.60446167 40.08129883 C20.60628333 46.4738 20.60387715 52.86628964 20.59912109 59.25878906 C20.59367848 66.65975653 20.59544114 74.06069645 20.6009475 81.46166325 C20.60547873 87.80474872 20.60612913 94.14782587 20.60350883 100.49091244 C20.60194611 104.28428029 20.60175215 108.07763517 20.60504532 111.8710022 C20.60792418 115.43648194 20.60594807 119.00192601 20.60015106 122.56740189 C20.59818796 124.50785523 20.60117725 126.44831157 20.60427856 128.38876343 C20.60145874 129.53301788 20.59863892 130.67727234 20.59573364 131.85620117 C20.59535662 132.85689133 20.59497959 133.85758148 20.59459114 134.88859558 C20.46875 137.1328125 20.46875 137.1328125 19.46875 138.1328125 C15.49599185 138.38538127 11.51108825 138.31803701 7.53125 138.3203125 C6.40783203 138.33255859 5.28441406 138.34480469 4.12695312 138.35742188 C3.05509766 138.35935547 1.98324219 138.36128906 0.87890625 138.36328125 C-0.10972412 138.36739014 -1.09835449 138.37149902 -2.11694336 138.37573242 C-4.53125 138.1328125 -4.53125 138.1328125 -6.53125 136.1328125 C-6.7828064 133.37564087 -6.7828064 133.37564087 -6.78662109 129.81884766 C-6.79024155 129.17149155 -6.793862 128.52413544 -6.79759216 127.85716248 C-6.80449102 126.44995154 -6.80699068 125.04271381 -6.80564499 123.6354866 C-6.80468138 121.40771584 -6.81760196 119.18042977 -6.83462524 116.95272827 C-6.8809467 110.61858904 -6.90550292 104.284498 -6.91210938 97.95019531 C-6.9171238 94.07678486 -6.94137126 90.2038786 -6.97743607 86.33063889 C-6.98723779 84.85469973 -6.98956393 83.37869123 -6.98426437 81.90272903 C-6.97719434 79.83646036 -6.99447158 77.77169319 -7.01708984 75.70556641 C-7.01993988 74.53023346 -7.02278992 73.35490051 -7.02572632 72.14395142 C-7.63701465 68.50282803 -8.63490616 67.35234352 -11.53125 65.1328125 C-12.52125 64.8028125 -13.51125 64.4728125 -14.53125 64.1328125 C-14.53125 57.5328125 -14.53125 50.9328125 -14.53125 44.1328125 C-12.55125 43.1428125 -10.57125 42.1528125 -8.53125 41.1328125 C-6.8987431 37.86779871 -7.30962641 34.25187334 -7.25 30.66015625 C-7.23159058 29.82190811 -7.21318115 28.98365997 -7.19421387 28.12001038 C-7.11537536 24.52471928 -7.04764844 20.92923814 -6.97900391 17.33374023 C-6.92740422 14.71328088 -6.87011294 12.09298914 -6.8125 9.47265625 C-6.79892456 8.65288803 -6.78534912 7.83311981 -6.7713623 6.98851013 C-6.62492277 0.38148456 -6.536634 0.0071183 0 0 Z " fill="#668C97" transform="translate(21.53125,27.8671875)"/>
<path d="M0 0 C1.12019531 -0.00128906 2.24039062 -0.00257812 3.39453125 -0.00390625 C4.57402344 -0.00003906 5.75351562 0.00382812 6.96875 0.0078125 C8.73798828 0.00201172 8.73798828 0.00201172 10.54296875 -0.00390625 C12.22326172 -0.00197266 12.22326172 -0.00197266 13.9375 0 C14.97326172 0.00112793 16.00902344 0.00225586 17.07617188 0.00341797 C19.46875 0.1328125 19.46875 0.1328125 20.46875 1.1328125 C20.56940315 2.87444867 20.59951566 4.62019109 20.60246277 6.36473083 C20.60672775 7.49912598 20.61099274 8.63352112 20.61538696 9.80229187 C20.61493378 11.05790421 20.61448059 12.31351654 20.61401367 13.60717773 C20.61737228 14.9208432 20.6207309 16.23450867 20.62419128 17.58798218 C20.63305195 21.20158299 20.63537026 24.81516015 20.63600707 28.42877078 C20.63695448 31.44085284 20.64063083 34.45292934 20.64417917 37.46500927 C20.6523316 44.56887947 20.65476268 51.67273699 20.65405273 58.77661133 C20.65345174 66.11509608 20.66400606 73.45350737 20.6797964 80.79197353 C20.69285327 87.08327152 20.69823741 93.37454545 20.69759732 99.6658569 C20.69734179 103.42742018 20.70022345 107.18891822 20.71077538 110.95046806 C20.7222155 115.14338106 20.71772094 119.33612853 20.71166992 123.52905273 C20.71728943 124.78264084 20.72290894 126.03622894 20.72869873 127.32780457 C20.72450424 128.46501953 20.72030975 129.6022345 20.71598816 130.77391052 C20.71653293 131.76630454 20.71707769 132.75869856 20.71763897 133.78116512 C20.46875 136.1328125 20.46875 136.1328125 18.46875 138.1328125 C16.05444336 138.37573242 16.05444336 138.37573242 13.05859375 138.36328125 C11.98673828 138.36134766 10.91488281 138.35941406 9.81054688 138.35742188 C8.68712891 138.34517578 7.56371094 138.33292969 6.40625 138.3203125 C4.71532227 138.3193457 4.71532227 138.3193457 2.99023438 138.31835938 C-5.39111683 138.27294567 -5.39111683 138.27294567 -6.53125 137.1328125 C-6.62974988 135.37619226 -6.65757077 133.61558073 -6.65823364 131.85620117 C-6.66105347 130.71194672 -6.66387329 129.56769226 -6.66677856 128.38876343 C-6.66475433 127.12222931 -6.6627301 125.85569519 -6.66064453 124.55078125 C-6.66199856 123.21237134 -6.66377851 121.8739618 -6.66595459 120.53555298 C-6.67052869 116.89102395 -6.66873946 113.24652311 -6.6655755 109.60199356 C-6.66305178 105.79610363 -6.66538947 101.99021619 -6.66696167 98.18432617 C-6.66878333 91.791825 -6.66637715 85.39933536 -6.66162109 79.00683594 C-6.65617848 71.60586847 -6.65794114 64.20492855 -6.6634475 56.80396175 C-6.66797873 50.46087628 -6.66862913 44.11779913 -6.66600883 37.77471256 C-6.66444611 33.98134471 -6.66425215 30.18798983 -6.66754532 26.3946228 C-6.67042418 22.82914306 -6.66844807 19.26369899 -6.66265106 15.69822311 C-6.66068796 13.75776977 -6.66367725 11.81731343 -6.66677856 9.87686157 C-6.66395874 8.73260712 -6.66113892 7.58835266 -6.65823364 6.40942383 C-6.65785662 5.40873367 -6.65747959 4.40804352 -6.65709114 3.37702942 C-6.41166558 -0.99982368 -3.78712963 0.00412413 0 0 Z " fill="#4E737C" transform="translate(476.53125,27.8671875)"/>
<path d="M0 0 C9.70838367 -0.62188935 9.70838367 -0.62188935 14.375 1.625 C19.37743545 6.15101303 22.00104916 8.55352557 23.0078125 15.296875 C23.17023438 16.36550781 23.33265625 17.43414062 23.5 18.53515625 C23.7475 20.25025391 23.7475 20.25025391 24 22 C24.26296875 23.73056641 24.26296875 23.73056641 24.53125 25.49609375 C31.09629864 69.50094876 31.09629864 69.50094876 25.9597168 85.89770508 C20.73643579 102.78201741 20.34438931 119.02907719 20.25 136.625 C20.22391704 139.28911879 20.19184795 141.95312468 20.16015625 144.6171875 C20.0869812 151.07809278 20.03699044 157.5387904 20 164 C15.05 164 10.1 164 5 164 C4.95011888 157.13558988 4.91405501 150.27128806 4.89013672 143.40673828 C4.88015292 141.07729247 4.86656117 138.74785895 4.84912109 136.41845703 C4.73408078 120.64439968 4.87958483 105.82710443 9.5625 90.625 C10.0070113 89.160575 10.44587434 87.69442293 10.87890625 86.2265625 C11.0704126 85.60346191 11.26191895 84.98036133 11.45922852 84.33837891 C15.19430231 68.18734647 12.88882852 50.96219846 10.65625 34.7800293 C10.24548 31.77948281 9.86399927 28.77611317 9.484375 25.77148438 C9.22568804 23.83310171 8.96533292 21.89494077 8.703125 19.95703125 C8.59252747 19.0736055 8.48192993 18.19017975 8.36798096 17.27998352 C7.57206982 11.70696665 6.25205966 6.68181054 3 2 C2.01 1.34 1.02 0.68 0 0 Z " fill="#FDCCBD" transform="translate(170,260)"/>
<path d="M0 0 C6.79324808 -0.50114125 12.42212277 -0.25039116 18 4 C21.52048238 7.78333253 22.70707592 10.72313109 23.61328125 15.78515625 C23.73181961 16.43678238 23.85035797 17.08840851 23.9724884 17.75978088 C25.17929771 24.59188941 26.10997142 31.4643644 26.93530273 38.35180664 C27.18715867 40.4346772 27.45544637 42.51500705 27.72460938 44.59570312 C29.70397036 60.47851542 30.21623252 76.1823261 24.796875 91.47265625 C21.66113397 101.41787413 20.21907561 111.59268074 21 122 C21.04640625 122.73863281 21.0928125 123.47726562 21.140625 124.23828125 C21.42421875 124.81964844 21.7078125 125.40101563 22 126 C23.98 126.66 25.96 127.32 28 128 C28 134.6 28 141.2 28 148 C26.02 148.99 24.04 149.98 22 151 C20.71553081 153.56893838 20.67022856 155.76576337 20.4375 158.625 C20.293125 160.39875 20.14875 162.1725 20 164 C15.71 164 11.42 164 7 164 C6.92528622 156.28110823 6.8711327 148.56243165 6.83520508 140.84326172 C6.82021156 138.22278166 6.79980998 135.60232629 6.77368164 132.98193359 C6.7368809 129.19362252 6.72017858 125.40564607 6.70703125 121.6171875 C6.69154739 120.46451385 6.67606354 119.31184021 6.66011047 118.12423706 C6.65812967 108.33262615 8.46100776 99.2144072 11.16796875 89.828125 C16.67409018 70.50395938 14.25581501 50.62483796 11.75 31 C11.64785187 30.17835358 11.54570374 29.35670715 11.44046021 28.51016235 C10.19655032 15.09467324 10.19655032 15.09467324 5 3 C2.45564691 1.71943063 2.45564691 1.71943063 0 1 C0 0.67 0 0.34 0 0 Z " fill="#FDCCBD" transform="translate(331,260)"/>
<path d="M0 0 C6.25656248 0.04138539 11.95882743 0.28006655 16.56323242 4.92016602 C22.2177115 11.77904708 25.85363066 20.13113854 29.17041016 28.31005859 C30.04072903 30.95049124 30.04072903 30.95049124 31.30493164 32.08569336 C31.88243355 36.66783964 31.91070247 40.08303819 29.49243164 44.08569336 C26.4142595 46.90002217 23.92752554 47.21217382 19.9128418 47.27856445 C19.02827301 47.29462738 18.14370422 47.31069031 17.23233032 47.32723999 C13.19729491 47.37179186 9.16242106 47.41273615 5.12719727 47.43579102 C2.99915645 47.45236555 0.87117164 47.47967511 -1.2565918 47.51782227 C-4.32752302 47.5725753 -7.39715236 47.59446064 -10.46850586 47.60913086 C-11.41760834 47.63180023 -12.36671082 47.6544696 -13.34457397 47.67782593 C-17.98858469 47.66296904 -20.01082181 47.62116705 -23.77172852 44.67797852 C-28.47958687 38.33270814 -26.36910279 30.64330361 -25.2668457 23.19018555 C-24.76437084 20.04712885 -24.23750107 16.90959511 -23.69506836 13.77319336 C-23.51693604 12.7404126 -23.33880371 11.70763184 -23.15527344 10.64355469 C-20.97279925 -1.55322422 -11.1010382 0.36763188 0 0 Z " fill="#668B96" transform="translate(341.695068359375,436.914306640625)"/>
<path d="M0 0 C11.22 0 22.44 0 34 0 C35.81873736 6.36558077 37.05107187 12.49279103 38.125 19 C38.30675781 20.05445313 38.48851562 21.10890625 38.67578125 22.1953125 C40.95265152 35.85653409 40.95265152 35.85653409 38.75 40.8125 C36.47554789 43.65556514 34.47519663 44.81699831 30.84425354 45.26742554 C30.06879684 45.27504913 29.29334015 45.28267273 28.49438477 45.29052734 C27.60989151 45.30328705 26.72539825 45.31604675 25.81410217 45.32919312 C24.86611252 45.33141876 23.91812286 45.33364441 22.94140625 45.3359375 C21.46945045 45.3459227 21.46945045 45.3459227 19.96775818 45.35610962 C17.89413323 45.36622642 15.82047578 45.37092694 13.74682617 45.37060547 C10.5774162 45.37497941 7.40939811 45.41131186 4.24023438 45.44921875 C2.22396309 45.45508696 0.2076852 45.45905632 -1.80859375 45.4609375 C-2.75455917 45.47530853 -3.7005246 45.48967957 -4.67515564 45.50448608 C-8.97534407 45.47467669 -11.34958765 45.40275673 -15.07446289 43.09619141 C-18.03139889 39.87719147 -18.61228382 37.24301543 -18.56201172 32.83935547 C-17.30017575 26.46439791 -13.0414218 20.955347 -9.5625 15.5625 C-8.75008849 14.27265694 -7.93952373 12.98164875 -7.13085938 11.68945312 C-5.65651544 9.33676196 -4.17020791 6.99362762 -2.67407227 4.65454102 C-1.03512032 2.15260639 -1.03512032 2.15260639 0 0 Z " fill="#668C97" transform="translate(157,439)"/>
<path d="M0 0 C3.96 0 7.92 0 12 0 C13.71117674 1.71117674 13.12610286 3.9388743 13.12698364 6.27661133 C13.12980347 7.42086578 13.13262329 8.56512024 13.13552856 9.74404907 C13.13350433 11.01058319 13.1314801 12.27711731 13.12939453 13.58203125 C13.13074856 14.92044116 13.13252851 16.2588507 13.13470459 17.59725952 C13.13927869 21.24178855 13.13748946 24.88628939 13.1343255 28.53081894 C13.13180178 32.33670887 13.13413947 36.14259631 13.13571167 39.94848633 C13.13753333 46.3409875 13.13512715 52.73347714 13.13037109 59.12597656 C13.12492848 66.52694403 13.12669114 73.92788395 13.1321975 81.32885075 C13.13672873 87.67193622 13.13737913 94.01501337 13.13475883 100.35809994 C13.13319611 104.15146779 13.13300215 107.94482267 13.13629532 111.7381897 C13.13917418 115.30366944 13.13719807 118.86911351 13.13140106 122.43458939 C13.12943796 124.37504273 13.13242725 126.31549907 13.13552856 128.25595093 C13.13129883 129.97233261 13.13129883 129.97233261 13.12698364 131.72338867 C13.12660662 132.72407883 13.12622959 133.72476898 13.12584114 134.75578308 C13 137 13 137 12 138 C10.21928754 138.08726223 8.4351686 138.10699041 6.65234375 138.09765625 C5.57275391 138.09443359 4.49316406 138.09121094 3.38085938 138.08789062 C2.24455078 138.07951172 1.10824219 138.07113281 -0.0625 138.0625 C-1.20267578 138.05798828 -2.34285156 138.05347656 -3.51757812 138.04882812 C-6.34510351 138.03699747 -9.1725264 138.0205141 -12 138 C-12 137.67 -12 137.34 -12 137 C-8.04 137 -4.08 137 0 137 C0 91.79 0 46.58 0 0 Z " fill="#4D727B" transform="translate(29,28)"/>
<path d="M0 0 C3.96 0 7.92 0 12 0 C12 45.21 12 90.42 12 137 C7.71 137 3.42 137 -1 137 C-1.02311825 119.28507486 -1.04097884 101.57015488 -1.05181217 83.85521793 C-1.05697527 75.63044281 -1.06401823 67.40567721 -1.07543945 59.1809082 C-1.08538586 52.01479554 -1.09185332 44.84868977 -1.09408849 37.6825704 C-1.09539568 33.88583011 -1.09848198 30.08910955 -1.10573006 26.29237556 C-1.1124896 22.72281098 -1.1146171 19.15327437 -1.11310768 15.58370399 C-1.11351636 13.64085154 -1.1189119 11.69800216 -1.12442017 9.75515747 C-1.1230455 8.60945786 -1.12167084 7.46375824 -1.12025452 6.28334045 C-1.12117631 5.28135148 -1.1220981 4.27936251 -1.12304783 3.24701023 C-1 1 -1 1 0 0 Z " fill="#668C97" transform="translate(471,28)"/>
<path d="M0 0 C2.74719276 1.08222745 5.32225905 2.17644438 7.91796875 3.59765625 C13.69256105 6.07203549 20.15142028 5.471642 26.3125 5.4375 C27.58029297 5.45748047 28.84808594 5.47746094 30.15429688 5.49804688 C38.02705198 5.49396984 43.93810492 4.44185091 51 1 C51.99 0.67 52.98 0.34 54 0 C54.75348063 14.17659852 51.30907099 26.99690073 42.0625 37.9375 C37.48689056 42.7602094 33.83343703 45.08072269 27.125 45.5 C20.7930496 45.28132904 16.88494512 42.68715929 12.34765625 38.4609375 C3.12316279 28.55575623 -0.49931253 15.26253669 -0.10546875 1.984375 C-0.07066406 1.32953125 -0.03585938 0.6746875 0 0 Z " fill="#FCDCCC" transform="translate(229,155)"/>
<path d="M0 0 C11.02068347 2.97011328 18.87760517 8.28191297 25 18 C29.43182203 26.54114491 29.59388353 34.90804035 29.46655273 44.2890625 C29.43745869 46.62832149 29.44600966 48.96532265 29.45898438 51.3046875 C29.44010081 65.37069854 26.55506556 75.37202094 16.625 85.6875 C4.96571072 96.77930175 4.96571072 96.77930175 -2.8125 97.125 C-3.534375 97.08375 -4.25625 97.0425 -5 97 C-4.319375 96.319375 -3.63875 95.63875 -2.9375 94.9375 C-2.47988281 94.47214844 -2.02226562 94.00679688 -1.55078125 93.52734375 C-0.51620811 92.50840647 0.54994995 91.52058995 1.64453125 90.56640625 C8.34264054 84.50333215 14.46885757 75.22337179 15.14717102 65.9985199 C15.15701523 65.29445511 15.16685944 64.59039032 15.17700195 63.86499023 C15.18983719 63.05992538 15.20267242 62.25486053 15.21589661 61.42539978 C15.22328354 60.56185379 15.23067047 59.6983078 15.23828125 58.80859375 C15.246353 57.90810806 15.25442474 57.00762238 15.26274109 56.07984924 C15.27656035 54.17263703 15.28729214 52.26540032 15.29516602 50.3581543 C15.30664807 48.42350936 15.32703954 46.48889515 15.35668945 44.55444336 C15.78611412 26.12190373 15.78611412 26.12190373 7.5 10.0625 C6.9328125 9.37285156 6.365625 8.68320312 5.78125 7.97265625 C4.50139934 6.55527778 3.15922747 5.19327284 1.78125 3.87109375 C0 2 0 2 0 0 Z " fill="#F9C9BB" transform="translate(267,49)"/>
<path d="M0 0 C1.15628906 0.00607269 1.15628906 0.00607269 2.3359375 0.01226807 C3.12742187 0.01035461 3.91890625 0.00844116 4.734375 0.00646973 C6.4088574 0.00510789 8.08335035 0.00880425 9.7578125 0.01715088 C12.32576131 0.02785067 14.89301053 0.01725582 17.4609375 0.00445557 C19.08593905 0.00577716 20.71094016 0.00833956 22.3359375 0.01226807 C23.10679688 0.0082196 23.87765625 0.00417114 24.671875 0 C30.10601618 0.04797174 30.10601618 0.04797174 32.3359375 2.27789307 C32.61592689 5.09841781 32.75221178 7.7673726 32.7734375 10.59039307 C32.80630859 11.35029541 32.83917969 12.11019775 32.87304688 12.89312744 C32.88013672 13.63498291 32.88722656 14.37683838 32.89453125 15.14117432 C32.90798584 15.81446777 32.92144043 16.48776123 32.93530273 17.18145752 C31.95552299 20.60849161 30.10154324 22.108695 27.3359375 24.27789307 C23.98608398 24.92486572 23.98608398 24.92486572 20.20703125 24.94195557 C19.19975731 24.94913101 19.19975731 24.94913101 18.1721344 24.95645142 C16.75934492 24.95983923 15.34647585 24.95071473 13.93383789 24.92974854 C11.77507697 24.90291345 9.62149294 24.92954393 7.46289062 24.96148682 C6.08592607 24.95818333 4.70896473 24.95177832 3.33203125 24.94195557 C2.08607178 24.93631592 0.8401123 24.93067627 -0.44360352 24.92486572 C-3.6640625 24.27789307 -3.6640625 24.27789307 -6.07250977 21.99493408 C-7.61582783 19.36023755 -8.16143596 18.12642282 -8.125 15.14117432 C-8.12113281 14.39931885 -8.11726563 13.65746338 -8.11328125 12.89312744 C-8.08878906 12.1332251 -8.06429687 11.37332275 -8.0390625 10.59039307 C-8.03777344 9.81888916 -8.03648438 9.04738525 -8.03515625 8.25250244 C-7.92755829 1.40807664 -6.85959787 0.06055545 0 0 Z " fill="#FEDECE" transform="translate(88.6640625,83.72210693359375)"/>
<path d="M0 0 C1.15628906 0.00607269 1.15628906 0.00607269 2.3359375 0.01226807 C3.12742187 0.01035461 3.91890625 0.00844116 4.734375 0.00646973 C6.4088574 0.00510789 8.08335035 0.00880425 9.7578125 0.01715088 C12.32576131 0.02785067 14.89301053 0.01725582 17.4609375 0.00445557 C19.08593905 0.00577716 20.71094016 0.00833956 22.3359375 0.01226807 C23.10679687 0.0082196 23.87765625 0.00417114 24.671875 0 C30.10601618 0.04797174 30.10601618 0.04797174 32.3359375 2.27789307 C32.61592689 5.09841781 32.75221178 7.7673726 32.7734375 10.59039307 C32.80630859 11.35029541 32.83917969 12.11019775 32.87304688 12.89312744 C32.88013672 13.63498291 32.88722656 14.37683838 32.89453125 15.14117432 C32.90798584 15.81446777 32.92144043 16.48776123 32.93530273 17.18145752 C31.95831283 20.59873341 30.08643318 22.10871999 27.3359375 24.27789307 C24.09375 24.92486572 24.09375 24.92486572 20.4609375 24.94195557 C19.14609375 24.94840088 17.83125 24.95484619 16.4765625 24.96148682 C15.79658203 24.95101318 15.11660156 24.94053955 14.41601562 24.92974854 C12.34059069 24.90295314 10.27057074 24.92952194 8.1953125 24.96148682 C6.22304688 24.95181885 6.22304688 24.95181885 4.2109375 24.94195557 C2.41269531 24.93349609 2.41269531 24.93349609 0.578125 24.92486572 C-3.59117105 24.09289023 -5.08702168 22.60386863 -7.6640625 19.27789307 C-8.26342773 17.18145752 -8.26342773 17.18145752 -8.22265625 15.14117432 C-8.21556641 14.39931885 -8.20847656 13.65746338 -8.20117188 12.89312744 C-8.16830078 12.1332251 -8.13542969 11.37332275 -8.1015625 10.59039307 C-8.09576172 9.81888916 -8.08996094 9.04738525 -8.08398438 8.25250244 C-7.9346704 1.41392254 -6.84644344 0.06043933 0 0 Z " fill="#FEDECE" transform="translate(398.6640625,83.72210693359375)"/>
<path d="M0 0 C11.22 0 22.44 0 34 0 C35.81873736 6.36558077 37.05107187 12.49279103 38.125 19 C38.30675781 20.05445313 38.48851562 21.10890625 38.67578125 22.1953125 C40.95265152 35.85653409 40.95265152 35.85653409 38.75 40.8125 C36.85692554 43.17884307 35.78591683 43.90623336 33 45 C30.421875 45.1953125 30.421875 45.1953125 27.75 45.125 C26.41195312 45.09792969 26.41195312 45.09792969 25.046875 45.0703125 C24.37140625 45.04710937 23.6959375 45.02390625 23 45 C23.24169922 43.91392456 23.24169922 43.91392456 23.48828125 42.8059082 C25.21717605 33.3258567 23.44344804 23.71929482 22 14.3125 C21.80921875 13.02666016 21.6184375 11.74082031 21.421875 10.41601562 C20.95500015 7.27628227 20.47849443 4.13798354 20 1 C13.4 1 6.8 1 0 1 C0 0.67 0 0.34 0 0 Z " fill="#4C6F78" transform="translate(157,439)"/>
<path d="M0 0 C24.49541643 -3.95357993 24.49541643 -3.95357993 34 0 C42.09278024 6.00993995 46.19685236 17.17781872 49.86547852 26.22436523 C50.73579739 28.86479788 50.73579739 28.86479788 52 30 C52.57750191 34.58214628 52.60577083 37.99734483 50.1875 42 C46.99298103 44.92070306 44.47317407 45.12279962 40.3125 45.0625 C39.10013672 45.04896484 39.10013672 45.04896484 37.86328125 45.03515625 C37.24839844 45.02355469 36.63351562 45.01195312 36 45 C36.33 44.38125 36.66 43.7625 37 43.125 C38.94186233 37.05668021 38.94388456 31.17382246 36.0234375 25.4375 C35.16524755 23.94391306 34.28156229 22.46473095 33.375 21 C32.42859256 19.4394656 31.48327155 17.87827178 30.5390625 16.31640625 C30.08692383 15.57664551 29.63478516 14.83688477 29.16894531 14.07470703 C28 12 28 12 26.7734375 8.65234375 C25.607258 5.55885232 24.49256975 4.15525942 22 2 C19.49564617 1.27781001 19.49564617 1.27781001 16.7421875 1.18359375 C15.25187012 1.08220093 15.25187012 1.08220093 13.73144531 0.97875977 C9.14789238 0.82566247 4.58296955 0.84068337 0 1 C0 0.67 0 0.34 0 0 Z " fill="#4C7079" transform="translate(321,439)"/>
<path d="M0 0 C5 2 5 2 7.91796875 3.59765625 C13.69256105 6.07203549 20.15142028 5.471642 26.3125 5.4375 C27.58029297 5.45748047 28.84808594 5.47746094 30.15429688 5.49804688 C38.02705198 5.49396984 43.93810492 4.44185091 51 1 C51.99 0.67 52.98 0.34 54 0 C54 3.63 54 7.26 54 11 C47.28870385 14.39955375 41.54972232 16.83484982 34 17 C32.9275 17.03867188 31.855 17.07734375 30.75 17.1171875 C19.63640368 17.3365348 9.74692878 16.62322814 0 11 C0 7.37 0 3.74 0 0 Z " fill="#F9CABB" transform="translate(229,155)"/>
<path d="M0 0 C0.33 0 0.66 0 1 0 C3.75182312 9.46813716 4.6206726 15.37245301 0.625 24.5625 C-4.00911604 35.30400595 -5.44072847 46.39029446 -6 58 C-8.97 58.99 -11.94 59.98 -15 61 C-14.94174102 43.3475288 -10.96610947 24.65009815 -3.296875 8.734375 C-1.94239884 5.87855176 -0.94500831 3.01332838 0 0 Z " fill="#F87B42" transform="translate(315,194)"/>
<path d="M0 0 C1.95803507 -0.05389087 3.91648909 -0.09274217 5.875 -0.125 C7.51082031 -0.15980469 7.51082031 -0.15980469 9.1796875 -0.1953125 C12 0 12 0 14 2 C14.27998939 4.82052475 14.41627428 7.48947953 14.4375 10.3125 C14.47037109 11.07240234 14.50324219 11.83230469 14.53710938 12.61523438 C14.57699521 16.78874301 14.33038496 18.54498583 11.8046875 22.0234375 C8.70474698 24.20807525 7.40948063 24.56063204 3.6875 24.3125 C2.36298828 24.24482422 2.36298828 24.24482422 1.01171875 24.17578125 C0.34785156 24.11777344 -0.31601563 24.05976562 -1 24 C-0.83628906 23.37738281 -0.67257813 22.75476563 -0.50390625 22.11328125 C0.19534902 17.79307618 0.10484393 13.55543955 0.0625 9.1875 C0.05798828 8.30384766 0.05347656 7.42019531 0.04882812 6.50976562 C0.03709866 4.33981441 0.01916495 2.16989828 0 0 Z " fill="#FDCDBE" transform="translate(107,84)"/>
<path d="M0 0 C1.95803507 -0.05389087 3.91648909 -0.09274217 5.875 -0.125 C7.51082031 -0.15980469 7.51082031 -0.15980469 9.1796875 -0.1953125 C12 0 12 0 14 2 C14.27998939 4.82052475 14.41627428 7.48947953 14.4375 10.3125 C14.47037109 11.07240234 14.50324219 11.83230469 14.53710938 12.61523438 C14.57699521 16.78874301 14.33038496 18.54498583 11.8046875 22.0234375 C8.70474698 24.20807525 7.40948063 24.56063204 3.6875 24.3125 C2.36298828 24.24482422 2.36298828 24.24482422 1.01171875 24.17578125 C0.34785156 24.11777344 -0.31601562 24.05976562 -1 24 C-0.83701416 23.43829102 -0.67402832 22.87658203 -0.50610352 22.29785156 C0.02985098 19.86446819 0.11361396 17.72377772 0.09765625 15.234375 C0.09443359 14.34492187 0.09121094 13.45546875 0.08789062 12.5390625 C0.07951172 11.61867188 0.07113281 10.69828125 0.0625 9.75 C0.05798828 8.81414062 0.05347656 7.87828125 0.04882812 6.9140625 C0.03706918 4.60930959 0.02063426 2.30468773 0 0 Z " fill="#FECDBE" transform="translate(417,84)"/>
<path d="M0 0 C5.94 0 11.88 0 18 0 C18 3.96 18 7.92 18 12 C12.06 12 6.12 12 0 12 C0 8.04 0 4.08 0 0 Z " fill="#F7C8B9" transform="translate(406,123)"/>
<path d="M0 0 C5.94 0 11.88 0 18 0 C18 3.96 18 7.92 18 12 C12.06 12 6.12 12 0 12 C0 8.04 0 4.08 0 0 Z " fill="#F7C8B9" transform="translate(88,123)"/>
<path d="M0 0 C2.64 0 5.28 0 8 0 C8 1.98 8 3.96 8 6 C7.67 6 7.34 6 7 6 C7 4.35 7 2.7 7 1 C6.01 1.33 5.02 1.66 4 2 C2.66832605 4.61559177 2.66832605 4.61559177 1.5625 7.75 C0.28650893 11.16948762 -0.72790886 13.68264416 -3.11328125 16.46484375 C-5.50650492 19.68058322 -5.58966706 21.84425967 -5.75 25.8125 C-5.80671875 26.97394531 -5.8634375 28.13539063 -5.921875 29.33203125 C-5.94765625 30.21246094 -5.9734375 31.09289062 -6 32 C-6.33 32 -6.66 32 -7 32 C-9.10107816 13.51506325 -9.10107816 13.51506325 -6.54296875 7.671875 C-4.81630556 5.54783312 -3.07374188 3.77679762 -1 2 C-0.67 1.34 -0.34 0.68 0 0 Z " fill="#E67740" transform="translate(305,130)"/>
<path d="M0 0 C2.125 0 2.125 0 5 1 C8.95064088 5.13021546 11.96125468 9.24388111 12.02172852 15.10644531 C11.97459717 15.83959961 11.92746582 16.57275391 11.87890625 17.328125 C11.83056641 18.12734375 11.78222656 18.9265625 11.73242188 19.75 C11.67634766 20.575 11.62027344 21.4 11.5625 22.25 C11.51029297 23.09046875 11.45808594 23.9309375 11.40429688 24.796875 C11.27504311 26.8649352 11.13825726 28.9325222 11 31 C10.67 31 10.34 31 10 31 C9.99742187 30.16597656 9.99484375 29.33195312 9.9921875 28.47265625 C9.74476157 21.27256173 8.90807125 16.85595049 4.5 11.14453125 C2.11863594 7.73992482 1.07233889 3.97894167 0 0 Z " fill="#F37C42" transform="translate(203,131)"/>
</svg>
