<?xml version="1.0" encoding="UTF-8"?>
<svg version="1.1" xmlns="http://www.w3.org/2000/svg" width="512" height="512">
<path d="M0 0 C1.1753833 0.00918457 1.1753833 0.00918457 2.37451172 0.01855469 C11.48472657 0.25922283 19.92168998 2.36599407 27.9375 6.8125 C31.25448476 8.80482275 31.25448476 8.80482275 34.24609375 7.69921875 C35.82583984 7.07466797 35.82583984 7.07466797 37.4375 6.4375 C38.51128906 6.02371094 39.58507812 5.60992187 40.69140625 5.18359375 C42.90027839 4.30995483 45.10861103 3.43495063 47.31640625 2.55859375 C56.42019739 -0.71147891 69.76784935 -1.85570253 78.75 2.25 C99.64086553 15.03665045 116.44860566 38.04674101 123.4375 61.4375 C124.38166307 67.82706871 123.29769417 73.21225166 119.4375 78.4375 C118.25898919 79.43227861 117.04906618 80.39088387 115.8125 81.3125 C111.81697808 84.39255972 111.30883553 87.60838958 110.62890625 92.4609375 C110.56574219 93.11320312 110.50257813 93.76546875 110.4375 94.4375 C111.05367188 94.72625 111.66984375 95.015 112.3046875 95.3125 C115.91913593 97.21902225 117.79879678 99.69084221 119.203125 103.53125 C122.35942193 115.99457635 118.01250016 128.10897761 112.0234375 139.01171875 C107.67040684 146.05338599 102.57002645 150.40436839 94.4375 152.4375 C92.6121875 152.5921875 92.6121875 152.5921875 90.75 152.75 C87.2519464 153.07308231 87.2519464 153.07308231 85.73046875 155.98046875 C85.30378906 156.79128906 84.87710937 157.60210937 84.4375 158.4375 C85.8915625 157.71433594 85.8915625 157.71433594 87.375 156.9765625 C97.71871228 152.02543647 109.76463788 147.09145814 121.375 150.4375 C123.453125 151.35546875 123.453125 151.35546875 125.4375 152.4375 C126.11296875 152.78425781 126.7884375 153.13101563 127.484375 153.48828125 C138.05358908 159.71794575 148.98105969 171.04894191 155.4375 181.4375 C155.4375 183.4375 155.4375 183.4375 153.9375 185.0625 C153.4425 185.51625 152.9475 185.97 152.4375 186.4375 C153.30375 187.70207031 153.30375 187.70207031 154.1875 188.9921875 C154.93774193 190.09879435 155.68772874 191.20557419 156.4375 192.3125 C157.18 193.40304688 157.9225 194.49359375 158.6875 195.6171875 C160.4375 198.4375 160.4375 198.4375 160.4375 200.4375 C161.08502668 200.43565641 161.73255337 200.43381283 162.39970207 200.43191338 C178.13944491 200.38778702 193.8791663 200.35466915 209.61895561 200.33387566 C217.23053073 200.32355338 224.84206462 200.30947495 232.45361328 200.28662109 C239.08613268 200.26671625 245.71862222 200.25379049 252.35117066 200.24932301 C255.86460256 200.24671068 259.37794903 200.240551 262.89135361 200.22603989 C266.80893329 200.20998998 270.72642861 200.20951844 274.64404297 200.21044922 C275.81504547 200.20325867 276.98604797 200.19606812 278.1925354 200.18865967 C279.78693451 200.19278366 279.78693451 200.19278366 281.4135437 200.19699097 C282.34086744 200.19514738 283.26819118 200.19330379 284.22361565 200.19140434 C286.4375 200.4375 286.4375 200.4375 288.4375 202.4375 C288.69146729 204.41088867 288.69146729 204.41088867 288.69628906 206.85546875 C288.70259338 207.76981689 288.70889771 208.68416504 288.71539307 209.6262207 C288.70932037 211.11061646 288.70932037 211.11061646 288.703125 212.625 C288.70599518 214.14516724 288.70599518 214.14516724 288.70892334 215.69604492 C288.71028591 217.84131112 288.70658447 219.98658553 288.69824219 222.13183594 C288.68754382 225.42401572 288.69813519 228.71564978 288.7109375 232.0078125 C288.70961592 234.08854288 288.70705355 236.16927291 288.703125 238.25 C288.70717346 239.23959717 288.71122192 240.22919434 288.71539307 241.2487793 C288.70908875 242.16312744 288.70278442 243.07747559 288.69628906 244.01953125 C288.69390228 245.22959839 288.69390228 245.22959839 288.69146729 246.46411133 C288.4375 248.4375 288.4375 248.4375 286.4375 250.4375 C284.00732422 250.66455078 284.00732422 250.66455078 280.9921875 250.6328125 C279.91582031 250.62636719 278.83945312 250.61992187 277.73046875 250.61328125 C276.60253906 250.59652344 275.47460938 250.57976562 274.3125 250.5625 C273.17683594 250.55347656 272.04117187 250.54445313 270.87109375 250.53515625 C268.05968701 250.51153098 265.24869702 250.47859013 262.4375 250.4375 C262.44026538 251.88808713 262.44026538 251.88808713 262.44308662 253.36797905 C262.4874315 276.86875824 262.52032571 300.36953201 262.54112434 323.87034416 C262.55144903 335.2350297 262.56553207 346.59968764 262.58837891 357.96435547 C262.60827636 367.86661297 262.62120775 377.7688505 262.62567699 387.67112744 C262.62829057 392.9171789 262.63445821 398.1631732 262.64896011 403.40920639 C262.66248652 408.34209674 262.66673271 413.27490613 262.66371536 418.20781326 C262.66426775 420.02271718 262.66827451 421.83762367 262.67591095 423.6525116 C262.68579501 426.12170344 262.68349304 428.5905856 262.67800903 431.05978394 C262.68674756 432.14829283 262.68674756 432.14829283 262.69566262 433.2587918 C262.66574242 438.20925758 262.66574242 438.20925758 260.4375 440.4375 C257.94681013 440.63447651 255.56733634 440.70525897 253.07546997 440.68918228 C252.30386307 440.69208916 251.53225618 440.69499604 250.73726726 440.69799101 C248.12440952 440.70535106 245.51178222 440.69831994 242.89892578 440.69146729 C241.01771486 440.69376935 239.13650483 440.69694415 237.25529671 440.70092177 C232.06453476 440.70931339 226.87384583 440.7051248 221.68308353 440.69894934 C216.09338434 440.69444361 210.50369812 440.70139922 204.91400146 440.70690918 C193.95535978 440.715825 182.99674541 440.71387146 172.03810263 440.7080839 C163.13560861 440.703576 154.23312227 440.70295072 145.33062744 440.70513153 C143.43355299 440.70559123 143.43355299 440.70559123 141.49815381 440.70606022 C138.92929633 440.70669964 136.36043886 440.70734806 133.79158139 440.7080054 C110.36410452 440.71355218 86.93664522 440.70778979 63.50917175 440.6973202 C42.10701796 440.68782847 20.70488796 440.6886777 -0.69726562 440.69824219 C-24.72372633 440.70894348 -48.75017215 440.71316572 -72.77663612 440.70701766 C-75.33629989 440.70638053 -77.89596367 440.70575179 -80.45562744 440.70513153 C-82.34497176 440.7046687 -82.34497176 440.7046687 -84.27248466 440.70419653 C-93.16926954 440.70246617 -102.06604601 440.705392 -110.96282959 440.71009064 C-121.79787998 440.71568687 -132.63290138 440.71420963 -143.46794844 440.70352915 C-149.00125443 440.69825542 -154.534512 440.69624446 -160.06781769 440.70282745 C-165.12569919 440.70875404 -170.18348703 440.7055667 -175.24135995 440.69487235 C-177.07846936 440.69262425 -178.91558656 440.69380581 -180.75269103 440.69862393 C-183.23539912 440.70463954 -185.71777949 440.69853534 -188.20046997 440.68918228 C-189.28910367 440.69620578 -189.28910367 440.69620578 -190.39972997 440.70337117 C-195.33419925 440.66580075 -195.33419925 440.66580075 -197.5625 438.4375 C-197.75554082 435.94136884 -197.82305407 433.55668147 -197.80300903 431.05978394 C-197.80471788 430.29036724 -197.80642673 429.52095055 -197.80818737 428.7282182 C-197.81149563 426.13626455 -197.80045675 423.54456673 -197.78955078 420.95263672 C-197.78898696 419.10014858 -197.78930267 417.24766 -197.79043579 415.39517212 C-197.79101142 410.35409016 -197.77922316 405.31310268 -197.76528788 400.27204275 C-197.75281548 395.00828113 -197.75161278 389.74451753 -197.74923706 384.48074341 C-197.743012 374.50765265 -197.72658734 364.53460555 -197.70653808 354.56153405 C-197.68421095 343.20983551 -197.67319368 331.85813492 -197.66314721 320.5064199 C-197.64222198 297.15008902 -197.60702612 273.79379695 -197.5625 250.4375 C-198.27905762 250.44797363 -198.99561523 250.45844727 -199.73388672 250.46923828 C-202.96838905 250.51071299 -206.20283553 250.53679892 -209.4375 250.5625 C-210.56542969 250.57925781 -211.69335938 250.59601563 -212.85546875 250.61328125 C-214.47001953 250.62294922 -214.47001953 250.62294922 -216.1171875 250.6328125 C-217.11218262 250.64328613 -218.10717773 250.65375977 -219.13232422 250.66455078 C-221.5625 250.4375 -221.5625 250.4375 -223.5625 248.4375 C-223.81646729 246.46411133 -223.81646729 246.46411133 -223.82128906 244.01953125 C-223.83074554 242.64800903 -223.83074554 242.64800903 -223.84039307 241.2487793 C-223.8363446 240.25918213 -223.83229614 239.26958496 -223.828125 238.25 C-223.83003845 237.23655518 -223.8319519 236.22311035 -223.83392334 235.17895508 C-223.83528591 233.03368888 -223.83158447 230.88841447 -223.82324219 228.74316406 C-223.81254382 225.45098428 -223.82313519 222.15935022 -223.8359375 218.8671875 C-223.83461592 216.78645712 -223.83205355 214.70572709 -223.828125 212.625 C-223.83217346 211.63540283 -223.83622192 210.64580566 -223.84039307 209.6262207 C-223.83408875 208.71187256 -223.82778442 207.79752441 -223.82128906 206.85546875 C-223.81969788 206.04875732 -223.81810669 205.2420459 -223.81646729 204.41088867 C-223.5625 202.4375 -223.5625 202.4375 -221.5625 200.4375 C-219.0821228 200.19699097 -219.0821228 200.19699097 -215.91943359 200.21044922 C-214.14782364 200.21067581 -214.14782364 200.21067581 -212.34042358 200.21090698 C-211.06019318 200.22122955 -209.77996277 200.23155212 -208.4609375 200.2421875 C-206.50083237 200.24643234 -206.50083237 200.24643234 -204.50112915 200.25076294 C-201.02567919 200.25840224 -197.55039617 200.2780531 -194.07501221 200.3001709 C-190.52919778 200.32062304 -186.9833564 200.32976329 -183.4375 200.33984375 C-176.47909805 200.36129884 -169.52080704 200.39543827 -162.5625 200.4375 C-162.42295898 199.49277832 -162.28341797 198.54805664 -162.13964844 197.57470703 C-161.09842066 191.9149029 -157.22061962 188.05198489 -153.1875 184.125 C-145.5523161 179.2166675 -139.10880544 179.13444977 -130.28515625 179.53125 C-127.89133685 179.5935289 -125.49745246 179.6533495 -123.10351562 179.7109375 C-119.35829221 179.81609761 -115.61639958 179.93787834 -111.87329102 180.10253906 C-97.78197726 181.56367321 -97.78197726 181.56367321 -85.05786133 177.1574707 C-82.77896753 174.35324365 -81.16782364 171.66391612 -79.5625 168.4375 C-78.05541992 166.59716797 -78.05541992 166.59716797 -76.62890625 165.16796875 C-75.80261719 164.32878906 -74.97632813 163.48960937 -74.125 162.625 C-65.51952519 154.16476527 -57.89487936 150.16482064 -45.89233398 150.11621094 C-39.50254995 150.22224166 -34.35759118 151.74041354 -28.5625 154.4375 C-27.68078125 154.8190625 -26.7990625 155.200625 -25.890625 155.59375 C-23.76838083 156.51646486 -21.66141782 157.46318753 -19.5625 158.4375 C-20.36666982 155.8621953 -20.36666982 155.8621953 -22.5625 153.4375 C-25.04837668 152.6834069 -27.49792848 152.29302441 -30.0625 151.88671875 C-35.99612648 150.82052024 -39.6063469 147.81009027 -43.5625 143.4375 C-44.2225 142.73625 -44.8825 142.035 -45.5625 141.3125 C-51.69292388 132.50001568 -54.91850575 122.55926299 -54.9375 111.875 C-54.96199219 111.14603516 -54.98648438 110.41707031 -55.01171875 109.66601562 C-55.04478349 103.54352829 -52.94976259 100.19203376 -48.9375 95.5625 C-47.5625 94.4375 -47.5625 94.4375 -45.5625 94.4375 C-45.8925 93.4475 -46.2225 92.4575 -46.5625 91.4375 C-46.60204234 89.10450175 -46.60651732 86.77041811 -46.5625 84.4375 C-47.15804687 84.17582031 -47.75359375 83.91414063 -48.3671875 83.64453125 C-52.62904611 81.30126735 -55.48346145 77.25224664 -57.9375 73.125 C-61.26300584 58.8253249 -52.93708327 46.12360238 -45.75195312 34.29150391 C-42.77477017 29.65096053 -39.21925371 25.54656993 -35.5625 21.4375 C-34.84320313 20.57511719 -34.12390625 19.71273437 -33.3828125 18.82421875 C-24.53244568 8.44629752 -14.1482879 -0.18974559 0 0 Z " fill="#4D241A" transform="translate(223.5625,35.5625)"/>
<path d="M0 0 C115.83 0 231.66 0 351 0 C351 9.9 351 19.8 351 30 C240.12 30 129.24 30 15 30 C15 33.3 15 36.6 15 40 C18.3 40 21.6 40 25 40 C25 99.4 25 158.8 25 220 C3.55 220 -17.9 220 -40 220 C-40 173.8 -40 127.6 -40 80 C-28.12 79.67 -16.24 79.34 -4 79 C-3.01 78.34 -2.02 77.68 -1 77 C-0.67 51.59 -0.34 26.18 0 0 Z " fill="#FEC86E" transform="translate(151,246)"/>
<path d="M0 0 C21.45 0 42.9 0 65 0 C65 59.4 65 118.8 65 180 C43.55 180 22.1 180 0 180 C0 120.6 0 61.2 0 0 Z " fill="#FFC96F" transform="translate(411,286)"/>
<path d="M0 0 C21.45 0 42.9 0 65 0 C65 59.4 65 118.8 65 180 C43.55 180 22.1 180 0 180 C0 120.6 0 61.2 0 0 Z " fill="#FFC96F" transform="translate(336,286)"/>
<path d="M0 0 C21.45 0 42.9 0 65 0 C65 59.4 65 118.8 65 180 C43.55 180 22.1 180 0 180 C0 120.6 0 61.2 0 0 Z " fill="#FFC96F" transform="translate(261,286)"/>
<path d="M0 0 C21.45 0 42.9 0 65 0 C65 59.4 65 118.8 65 180 C43.55 180 22.1 180 0 180 C0 120.6 0 61.2 0 0 Z " fill="#FFC96F" transform="translate(186,286)"/>
<path d="M0 0 C8.25 0 16.5 0 25 0 C25.04898438 2.64773438 25.09796875 5.29546875 25.1484375 8.0234375 C25.20241457 10.5817643 25.25973485 13.13999579 25.31738281 15.69824219 C25.35571565 17.47909473 25.39056089 19.26002584 25.421875 21.04101562 C25.46743271 23.59794234 25.52544107 26.1543261 25.5859375 28.7109375 C25.59748871 29.50994476 25.60903992 30.30895203 25.62094116 31.13217163 C25.57258944 35.53457212 25.57258944 35.53457212 28 39 C46.315 39.495 46.315 39.495 65 40 C65 86.2 65 132.4 65 180 C43.55 180 22.1 180 0 180 C0 120.6 0 61.2 0 0 Z " fill="#FEC86E" transform="translate(36,286)"/>
<path d="M0 0 C4.09613727 0.69677433 6.08098162 1.56657286 9.125 4.4375 C13.27580237 8.61775183 13.27580237 8.61775183 18.75 10.0625 C22.74888403 8.75517253 24.53714209 6.78570174 27.2890625 3.69140625 C30.06715715 0.94502501 32.08950268 0 36 0 C36.0093457 0.74048584 36.01869141 1.48097168 36.02832031 2.24389648 C36.08244601 5.64240652 36.16601112 9.03960202 36.25 12.4375 C36.26417969 13.60216797 36.27835937 14.76683594 36.29296875 15.96679688 C36.53606336 24.5966555 37.84272326 31.07473702 43.3125 37.875 C47.04876492 40.82925598 50.81895902 42.78058597 55.6015625 43.26171875 C56.39304687 43.50535156 57.18453125 43.74898437 58 44 C59.1171875 46.22265625 59.1171875 46.22265625 59.875 49.0625 C61.92186629 55.4527167 65.18331452 60.91023031 71.21875 64.21484375 C71.8065625 64.47394531 72.394375 64.73304688 73 65 C72.08908475 87.99275736 65.45425154 110.04727485 48.21875 126.22265625 C37.60479645 134.72503102 25.65891442 139.41367773 12 138 C-2.52051884 135.47370283 -14.13685493 126.09526999 -22.47167969 114.34008789 C-32.02265167 100.13695957 -38.08032353 82.22285014 -37 65 C-34.3125 62.9375 -34.3125 62.9375 -31 61 C-27.12488477 57.21714942 -25.83453781 54.59477809 -24.4375 49.375 C-23.23933739 45.71119699 -22.72771727 44.37733488 -19.2578125 42.578125 C-17.13299527 41.94431644 -14.99552181 41.35144909 -12.84765625 40.80078125 C-8.3013135 39.52231724 -6.30354636 37.20590773 -3.95605469 33.23339844 C-0.53003299 26.40400107 -0.3418312 19.98018087 -0.25 12.4375 C-0.20552734 10.63829102 -0.20552734 10.63829102 -0.16015625 8.80273438 C-0.09001338 5.86842424 -0.03704128 2.93488307 0 0 Z " fill="#F4C7A8" transform="translate(238,78)"/>
<path d="M0 0 C2.28125 1.08984375 2.28125 1.08984375 5.46875 3.40234375 C9.26113295 5.67777352 11.00613577 5.02211165 15.28125 4.08984375 C18.82345117 2.56394654 18.82345117 2.56394654 22.28125 0.65234375 C31.13924832 -4.08312633 39.23056981 -6.26221204 49.28125 -4.91015625 C53.05732331 -3.41988013 56.08023932 -1.38567835 59.28125 1.08984375 C59.94382812 1.57324219 60.60640625 2.05664062 61.2890625 2.5546875 C74.14055484 12.778648 88.36637833 32.32782667 91.7578125 48.33984375 C92.03737662 52.2243136 91.26191346 54.11857232 89.09375 57.33984375 C86.28125 60.08984375 86.28125 60.08984375 83.65625 61.79296875 C80.39372843 64.94817053 80.65758423 67.12808612 80.46875 71.58984375 C79.92266557 78.3653357 79.92266557 78.3653357 77.5625 81.03125 C74.32609559 82.76417549 72.16418901 83.23031132 68.53125 82.65234375 C64.6774254 79.97607667 62.66229422 77.88482566 61.66015625 73.1640625 C61.32983147 71.02591373 61.03298519 68.88226457 60.7734375 66.734375 C60.51200845 63.94341037 60.51200845 63.94341037 58.28125 62.08984375 C56.0472762 61.77705219 56.0472762 61.77705219 53.53125 61.71484375 C48.76741134 61.31613864 45.95532525 60.31586105 42.28125 57.08984375 C39.50359692 53.2649264 38.91334705 50.60063081 38.91015625 45.90625 C38.89275391 44.73126953 38.87535156 43.55628906 38.85742188 42.34570312 C38.84832179 39.88738112 38.84310103 37.42904163 38.84179688 34.97070312 C38.86680516 26.16233327 38.86680516 26.16233327 34.28125 19.08984375 C29.9881083 17.24085666 25.93808008 17.8783222 21.59375 19.27734375 C18.21872347 21.02650782 18.21872347 21.02650782 15.15625 23.40234375 C12.28125 25.08984375 12.28125 25.08984375 9.90625 24.65234375 C7.28125 23.08984375 7.28125 23.08984375 5.5078125 21.828125 C1.08110398 18.7749209 -2.21595254 17.28852334 -7.66796875 17.58984375 C-11.04738559 18.41377776 -12.66845659 20.39883365 -14.71875 23.08984375 C-16.03712468 25.72659312 -15.87958854 27.77646943 -15.9296875 30.7265625 C-15.97222656 32.4290918 -15.97222656 32.4290918 -16.015625 34.16601562 C-16.0672826 36.55388809 -16.11167656 38.94192988 -16.1484375 41.33007812 C-16.31811353 47.59041679 -16.48107238 52.64013579 -19.71875 58.08984375 C-24.43783426 60.88277117 -29.30732615 61.73500641 -34.6796875 62.66015625 C-36.70380361 62.89286201 -36.70380361 62.89286201 -37.71875 64.08984375 C-37.85098519 65.65021896 -37.94943529 67.21351406 -38.03125 68.77734375 C-38.46043842 73.54610401 -39.61002132 76.3410827 -42.71875 80.08984375 C-43.46125 81.04890625 -43.46125 81.04890625 -44.21875 82.02734375 C-45.71875 83.08984375 -45.71875 83.08984375 -47.46875 82.96484375 C-50.59004403 81.75100718 -53.65559713 80.44469983 -56.71875 79.08984375 C-56.75742188 77.76919922 -56.75742188 77.76919922 -56.796875 76.421875 C-56.85359375 75.26042969 -56.9103125 74.09898438 -56.96875 72.90234375 C-57.01515625 71.75378906 -57.0615625 70.60523437 -57.109375 69.421875 C-58.03629496 64.35352417 -60.931458 61.47795401 -64.90625 58.40234375 C-68.40877259 55.52249184 -68.58692304 54.93939525 -69.28125 50.46484375 C-69.05529239 34.82355602 -53.33825357 17.30064568 -43.2421875 6.50390625 C-29.40601838 -6.73255275 -17.17743255 -7.02472164 0 0 Z " fill="#3278AD" transform="translate(244.71875,50.91015625)"/>
<path d="M0 0 C1.11069351 -0.0038269 2.22138702 -0.00765381 3.36573792 -0.01159668 C5.71168933 -0.01431535 8.05767107 -0.00695745 10.40356445 0.00976562 C13.98783255 0.03115408 17.57009146 0.00997119 21.15429688 -0.015625 C23.43620233 -0.01298132 25.71810654 -0.00785552 28 0 C29.06890976 -0.00809692 30.13781952 -0.01619385 31.23912048 -0.02453613 C37.15386034 0.04970908 41.03446679 0.33162066 45.56640625 4.53125 C49.30357477 9.17261927 50.13556177 12.74399378 50.02050781 18.55615234 C50.02109192 19.33731415 50.02167603 20.11847595 50.02227783 20.92330933 C50.01950572 23.48839785 49.98845658 26.05230366 49.95703125 28.6171875 C49.94956572 30.4022254 49.94387426 32.18727152 49.93988037 33.97232056 C49.92464855 38.65784555 49.88538809 43.34287018 49.84106445 48.02819824 C49.79284209 53.65660768 49.77456604 59.28518493 49.75125122 64.91374207 C49.71253536 73.45325878 49.63586503 81.99167883 49.56640625 90.53125 C26.46640625 90.53125 3.36640625 90.53125 -20.43359375 90.53125 C-20.59402899 70.80662888 -20.59402899 70.80662888 -20.62890625 62.38671875 C-20.65280049 56.64551981 -20.68104115 50.9045765 -20.73535156 45.16357422 C-20.77887233 40.53404568 -20.80274414 35.90479135 -20.81310272 31.27507401 C-20.82048292 29.51044016 -20.83489486 27.74582101 -20.85651398 25.98130417 C-20.88563137 23.50592591 -20.88954636 21.03167482 -20.88769531 18.55615234 C-20.90207642 17.82966492 -20.91645752 17.10317749 -20.93127441 16.35467529 C-20.88076661 10.09586983 -18.37164991 6.76104905 -14.39819336 2.18945312 C-9.75549604 -0.40736811 -5.23253211 -0.03956118 0 0 Z " fill="#9BD1FA" transform="translate(91.43359375,225.46875)"/>
<path d="M0 0 C3.11429717 1.36878384 6.16003748 2.85131982 9.21875 4.33984375 C13.90558406 6.57991581 18.17117001 7.86153938 23.28125 8.77734375 C28.55101185 9.77196768 31.46490725 10.88202474 35.21484375 14.66015625 C41.26349245 20.4433908 48.92061051 23.32996851 56.90625 25.27734375 C57.52113281 25.45910156 58.13601562 25.64085937 58.76953125 25.828125 C72.58006973 28.73162029 85.97488927 24.75864289 97.59375 17.21484375 C100.33058776 15.30322125 102.66245459 13.54690228 104.90234375 11.0703125 C107.46573395 8.77675285 108.87886084 8.8256558 112.28125 8.65234375 C120.20112882 7.7205933 126.74098615 4.37344671 133.77490234 0.73193359 C140.77578988 -2.73371451 147.62000207 -4.47094568 155.27661133 -1.9387207 C165.6253387 2.72583173 174.63531949 14.13970214 180.90625 23.27734375 C183.87625 22.78234375 183.87625 22.78234375 186.90625 22.27734375 C188.22643588 24.02155288 189.53713602 25.77294466 190.84375 27.52734375 C191.57464844 28.501875 192.30554688 29.47640625 193.05859375 30.48046875 C194.90625 33.27734375 194.90625 33.27734375 195.90625 37.27734375 C118.68625 37.27734375 41.46625 37.27734375 -38.09375 37.27734375 C-39.41375 33.97734375 -40.73375 30.67734375 -42.09375 27.27734375 C-42.75375 26.61734375 -43.41375 25.95734375 -44.09375 25.27734375 C-44.03164077 20.21987819 -40.85263777 17.33479623 -37.53125 13.90234375 C-36.98911865 13.33016113 -36.4469873 12.75797852 -35.88842773 12.16845703 C-31.84153197 7.94211268 -27.69645135 3.90074694 -23.09375 0.27734375 C-22.31 -0.36203125 -21.52625 -1.00140625 -20.71875 -1.66015625 C-13.65476537 -4.51938812 -6.8249437 -2.69355222 0 0 Z " fill="#F2AA7C" transform="translate(188.09375,198.72265625)"/>
<path d="M0 0 C16.83 0 33.66 0 51 0 C51 9.9 51 19.8 51 30 C34.17 30 17.34 30 0 30 C0 20.1 0 10.2 0 0 Z " fill="#FFC96F" transform="translate(10,246)"/>
<path d="M0 0 C1.17825358 0.90172468 2.34231577 1.82201502 3.5 2.75 C4.1496875 3.26046875 4.799375 3.7709375 5.46875 4.296875 C7 6 7 6 7 10 C5.7578125 12.1484375 5.7578125 12.1484375 4.125 14.375 C0.10674523 20.21714346 -1.70553409 24.80323519 -0.7890625 31.921875 C2.03327099 42.93177002 8.54645156 53.33123248 14.02929688 63.20336914 C19.0079338 72.31932486 20.99595094 82.37909643 18.3125 92.625 C16.07838952 97.98686516 12.65887719 102.52397357 9 107 C4.75074742 106.21007484 2.91089135 104.15346563 0 101 C1.04091826 98.87438655 2.11675396 96.79514987 3.2890625 94.73828125 C6.43745975 89.02145466 8.27418089 84.52207845 7 78 C5.18685016 71.82333572 2.15217581 66.24396861 -0.8984375 60.609375 C-14.98577912 34.56352222 -14.98577912 34.56352222 -11.9296875 19.11328125 C-9.69328157 11.62414039 -5.96298174 5.08607266 0 0 Z " fill="#522F28" transform="translate(403,74)"/>
<path d="M0 0 C1.17825358 0.90172468 2.34231577 1.82201502 3.5 2.75 C4.1496875 3.26046875 4.799375 3.7709375 5.46875 4.296875 C7 6 7 6 7 10 C5.7578125 12.1484375 5.7578125 12.1484375 4.125 14.375 C0.10674523 20.21714346 -1.70553409 24.80323519 -0.7890625 31.921875 C2.03327099 42.93177002 8.54645156 53.33123248 14.02929688 63.20336914 C19.0079338 72.31932486 20.99595094 82.37909643 18.3125 92.625 C16.07838952 97.98686516 12.65887719 102.52397357 9 107 C4.75074742 106.21007484 2.91089135 104.15346563 0 101 C1.04091826 98.87438655 2.11675396 96.79514987 3.2890625 94.73828125 C6.43745975 89.02145466 8.27418089 84.52207845 7 78 C5.18685016 71.82333572 2.15217581 66.24396861 -0.8984375 60.609375 C-14.98577912 34.56352222 -14.98577912 34.56352222 -11.9296875 19.11328125 C-9.69328157 11.62414039 -5.96298174 5.08607266 0 0 Z " fill="#522F28" transform="translate(103,74)"/>
<path d="M0 0 C21.45 0 42.9 0 65 0 C65 4.95 65 9.9 65 15 C43.55 15 22.1 15 0 15 C0 10.05 0 5.1 0 0 Z " fill="#FFB234" transform="translate(411,286)"/>
<path d="M0 0 C21.45 0 42.9 0 65 0 C65 4.95 65 9.9 65 15 C43.55 15 22.1 15 0 15 C0 10.05 0 5.1 0 0 Z " fill="#FFB234" transform="translate(336,286)"/>
<path d="M0 0 C21.45 0 42.9 0 65 0 C65 4.95 65 9.9 65 15 C43.55 15 22.1 15 0 15 C0 10.05 0 5.1 0 0 Z " fill="#FFB234" transform="translate(261,286)"/>
<path d="M0 0 C21.45 0 42.9 0 65 0 C65 4.95 65 9.9 65 15 C43.55 15 22.1 15 0 15 C0 10.05 0 5.1 0 0 Z " fill="#FFB234" transform="translate(186,286)"/>
<path d="M0 0 C4.95 0 9.9 0 15 0 C15 1.65 15 3.3 15 5 C18.3 5 21.6 5 25 5 C25 9.95 25 14.9 25 20 C16.75 20 8.5 20 0 20 C0 13.4 0 6.8 0 0 Z " fill="#FFB234" transform="translate(151,281)"/>
<path d="M0 0 C0.55429688 0.50402344 1.10859375 1.00804687 1.6796875 1.52734375 C4.84654255 3.53728374 7.21135884 3.43352333 10.9375 3.4375 C12.14277344 3.45683594 13.34804688 3.47617188 14.58984375 3.49609375 C18.54916999 2.92010929 20.05862168 1.60937089 23 -1 C26.60897872 -0.81955106 29.69593234 0.583971 33 2 C29.84620559 8.30758883 26.85078169 11.16629443 20.375 14.25 C12.47856034 16.00476437 4.18453774 16.02526556 -3 12 C-7.04924418 9.36979898 -9.64422069 6.74522758 -11 2 C-3.41293875 -1.6476256 -3.41293875 -1.6476256 0 0 Z " fill="#562C20" transform="translate(245,173)"/>
<path d="M0 0 C6.75 0.75 6.75 0.75 9 3 C9.5625 5.57861328 9.5625 5.57861328 10 8.8203125 C10.165 9.9959375 10.33 11.1715625 10.5 12.3828125 C10.665 13.61773437 10.83 14.85265625 11 16.125 C12.49787128 27.16185936 12.49787128 27.16185936 15 38 C9.69360518 37.35376667 7.91774064 35.24275 4.640625 31.24609375 C-1.12175556 23.35712036 -4.33248487 13.82948985 -3 4 C-1.5 1.4375 -1.5 1.4375 0 0 Z " fill="#ECA579" transform="translate(182,139)"/>
<path d="M0 0 C8.25 0 16.5 0 25 0 C25 4.95 25 9.9 25 15 C16.75 15 8.5 15 0 15 C0 10.05 0 5.1 0 0 Z " fill="#FFB234" transform="translate(36,286)"/>
<path d="M0 0 C2.05746175 1.57771706 2.89439534 2.49861572 3.43359375 5.05859375 C3.45111747 15.73054183 -0.00234789 26.80545527 -7.546875 34.59765625 C-10.15839479 36.91828893 -11.43046098 38 -15 38 C-14.80664062 37.27296875 -14.61328125 36.5459375 -14.4140625 35.796875 C-11.79321711 25.67677893 -9.87718654 15.74381979 -9.5390625 5.27734375 C-9 3 -9 3 -7.12109375 1.21484375 C-4.48507356 -0.29492104 -2.99303152 -0.46046639 0 0 Z " fill="#EDA679" transform="translate(330,139)"/>
<path d="M0 0 C2.28519577 1.10027945 4.29945448 2.21277029 6.375 3.6875 C9.7874655 5.39373275 11.39681746 5.14995188 15 4 C17.35631825 2.06283962 17.35631825 2.06283962 19 0 C22.93673644 1.31224548 25.22719294 2.91910327 28 6 C24.67314236 10.43581018 21.41909702 14.19701071 16 16 C10.76759626 16.7463982 6.50276807 16.70885286 1.6875 14.4375 C-1.55330979 11.49816089 -4.25048376 8.40416297 -7 5 C-4.69 3.35 -2.38 1.7 0 0 Z " fill="#4E271E" transform="translate(222,141)"/>
<path d="M0 0 C2.26118705 1.04983684 3.97525665 1.97696309 5.8125 3.6875 C8.07517815 5.30776155 8.07517815 5.30776155 11.5 4.9375 C15.22632646 3.93937684 16.61553955 2.95673096 19 0 C22.0831351 1.19899698 25.06279492 2.47700477 28 4 C26.56875447 7.35934832 24.82271696 9.31792827 22.0625 11.6875 C21.37285156 12.28949219 20.68320312 12.89148438 19.97265625 13.51171875 C16.19062492 16.36509288 12.28398959 16.45427004 7.70703125 16.4140625 C2.95139434 15.68664906 -0.47858218 13.1722477 -4 10 C-6.0625 7.125 -6.0625 7.125 -7 5 C-4.69 3.35 -2.38 1.7 0 0 Z " fill="#4E281F" transform="translate(269,141)"/>
<path d="M0 0 C1.32 1.32 2.64 2.64 4 4 C3.29875 4.061875 2.5975 4.12375 1.875 4.1875 C-2.0332733 5.29201202 -4.00357248 7.28230992 -7 10 C-5.6062718 5.56541027 -3.39417765 3.12621626 0 0 Z " fill="#615053" transform="translate(403,74)"/>
<path d="M0 0 C1.32 1.32 2.64 2.64 4 4 C3.29875 4.061875 2.5975 4.12375 1.875 4.1875 C-2.0332733 5.29201202 -4.00357248 7.28230992 -7 10 C-5.6062718 5.56541027 -3.39417765 3.12621626 0 0 Z " fill="#615053" transform="translate(103,74)"/>
</svg>
